<svg width="70" height="71" viewBox="0 0 70 71" fill="none" xmlns="http://www.w3.org/2000/svg">
<circle cx="35" cy="35.5" r="35" fill="white"/>
<path d="M35 20C43.5 20 50.5 27 50.5 35.5C50.5 44.0625 43.5 51 35 51C26.4375 51 19.5 44.0625 19.5 35.5C19.5 27 26.4375 20 35 20ZM35 26.875C33.5 26.875 32.375 28.0625 32.375 29.5C32.375 31 33.5 32.125 35 32.125C36.4375 32.125 37.625 31 37.625 29.5C37.625 28.0625 36.4375 26.875 35 26.875ZM38.5 42.75V41.25C38.5 40.875 38.125 40.5 37.75 40.5H37V34.25C37 33.875 36.625 33.5 36.25 33.5H32.25C31.8125 33.5 31.5 33.875 31.5 34.25V35.75C31.5 36.1875 31.8125 36.5 32.25 36.5H33V40.5H32.25C31.8125 40.5 31.5 40.875 31.5 41.25V42.75C31.5 43.1875 31.8125 43.5 32.25 43.5H37.75C38.125 43.5 38.5 43.1875 38.5 42.75Z" fill="#16ACDA"/>
</svg>
