<svg width="24" height="24" viewBox="0 0 24 24" fill="none" xmlns="http://www.w3.org/2000/svg">
<g clip-path="url(#clip0_113_1167)">
<path d="M12 22.1999C9.98262 22.1999 8.01056 21.6017 6.33318 20.4809C4.65579 19.3601 3.34843 17.7671 2.57642 15.9033C1.80441 14.0395 1.60241 11.9886 1.99598 10.01C2.38955 8.03142 3.36101 6.21395 4.7875 4.78746C6.214 3.36096 8.03146 2.38951 10.0101 1.99594C11.9887 1.60237 14.0396 1.80436 15.9034 2.57638C17.7672 3.34839 19.3602 4.65575 20.481 6.33313C21.6018 8.01051 22.2 9.98258 22.2 11.9999C22.2011 13.3397 21.938 14.6666 21.4258 15.9046C20.9136 17.1426 20.1623 18.2675 19.2149 19.2149C18.2676 20.1623 17.1427 20.9136 15.9047 21.4258C14.6667 21.938 13.3398 22.2011 12 22.1999ZM12 4.19995C10.4573 4.19995 8.94925 4.65741 7.66654 5.51448C6.38384 6.37156 5.3841 7.58975 4.79373 9.01502C4.20337 10.4403 4.0489 12.0086 4.34987 13.5217C4.65083 15.0347 5.39371 16.4245 6.48456 17.5154C7.57541 18.6062 8.96524 19.3491 10.4783 19.6501C11.9913 19.951 13.5597 19.7966 14.9849 19.2062C16.4102 18.6158 17.6284 17.6161 18.4855 16.3334C19.3425 15.0507 19.8 13.5426 19.8 11.9999C19.802 10.9751 19.6017 9.95985 19.2104 9.01259C18.8192 8.06532 18.2447 7.20464 17.52 6.47993C16.7953 5.75522 15.9346 5.18076 14.9874 4.7895C14.0401 4.39824 13.0249 4.19789 12 4.19995Z" fill="white"/>
<path d="M15.42 15.12C15.3116 15.2337 15.1813 15.3243 15.0369 15.3861C14.8925 15.448 14.7371 15.4799 14.58 15.4799C14.4229 15.4799 14.2675 15.448 14.1231 15.3861C13.9787 15.3243 13.8484 15.2337 13.74 15.12L12 13.38L10.32 15.06C10.0964 15.2791 9.79547 15.4011 9.48248 15.3995C9.16948 15.398 8.86976 15.2729 8.64843 15.0516C8.42711 14.8303 8.30207 14.5305 8.30049 14.2176C8.29891 13.9046 8.42091 13.6036 8.63999 13.38L10.32 11.7L8.63999 10.02C8.42091 9.79649 8.29891 9.49552 8.30049 9.18252C8.30207 8.86953 8.42711 8.5698 8.64843 8.34848C8.86976 8.12716 9.16948 8.00212 9.48248 8.00054C9.79547 7.99896 10.0964 8.12096 10.32 8.34004L12 10.02L13.68 8.34004C13.9035 8.12096 14.2045 7.99896 14.5175 8.00054C14.8305 8.00212 15.1302 8.12716 15.3515 8.34848C15.5729 8.5698 15.6979 8.86953 15.6995 9.18252C15.7011 9.49552 15.5791 9.79649 15.36 10.02L13.68 11.7L15.36 13.38C15.585 13.6105 15.7158 13.9166 15.7269 14.2384C15.738 14.5603 15.6286 14.8747 15.42 15.12Z" fill="white"/>
</g>
<defs>
<clipPath id="clip0_113_1167">
<rect width="24" height="24" fill="white"/>
</clipPath>
</defs>
</svg>
