<svg width="70" height="71" viewBox="0 0 70 71" fill="none" xmlns="http://www.w3.org/2000/svg">
<circle cx="35" cy="35.5" r="35" fill="white"/>
<path d="M35 19.5C39.3125 19.5 42.875 23.0625 42.875 27.375C42.875 30.9375 37.6875 37.3125 35.75 39.6875C35.3125 40.125 34.625 40.125 34.1875 39.6875C32.25 37.3125 27.125 30.9375 27.125 27.375C27.125 23.0625 30.625 19.5 35 19.5ZM35 30C36.4375 30 37.625 28.875 37.625 27.375C37.625 25.9375 36.4375 24.75 35 24.75C33.5 24.75 32.375 25.9375 32.375 27.375C32.375 28.875 33.5 30 35 30ZM18.25 33L25.625 30.0625C25.9375 31 26.4375 31.9375 27 32.9375V47.5L18.3125 51.4375C17.6875 51.75 17 51.25 17 50.5V34.875C17 34.0625 17.5 33.3125 18.25 33ZM35 42C35.875 42 36.6875 41.625 37.25 40.9375C38.5 39.5 39.8125 37.875 41 36.125V51.5L29 47.5V36.125C30.125 37.875 31.4375 39.5 32.6875 40.9375C33.25 41.625 34.0625 42 35 42ZM51.625 29.625C52.25 29.3125 53 29.8125 53 30.5625V46.1875C53 47 52.4375 47.75 51.6875 48.0625L43 51.5V33.5L51.625 29.625Z" fill="#16ACDA"/>
</svg>
