<svg width="24" height="25" viewBox="0 0 24 25" fill="none" xmlns="http://www.w3.org/2000/svg">
<g clip-path="url(#clip0_154_4455)">
<path d="M11.9973 1.55981C7.44985 1.55981 3.74805 5.26162 3.74805 9.80908C3.74804 17.8106 11.5322 23.8937 11.5322 23.8937C11.6651 23.9997 11.8301 24.0575 12.0001 24.0575C12.1701 24.0575 12.335 23.9997 12.4679 23.8937C12.4679 23.8937 20.2521 17.8106 20.2521 9.80908C20.2521 5.26162 16.5448 1.55981 11.9973 1.55981ZM11.9973 3.06018C15.7341 3.06018 18.7517 6.07228 18.7517 9.80908C18.7518 16.355 12.8243 21.5268 12.0028 22.2273C11.1853 21.5303 5.24841 16.3576 5.24842 9.80908C5.24842 6.07228 8.26051 3.06018 11.9973 3.06018Z" fill="#1D2D47" stroke="#1D2D47" stroke-width="0.8"/>
<path d="M11.9972 6.06088C9.935 6.06088 8.24903 7.74686 8.24902 9.80904C8.24901 11.8712 9.93498 13.5627 11.9972 13.5627C14.0594 13.5627 15.7509 11.8712 15.7509 9.80904C15.7509 7.74686 14.0594 6.06088 11.9972 6.06088ZM11.9972 7.56125C13.2487 7.56125 14.2505 8.55751 14.2505 9.80904C14.2505 11.0606 13.2487 12.0624 11.9972 12.0624C10.7456 12.0624 9.74938 11.0606 9.74939 9.80904C9.7494 8.55751 10.7457 7.56125 11.9972 7.56125Z" fill="#1D2D47" stroke="#1D2D47" stroke-width="0.8"/>
</g>
<defs>
<clipPath id="clip0_154_4455">
<rect width="24" height="24" fill="white" transform="translate(0 0.812744)"/>
</clipPath>
</defs>
</svg>
