<svg width="25" height="33" viewBox="0 0 25 33" fill="none" xmlns="http://www.w3.org/2000/svg">
<path d="M11.25 31.875C10.25 30.4167 9.10417 28.7708 7.8125 26.9375C6.5625 25.1042 5.66667 23.8125 5.125 23.0625C4.58333 22.3125 3.95833 21.3958 3.25 20.3125C2.54167 19.1875 2.0625 18.3958 1.8125 17.9375C1.60417 17.4792 1.35417 16.8958 1.0625 16.1875C0.8125 15.4792 0.645833 14.875 0.5625 14.375C0.520833 13.8333 0.5 13.2083 0.5 12.5C0.5 9.16667 1.66667 6.33333 4 4C6.33333 1.66667 9.16667 0.5 12.5 0.5C15.8333 0.5 18.6667 1.66667 21 4C23.3333 6.33333 24.5 9.16667 24.5 12.5C24.5 13.2083 24.4583 13.8333 24.375 14.375C24.3333 14.875 24.1667 15.4792 23.875 16.1875C23.625 16.8958 23.375 17.4792 23.125 17.9375C22.9167 18.3958 22.4583 19.1875 21.75 20.3125C21.0417 21.3958 20.4167 22.3125 19.875 23.0625C19.3333 23.8125 18.4167 25.1042 17.125 26.9375C15.875 28.7708 14.75 30.4167 13.75 31.875C13.4583 32.2917 13.0417 32.5 12.5 32.5C11.9583 32.5 11.5417 32.2917 11.25 31.875Z" fill="#16ACDA"/>
</svg>
