<svg width="24" height="24" viewBox="0 0 24 24" fill="none" xmlns="http://www.w3.org/2000/svg">
<path d="M7.88197 20.4013H7.93629C9.26937 20.3897 10.5442 19.8533 11.4845 18.9082L19.9994 10.392C20.6608 9.72922 21.0322 8.83111 21.0322 7.89477C21.0322 6.95844 20.6608 6.06033 19.9994 5.39751L19.9173 5.31541C19.2545 4.65405 18.3564 4.28263 17.4201 4.28263C16.4837 4.28263 15.5856 4.65405 14.9228 5.31541L6.26386 13.9756C5.84879 14.3907 5.6156 14.9537 5.6156 15.5407C5.6156 16.1277 5.84879 16.6906 6.26386 17.1057C6.67894 17.5208 7.24191 17.754 7.82892 17.754C8.41593 17.754 8.97889 17.5208 9.39397 17.1057L15.2538 11.2459C15.3851 11.1146 15.4589 10.9365 15.4589 10.7508C15.4589 10.5651 15.3851 10.3869 15.2538 10.2556C15.1224 10.1243 14.9443 10.0505 14.7586 10.0505C14.5729 10.0505 14.3948 10.1243 14.2634 10.2556L8.40365 16.1167C8.32801 16.1921 8.23825 16.252 8.13948 16.2928C8.04071 16.3335 7.93488 16.3545 7.82802 16.3544C7.72117 16.3542 7.61538 16.3331 7.5167 16.2921C7.41803 16.2511 7.32839 16.191 7.25292 16.1154C7.17744 16.0398 7.1176 15.95 7.07682 15.8512C7.03604 15.7525 7.01511 15.6466 7.01522 15.5398C7.01534 15.4329 7.0365 15.3271 7.0775 15.2285C7.1185 15.1298 7.17854 15.0401 7.25418 14.9647L15.9119 6.30446C16.3126 5.9069 16.8543 5.68382 17.4188 5.68382C17.9833 5.68382 18.525 5.9069 18.9258 6.30446L19.0091 6.38783C19.4067 6.78861 19.6298 7.33026 19.6298 7.89477C19.6298 8.45929 19.4067 9.00094 19.0091 9.40172L10.4929 17.9179C9.81131 18.6038 8.88677 18.9932 7.91986 19.0017H7.88071C7.41475 19.0055 6.95275 18.9159 6.52203 18.7381C6.09131 18.5603 5.7006 18.298 5.37299 17.9666C5.04539 17.6352 4.78754 17.2415 4.61468 16.8088C4.44182 16.3761 4.35747 15.9131 4.3666 15.4472C4.37539 14.4804 4.76478 13.5559 5.45039 12.8741L14.3304 3.99414C14.3953 3.92912 14.4468 3.85194 14.4819 3.76701C14.5171 3.68208 14.5351 3.59107 14.535 3.49917C14.535 3.40727 14.5168 3.31628 14.4816 3.2314C14.4464 3.14652 14.3948 3.0694 14.3298 3.00446C14.2647 2.93952 14.1876 2.88802 14.1026 2.8529C14.0177 2.81779 13.9267 2.79975 13.8348 2.7998C13.7429 2.79986 13.6519 2.81802 13.567 2.85325C13.4821 2.88847 13.405 2.94007 13.3401 3.00509L4.46008 11.8851C3.51437 12.825 2.97744 14.1 2.96576 15.4333C2.95481 16.0841 3.07402 16.7306 3.3164 17.3348C3.55878 17.9389 3.91943 18.4885 4.37717 18.9513C4.83492 19.4141 5.38053 19.7808 5.98196 20.0298C6.58339 20.2788 7.22852 20.4051 7.87944 20.4013H7.88197Z" fill="#1D2D47"/>
</svg>
