<svg width="32" height="32" viewBox="0 0 32 32" fill="none" xmlns="http://www.w3.org/2000/svg">
<g clip-path="url(#clip0_111_1323)">
<path d="M11.5305 13.7871L14.719 16.2465C14.8418 17.2378 15.6775 18.0085 16.7021 18.0085C17.8117 18.0085 18.7108 17.1088 18.7108 15.9997C18.7108 15.9572 18.7011 15.9168 18.698 15.8748L23.3704 10.3473C23.696 9.98165 23.7022 9.45477 23.3837 9.17215C23.0657 8.88896 22.544 8.95652 22.2183 9.32265L17.6278 14.227C17.3493 14.0811 17.038 13.991 16.702 13.991C16.3432 13.991 16.0108 14.0928 15.7189 14.2583L12.7173 12.1681C12.3302 11.8829 11.7495 12.015 11.4213 12.4626C11.0942 12.909 11.1423 13.5025 11.5305 13.7871Z" fill="#1D2D47"/>
<path d="M27.5196 5.18277C24.7571 2.41671 20.9208 0.701331 16.7021 0.702393V4.41058C19.9085 4.41164 22.7939 5.70508 24.8973 7.80496C26.9967 9.90789 28.2902 12.7938 28.2912 15.9997C28.2902 19.2056 26.9967 22.0915 24.8973 24.1945C22.7939 26.2948 19.9085 27.5883 16.7021 27.5888C13.4962 27.5883 10.6103 26.2948 8.50735 24.1945C6.40747 22.0915 5.11403 19.2056 5.11303 15.9997C5.11353 14.9485 5.25691 13.9361 5.51703 12.972L7.01991 13.908C7.2191 14.0315 7.46128 14.0576 7.65997 13.9761C7.86016 13.8937 7.99122 13.716 8.0066 13.503L8.65385 5.02714C8.67122 4.78439 8.5381 4.53964 8.31185 4.39733C8.08347 4.25708 7.80441 4.24421 7.59497 4.36864L0.273221 8.68564C0.0884086 8.7937 -0.0130289 8.98927 0.00134606 9.20433C0.0156586 9.42045 0.145221 9.62577 0.344909 9.74964L2.26353 10.9448C1.70903 12.5296 1.40435 14.2316 1.40435 15.9997C1.40335 20.2179 3.11972 24.0541 5.88478 26.8171C8.64772 29.5822 12.4835 31.2986 16.7022 31.2975C20.9204 31.2986 24.7572 29.5822 27.5197 26.8171C30.2847 24.0541 32.0011 20.2179 32 15.9997C32.001 11.781 30.2846 7.94477 27.5196 5.18277Z" fill="#1D2D47"/>
</g>
<defs>
<clipPath id="clip0_111_1323">
<rect width="32" height="32" fill="white"/>
</clipPath>
</defs>
</svg>
