<svg width="24" height="24" viewBox="0 0 24 24" fill="none" xmlns="http://www.w3.org/2000/svg">
<path d="M21.312 9.65166C21.2765 9.49801 21.2112 9.35286 21.1196 9.22447C21.028 9.09609 20.9121 8.987 20.7784 8.90343C20.6447 8.81985 20.4958 8.76344 20.3403 8.7374C20.1848 8.71136 20.0256 8.7162 19.872 8.75166C19.7183 8.78712 19.5732 8.85249 19.4448 8.94405C19.3164 9.0356 19.2073 9.15155 19.1237 9.28526C19.0402 9.41898 18.9838 9.56785 18.9577 9.72337C18.9317 9.87889 18.9365 10.038 18.972 10.1917C19.4226 11.9983 19.165 13.9089 18.252 15.5317C16.272 18.9517 11.832 20.1517 8.41198 18.1717C4.99198 16.2517 3.79198 11.8117 5.77198 8.39166C7.75198 4.97166 12.192 3.77166 15.612 5.75166C15.7459 5.83045 15.8941 5.88209 16.048 5.90363C16.2019 5.92516 16.3585 5.91617 16.509 5.87717C16.6594 5.83817 16.8007 5.76992 16.9247 5.67633C17.0488 5.58273 17.1532 5.46561 17.232 5.33166C17.3108 5.19771 17.3624 5.04956 17.3839 4.89565C17.4055 4.74175 17.3965 4.58511 17.3575 4.43468C17.3185 4.28424 17.2502 4.14297 17.1566 4.01891C17.063 3.89486 16.9459 3.79045 16.812 3.71166C12.192 1.01166 6.37198 2.57166 3.67198 7.19166C2.87755 8.55642 2.4312 10.0957 2.3723 11.6737C2.3134 13.2518 2.64376 14.8201 3.33424 16.2402C4.02471 17.6604 5.05409 18.8889 6.33155 19.8172C7.60902 20.7455 9.09531 21.3451 10.6593 21.5632C12.2233 21.7814 13.817 21.6112 15.2997 21.0678C16.7824 20.5244 18.1085 19.6245 19.1612 18.4474C20.2139 17.2703 20.9607 15.8523 21.3358 14.3183C21.7109 12.7844 21.7027 11.1817 21.312 9.65166ZM8.17198 10.9717C7.90146 10.7966 7.57248 10.7362 7.25742 10.8037C6.94236 10.8712 6.66702 11.0611 6.49198 11.3317C6.31694 11.6022 6.25653 11.9312 6.32404 12.2462C6.39155 12.5613 6.58146 12.8366 6.85198 13.0117L11.652 16.0117C11.8501 16.1339 12.0792 16.1964 12.312 16.1917C12.4976 16.1878 12.68 16.1427 12.846 16.0597C13.012 15.9767 13.1575 15.8578 13.272 15.7117L19.572 7.61166C19.992 7.07166 19.872 6.35166 19.332 5.93166C18.792 5.51166 18.072 5.63166 17.652 6.17166L12.012 13.3717L8.17198 10.9717Z" fill="white"/>
</svg>
