<svg width="24" height="24" viewBox="0 0 24 24" fill="none" xmlns="http://www.w3.org/2000/svg">
<g clip-path="url(#clip0_489_533)">
<path d="M9.28749 9.90954L11.5792 11.6772C11.6675 12.3897 12.2681 12.9436 13.0046 12.9436C13.8021 12.9436 14.4484 12.297 14.4484 11.4998C14.4484 11.4693 14.4414 11.4402 14.4392 11.41L17.7974 7.43713C18.0315 7.17434 18.0359 6.79565 17.807 6.59251C17.5785 6.38897 17.2034 6.43753 16.9694 6.70068L13.67 10.2257C13.4698 10.1208 13.246 10.056 13.0046 10.056C12.7466 10.056 12.5077 10.1293 12.2979 10.2482L10.1405 8.74584C9.86227 8.54086 9.44494 8.63578 9.20901 8.95751C8.97394 9.27834 9.00853 9.70492 9.28749 9.90954Z" fill="#1D2D47"/>
<path d="M20.7797 3.72515C18.7942 1.73705 16.0369 0.504119 13.0046 0.504883V3.17014C15.3093 3.17091 17.3831 4.10056 18.895 5.60985C20.4039 7.12134 21.3336 9.19556 21.3343 11.4998C21.3336 13.804 20.4039 15.8783 18.895 17.3898C17.3831 18.8994 15.3093 19.8291 13.0046 19.8295C10.7004 19.8291 8.62619 18.8994 7.11466 17.3898C5.60537 15.8783 4.67571 13.804 4.67499 11.4998C4.67535 10.7442 4.7784 10.0166 4.96537 9.32363L6.04556 9.99643C6.18873 10.0851 6.3628 10.1039 6.5056 10.0454C6.64949 9.98614 6.74369 9.85843 6.75474 9.70533L7.21995 3.6133C7.23244 3.43882 7.13676 3.26291 6.97414 3.16062C6.81 3.05981 6.60942 3.05056 6.45889 3.14L1.19638 6.24284C1.06354 6.32051 0.990635 6.46107 1.00097 6.61565C1.01125 6.77099 1.10438 6.91856 1.2479 7.00759L2.62691 7.86659C2.22837 9.00567 2.00937 10.229 2.00937 11.4998C2.00866 14.5316 3.2423 17.289 5.22969 19.2749C7.21555 21.2622 9.9725 22.4959 13.0047 22.4951C16.0365 22.4959 18.7942 21.2622 20.7798 19.2749C22.7671 17.289 24.0008 14.5316 24 11.4998C24.0007 8.46764 22.7671 5.71034 20.7797 3.72515Z" fill="#1D2D47"/>
</g>
<defs>
<clipPath id="clip0_489_533">
<rect width="23" height="23" fill="white" transform="translate(1)"/>
</clipPath>
</defs>
</svg>
