<svg width="24" height="25" viewBox="0 0 24 25" fill="none" xmlns="http://www.w3.org/2000/svg">
<g clip-path="url(#clip0_154_4450)">
<path fill-rule="evenodd" clip-rule="evenodd" d="M13.9999 3.97519C13.9999 5.01072 13.1044 5.85019 11.9999 5.85019C10.8953 5.85019 9.99988 5.01072 9.99988 3.97519C9.99988 2.93966 11.9999 0.850189 11.9999 0.850189C11.9999 0.850189 13.9999 2.93966 13.9999 3.97519ZM0.460826 14.4925L2.31939 15.6819L4.02549 23.0751C4.1302 23.5288 4.53422 23.8502 4.99988 23.8502H18.9999C19.4655 23.8502 19.8696 23.5288 19.9743 23.0751L21.6804 15.6819L23.5389 14.4925C24.0041 14.1948 24.1399 13.5763 23.8421 13.1111C23.5444 12.646 22.926 12.5102 22.4608 12.8079L21.9256 13.1505C21.5906 10.7732 19.5498 8.85019 16.9717 8.85019H12.9999V7.85019C12.9999 7.29791 12.5522 6.85019 11.9999 6.85019C11.4476 6.85019 10.9999 7.29791 10.9999 7.85019V8.85019H7.02808C4.44994 8.85019 2.40918 10.7732 2.0742 13.1505L1.53893 12.8079C1.07376 12.5102 0.455319 12.646 0.157608 13.1111C-0.140103 13.5763 -0.00434774 14.1948 0.460826 14.4925ZM5.79539 21.8502L4.65309 16.9002C6.02133 17.2691 7.50983 17.0454 8.72873 16.2328L10.3358 15.1615C11.3435 14.4897 12.6563 14.4897 13.664 15.1615L15.271 16.2328C16.4899 17.0454 17.9784 17.2691 19.3467 16.9002L18.2044 21.8502H5.79539ZM16.9717 10.8502C18.8713 10.8502 20.2847 12.5902 19.9135 14.4382L19.6617 14.5994C18.6588 15.2412 17.3712 15.2292 16.3804 14.5687L14.7734 13.4974C13.0939 12.3777 10.9059 12.3777 9.22638 13.4974L7.61933 14.5687C6.62859 15.2292 5.34099 15.2412 4.33807 14.5994L4.08623 14.4382C3.71509 12.5902 5.12847 10.8502 7.02808 10.8502H11.9999H16.9717ZM8.99993 18.8502C8.99993 18.2979 8.55221 17.8502 7.99993 17.8502C7.44764 17.8502 6.99993 18.2979 6.99993 18.8502V19.8502C6.99993 20.4025 7.44764 20.8502 7.99993 20.8502C8.55221 20.8502 8.99993 20.4025 8.99993 19.8502V18.8502ZM12.9999 18.8502C12.9999 18.2979 12.5522 17.8502 11.9999 17.8502C11.4476 17.8502 10.9999 18.2979 10.9999 18.8502V19.8502C10.9999 20.4025 11.4476 20.8502 11.9999 20.8502C12.5522 20.8502 12.9999 20.4025 12.9999 19.8502V18.8502ZM16.9999 18.8502C16.9999 18.2979 16.5522 17.8502 15.9999 17.8502C15.4476 17.8502 14.9999 18.2979 14.9999 18.8502V19.8502C14.9999 20.4025 15.4476 20.8502 15.9999 20.8502C16.5522 20.8502 16.9999 20.4025 16.9999 19.8502V18.8502Z" fill="#1D2D47"/>
</g>
<defs>
<clipPath id="clip0_154_4450">
<rect width="24" height="24" fill="white" transform="translate(0 0.850189)"/>
</clipPath>
</defs>
</svg>
