<svg width="24" height="24" viewBox="0 0 24 24" fill="none" xmlns="http://www.w3.org/2000/svg">
<g opacity="0.6" clip-path="url(#clip0_113_1076)">
<path d="M20.4065 5.0258C20.4072 4.46514 20.2519 3.91536 19.958 3.43792C19.6641 2.96047 19.2431 2.5742 18.7423 2.32228C18.2414 2.07036 17.6803 1.96273 17.1218 2.01142C16.5633 2.06011 16.0293 2.26321 15.5796 2.598C15.1298 2.93279 14.7821 3.38608 14.5753 3.90718C14.3684 4.42828 14.3106 4.99665 14.4082 5.54873C14.5059 6.10081 14.7552 6.61484 15.1283 7.03335C15.5014 7.45186 15.9835 7.75834 16.5208 7.91853V8.04805C16.5208 8.7351 16.2479 9.394 15.762 9.87982C15.2762 10.3656 14.6173 10.6386 13.9303 10.6386H10.4763C9.54358 10.6476 8.63734 10.9497 7.88576 11.5021V7.91853C8.58145 7.71111 9.17924 7.26021 9.56982 6.64828C9.9604 6.03635 10.1177 5.30428 10.0129 4.58593C9.90805 3.86759 9.54818 3.21096 8.99905 2.73613C8.44991 2.26131 7.74822 2 7.02226 2C6.29631 2 5.59461 2.26131 5.04548 2.73613C4.49635 3.21096 4.13647 3.86759 4.03167 4.58593C3.92686 5.30428 4.08413 6.03635 4.4747 6.64828C4.86528 7.26021 5.46307 7.71111 6.15876 7.91853V15.0856C5.46307 15.293 4.86528 15.7439 4.4747 16.3558C4.08413 16.9678 3.92686 17.6998 4.03167 18.4182C4.13647 19.1365 4.49635 19.7932 5.04548 20.268C5.59461 20.7428 6.29631 21.0041 7.02226 21.0041C7.74822 21.0041 8.44991 20.7428 8.99905 20.268C9.54818 19.7932 9.90805 19.1365 10.0129 18.4182C10.1177 17.6998 9.9604 16.9678 9.56982 16.3558C9.17924 15.7439 8.58145 15.293 7.88576 15.0856V14.9561C7.88576 14.269 8.15869 13.6101 8.6445 13.1243C9.13032 12.6385 9.78922 12.3656 10.4763 12.3656H13.9303C15.0753 12.3656 16.1735 11.9107 16.9832 11.101C17.7929 10.2913 18.2478 9.19313 18.2478 8.04805V7.91853C18.8709 7.73275 19.4175 7.35094 19.8064 6.82982C20.1953 6.30869 20.4058 5.67604 20.4065 5.0258ZM5.72701 5.0258C5.72701 4.68228 5.86347 4.35282 6.10638 4.10992C6.34929 3.86701 6.67874 3.73055 7.02226 3.73055C7.36578 3.73055 7.69524 3.86701 7.93814 4.10992C8.18105 4.35282 8.31751 4.68228 8.31751 5.0258C8.31751 5.36932 8.18105 5.69877 7.93814 5.94168C7.69524 6.18459 7.36578 6.32105 7.02226 6.32105C6.67874 6.32105 6.34929 6.18459 6.10638 5.94168C5.86347 5.69877 5.72701 5.36932 5.72701 5.0258ZM8.31751 17.9783C8.31751 18.2345 8.24155 18.4849 8.09922 18.6979C7.9569 18.9109 7.75461 19.0769 7.51793 19.175C7.28126 19.273 7.02083 19.2987 6.76957 19.2487C6.51832 19.1987 6.28752 19.0753 6.10638 18.8942C5.92524 18.7131 5.80188 18.4823 5.7519 18.231C5.70192 17.9798 5.72757 17.7193 5.82561 17.4826C5.92364 17.246 6.08966 17.0437 6.30266 16.9014C6.51566 16.759 6.76609 16.6831 7.02226 16.6831C7.19398 16.677 7.3651 16.7064 7.52498 16.7694C7.68486 16.8323 7.83006 16.9275 7.95156 17.049C8.07306 17.1705 8.16825 17.3157 8.23121 17.4756C8.29417 17.6355 8.32354 17.8066 8.31751 17.9783ZM17.3843 6.32105C17.2126 6.32708 17.0414 6.2977 16.8816 6.23475C16.7217 6.17179 16.5765 6.0766 16.455 5.9551C16.3335 5.8336 16.2383 5.68839 16.1753 5.52852C16.1124 5.36864 16.083 5.19752 16.089 5.0258C16.089 4.68228 16.2255 4.35282 16.4684 4.10992C16.7113 3.86701 17.0408 3.73055 17.3843 3.73055C17.7278 3.73055 18.0573 3.86701 18.3002 4.10992C18.5431 4.35282 18.6795 4.68228 18.6795 5.0258C18.6856 5.19752 18.6562 5.36864 18.5932 5.52852C18.5303 5.68839 18.4351 5.8336 18.3136 5.9551C18.1921 6.0766 18.0469 6.17179 17.887 6.23475C17.7271 6.2977 17.556 6.32708 17.3843 6.32105Z" fill="#5C5C5C"/>
</g>
<defs>
<clipPath id="clip0_113_1076">
<rect width="24" height="24" fill="white"/>
</clipPath>
</defs>
</svg>
