<svg width="17" height="19" viewBox="0 0 17 19" fill="none" xmlns="http://www.w3.org/2000/svg">
<path d="M16.4065 3.48379C16.4072 2.94099 16.2519 2.4087 15.958 1.94646C15.6641 1.48422 15.2431 1.11024 14.7423 0.86634C14.2414 0.62244 13.6803 0.518236 13.1218 0.565379C12.5633 0.612522 12.0293 0.809153 11.5796 1.13329C11.1298 1.45742 10.7821 1.89628 10.5753 2.40079C10.3684 2.9053 10.3106 3.45557 10.4082 3.99008C10.5059 4.52458 10.7552 5.02225 11.1283 5.42743C11.5014 5.83262 11.9835 6.12934 12.5208 6.28443V6.40983C12.5208 7.07501 12.2479 7.71294 11.762 8.18328C11.2762 8.65363 10.6173 8.91787 9.93027 8.91787H6.47627C5.54358 8.92662 4.63734 9.21908 3.88576 9.75388V6.28443C4.58146 6.08362 5.17924 5.64708 5.56982 5.05463C5.9604 4.46218 6.11766 3.75341 6.01286 3.05793C5.90805 2.36245 5.54818 1.72673 4.99905 1.26702C4.44991 0.807309 3.74822 0.554322 3.02226 0.554322C2.29631 0.554322 1.59461 0.807309 1.04548 1.26702C0.496346 1.72673 0.136474 2.36245 0.0316688 3.05793C-0.0731368 3.75341 0.084127 4.46218 0.474703 5.05463C0.865279 5.64708 1.46307 6.08362 2.15876 6.28443V13.2233C1.46307 13.4241 0.865279 13.8607 0.474703 14.4531C0.084127 15.0456 -0.0731368 15.7544 0.0316688 16.4498C0.136474 17.1453 0.496346 17.781 1.04548 18.2407C1.59461 18.7005 2.29631 18.9534 3.02226 18.9534C3.74822 18.9534 4.44991 18.7005 4.99905 18.2407C5.54818 17.781 5.90805 17.1453 6.01286 16.4498C6.11766 15.7544 5.9604 15.0456 5.56982 14.4531C5.17924 13.8607 4.58146 13.4241 3.88576 13.2233V13.0979C3.88576 12.4328 4.15869 11.7948 4.6445 11.3245C5.13032 10.8541 5.78922 10.5899 6.47627 10.5899H9.93027C11.0753 10.5899 12.1735 10.1495 12.9832 9.36558C13.7929 8.58167 14.2478 7.51845 14.2478 6.40983V6.28443C14.8709 6.10456 15.4175 5.73492 15.8064 5.23038C16.1953 4.72585 16.4058 4.11333 16.4065 3.48379ZM1.72701 3.48379C1.72701 3.15121 1.86347 2.83224 2.10638 2.59707C2.34929 2.36189 2.67874 2.22977 3.02226 2.22977C3.36578 2.22977 3.69524 2.36189 3.93814 2.59707C4.18105 2.83224 4.31751 3.15121 4.31751 3.48379C4.31751 3.81638 4.18105 4.13534 3.93814 4.37052C3.69524 4.60569 3.36578 4.73781 3.02226 4.73781C2.67874 4.73781 2.34929 4.60569 2.10638 4.37052C1.86347 4.13534 1.72701 3.81638 1.72701 3.48379ZM4.31751 16.024C4.31751 16.272 4.24155 16.5144 4.09923 16.7207C3.9569 16.9269 3.75461 17.0876 3.51793 17.1825C3.28126 17.2774 3.02083 17.3023 2.76957 17.2539C2.51832 17.2055 2.28752 17.0861 2.10638 16.9107C1.92524 16.7353 1.80188 16.5119 1.7519 16.2686C1.70192 16.0254 1.72757 15.7732 1.82561 15.5441C1.92364 15.3149 2.08966 15.1191 2.30266 14.9813C2.51566 14.8435 2.76609 14.77 3.02226 14.77C3.19398 14.7641 3.3651 14.7926 3.52498 14.8535C3.68486 14.9145 3.83006 15.0066 3.95156 15.1243C4.07306 15.2419 4.16825 15.3825 4.23121 15.5373C4.29417 15.692 4.32355 15.8577 4.31751 16.024ZM13.3843 4.73781C13.2126 4.74365 13.0414 4.71521 12.8816 4.65425C12.7217 4.5933 12.5765 4.50114 12.455 4.38351C12.3335 4.26588 12.2383 4.12529 12.1753 3.97051C12.1124 3.81572 12.083 3.65005 12.089 3.48379C12.089 3.15121 12.2255 2.83224 12.4684 2.59707C12.7113 2.36189 13.0408 2.22977 13.3843 2.22977C13.7278 2.22977 14.0573 2.36189 14.3002 2.59707C14.5431 2.83224 14.6795 3.15121 14.6795 3.48379C14.6856 3.65005 14.6562 3.81572 14.5932 3.97051C14.5303 4.12529 14.4351 4.26588 14.3136 4.38351C14.1921 4.50114 14.0469 4.5933 13.887 4.65425C13.7271 4.71521 13.556 4.74365 13.3843 4.73781Z" fill="#1D2D47"/>
</svg>
