<svg width="23" height="27" viewBox="0 0 23 27" fill="none" xmlns="http://www.w3.org/2000/svg">
<circle cx="11.5" cy="13.5" r="11" fill="white"/>
<path d="M13.3047 13.75L16.0391 16.5117C16.3945 16.8398 16.3945 17.3867 16.0391 17.7148L15.4375 18.3164C15.1094 18.6719 14.5625 18.6719 14.2344 18.3164L11.5 15.582L8.73828 18.3164C8.41016 18.6719 7.86328 18.6719 7.53516 18.3164L6.93359 17.7148C6.57812 17.3867 6.57812 16.8398 6.93359 16.5117L9.66797 13.75L6.93359 11.0156C6.57812 10.6875 6.57812 10.1406 6.93359 9.8125L7.53516 9.21094C7.86328 8.85547 8.41016 8.85547 8.73828 9.21094L11.5 11.9453L14.2344 9.21094C14.5625 8.85547 15.1094 8.85547 15.4375 9.21094L16.0391 9.8125C16.3945 10.1406 16.3945 10.6875 16.0391 11.0156L13.3047 13.75Z" fill="black"/>
</svg>
