<svg width="31" height="31" viewBox="0 0 31 31" fill="none" xmlns="http://www.w3.org/2000/svg">
<circle cx="15.5" cy="15.5" r="15.5" fill="#FF0707"/>
<path d="M22.3594 11.3984L18.2578 15.5L22.3594 19.6406C22.8672 20.1094 22.8672 20.9297 22.3594 21.3984C21.8906 21.9062 21.0703 21.9062 20.6016 21.3984L16.5 17.2969L12.3594 21.3984C11.8906 21.9062 11.0703 21.9062 10.6016 21.3984C10.0938 20.9297 10.0938 20.1094 10.6016 19.6406L14.7031 15.5L10.6016 11.3984C10.0938 10.9297 10.0938 10.1094 10.6016 9.64062C11.0703 9.13281 11.8906 9.13281 12.3594 9.64062L16.5 13.7422L20.6016 9.64062C21.0703 9.13281 21.8906 9.13281 22.3594 9.64062C22.8672 10.1094 22.8672 10.9297 22.3594 11.3984Z" fill="white"/>
</svg>
