<svg width="24" height="24" viewBox="0 0 24 24" fill="none" xmlns="http://www.w3.org/2000/svg">
<path d="M4.5 3.75C4.5 3.35218 4.65804 2.97064 4.93934 2.68934C5.22064 2.40804 5.60218 2.25 6 2.25H18C18.3978 2.25 18.7794 2.40804 19.0607 2.68934C19.342 2.97064 19.5 3.35218 19.5 3.75V20.25C19.5 20.6478 19.342 21.0294 19.0607 21.3107C18.7794 21.592 18.3978 21.75 18 21.75H6C5.60218 21.75 5.22064 21.592 4.93934 21.3107C4.65804 21.0294 4.5 20.6478 4.5 20.25V3.75Z" stroke="#1D2D47" stroke-width="1.42502" stroke-linejoin="round"/>
<path d="M7.5 6.75H10.5M7.5 12H16.5M7.5 15H16.5M7.5 18H10.5" stroke="#1D2D47" stroke-width="1.42502" stroke-linecap="round" stroke-linejoin="round"/>
<path d="M16.5 7.5C16.9142 7.5 17.25 7.16421 17.25 6.75C17.25 6.33579 16.9142 6 16.5 6C16.0858 6 15.75 6.33579 15.75 6.75C15.75 7.16421 16.0858 7.5 16.5 7.5Z" fill="#1D2D47"/>
</svg>
