<svg width="24" height="24" viewBox="0 0 24 24" fill="none" xmlns="http://www.w3.org/2000/svg">
<g opacity="0.6">
<path d="M15.3833 8.84036C15.6961 8.52754 16.2033 8.52754 16.5161 8.84036C16.8289 9.15319 16.8289 9.66038 16.5161 9.97321L11.9061 14.5824C11.2804 15.2079 10.2661 15.2079 9.64049 14.5823L8.21216 13.154C7.89933 12.8412 7.89933 12.334 8.21216 12.0212C8.52499 11.7083 9.03218 11.7083 9.34501 12.0212L10.2073 12.8835C10.5201 13.1963 11.0274 13.1963 11.3402 12.8835L15.3833 8.84036Z" fill="#63697B"/>
<path fill-rule="evenodd" clip-rule="evenodd" d="M11.9827 3C11.2031 3 10.6226 3.3145 10.1293 3.58179C10.0144 3.64403 9.90427 3.70371 9.79743 3.75627C9.1766 4.06166 8.23586 4.42441 6.32362 4.55362C5.06835 4.63843 3.95156 5.66029 4.00162 7.03395C4.08395 9.29346 4.34607 11.6052 4.87322 13.5532C5.38904 15.4594 6.20577 17.1989 7.53312 18.0838C8.80248 18.93 9.84654 19.6635 10.5451 20.1642C11.4027 20.7791 12.5626 20.7791 13.4203 20.1642C14.1188 19.6635 15.1628 18.93 16.4323 18.0838C17.7596 17.1989 18.5763 15.4594 19.0921 13.5532C19.6193 11.6053 19.8814 9.29352 19.9637 7.03395C20.0138 5.66029 18.897 4.63843 17.6417 4.55362C15.7295 4.42441 14.7887 4.06166 14.1679 3.75627C14.0611 3.70372 13.9509 3.64405 13.8361 3.58182C13.3428 3.31452 12.7623 3 11.9827 3ZM6.43163 6.15206C8.5404 6.00957 9.68615 5.59643 10.5046 5.19384C10.7384 5.07883 10.9192 4.98299 11.0677 4.90431C11.4738 4.689 11.6378 4.60209 11.9827 4.60209C12.3275 4.60209 12.4915 4.689 12.8977 4.90431C13.0462 4.98299 13.227 5.07883 13.4608 5.19384C14.2792 5.59643 15.4249 6.00957 17.5338 6.15206C18.044 6.18654 18.3771 6.58084 18.3627 6.97562C18.2829 9.167 18.0295 11.3468 17.5457 13.1348C17.0505 14.9647 16.3606 16.206 15.5436 16.7507C14.2565 17.6088 13.1972 18.3529 12.4869 18.8621C12.1872 19.077 11.7782 19.077 11.4784 18.8621C10.7681 18.3529 9.70893 17.6088 8.4218 16.7507C7.60471 16.206 6.91488 14.9647 6.41968 13.1347C5.93583 11.3467 5.6825 9.16695 5.60264 6.97562C5.58826 6.58084 5.92131 6.18654 6.43163 6.15206Z" fill="#1D2D47"/>
</g>
</svg>
