<svg width="70" height="71" viewBox="0 0 70 71" fill="none" xmlns="http://www.w3.org/2000/svg">
<circle cx="35" cy="35.5" r="35" fill="white"/>
<path d="M42 19.5C43.625 19.5 45 20.875 45 22.5V48.5C45 50.1875 43.625 51.5 42 51.5H28C26.3125 51.5 25 50.1875 25 48.5V22.5C25 20.875 26.3125 19.5 28 19.5H42ZM35 49.5C36.0625 49.5 37 48.625 37 47.5C37 46.4375 36.0625 45.5 35 45.5C33.875 45.5 33 46.4375 33 47.5C33 48.625 33.875 49.5 35 49.5ZM42 42.75V23.25C42 22.875 41.625 22.5 41.25 22.5H28.75C28.3125 22.5 28 22.875 28 23.25V42.75C28 43.1875 28.3125 43.5 28.75 43.5H41.25C41.625 43.5 42 43.1875 42 42.75Z" fill="#16ACDA"/>
</svg>
