<svg width="70" height="71" viewBox="0 0 70 71" fill="none" xmlns="http://www.w3.org/2000/svg">
<circle opacity="0.1" cx="35" cy="35.5" r="35" fill="black"/>
<path d="M42 20.5C43.625 20.5 45 21.875 45 23.5V49.5C45 51.1875 43.625 52.5 42 52.5H28C26.3125 52.5 25 51.1875 25 49.5V23.5C25 21.875 26.3125 20.5 28 20.5H42ZM35 50.5C36.0625 50.5 37 49.625 37 48.5C37 47.4375 36.0625 46.5 35 46.5C33.875 46.5 33 47.4375 33 48.5C33 49.625 33.875 50.5 35 50.5ZM42 43.75V24.25C42 23.875 41.625 23.5 41.25 23.5H28.75C28.3125 23.5 28 23.875 28 24.25V43.75C28 44.1875 28.3125 44.5 28.75 44.5H41.25C41.625 44.5 42 44.1875 42 43.75Z" fill="#16ACDA"/>
</svg>
