<svg width="70" height="71" viewBox="0 0 70 71" fill="none" xmlns="http://www.w3.org/2000/svg">
<circle cx="35" cy="35.5" r="35" fill="white"/>
<path d="M31 33.5V40.5C31 41.625 30.0625 42.5 29 42.5H28C25.75 42.5 24 40.75 24 38.5V35.5C24 33.3125 25.75 31.5 28 31.5H29C30.0625 31.5 31 32.4375 31 33.5ZM42 42.5H41C39.875 42.5 39 41.625 39 40.5V33.5C39 32.4375 39.875 31.5 41 31.5H42C44.1875 31.5 46 33.3125 46 35.5V38.5C46 40.75 44.1875 42.5 42 42.5ZM35 20.5C43.875 20.5 50.6875 27.9375 51 36.5V46.875C51 50 48.4375 52.5 45.3125 52.5H34C32.3125 52.5 31 51.1875 31 49.5C31 47.875 32.3125 46.5 34 46.5H36C37.625 46.5 39 47.875 39 49.5H45.3125C46.8125 49.5 48 48.375 48 46.875C48 46.875 47.9375 36.6875 47.9375 36.5H48C48 29.375 42.125 23.5 35 23.5C27.8125 23.5 22 29.375 22 36.5V37.5C22 38.0625 21.5 38.5 21 38.5H20C19.4375 38.5 19 38.0625 19 37.5V36.5C19.25 27.9375 26.0625 20.5 35 20.5Z" fill="#16ACDA"/>
</svg>
