<svg width="24" height="24" viewBox="0 0 24 24" fill="none" xmlns="http://www.w3.org/2000/svg">
<path d="M20.4855 3.9513C18.2192 1.75707 15.2056 0.548706 12 0.548706C8.79438 0.548706 5.78082 1.75707 3.51448 3.9513C1.24815 6.14549 0 9.06312 0 12.1667C0 15.2702 1.24815 18.1879 3.51448 20.3821C5.78082 22.5763 8.79438 23.7847 12 23.7847C15.2056 23.7847 18.2191 22.5762 20.4855 20.3821C22.7519 18.1879 24 15.2702 24 12.1667C24 9.06312 22.7519 6.14554 20.4855 3.9513ZM19.7928 19.7114C17.7115 21.7265 14.9439 22.8363 12 22.8363C9.05603 22.8363 6.28849 21.7265 4.20715 19.7114C2.12581 17.6964 0.979592 15.0169 0.979592 12.1667C0.979592 9.31649 2.12581 6.637 4.20715 4.62192C6.28849 2.60684 9.05603 1.49711 12 1.49711C14.9439 1.49711 17.7115 2.60684 19.7928 4.62192C21.8742 6.637 23.0204 9.31649 23.0204 12.1667C23.0204 15.0169 21.8742 17.6964 19.7928 19.7114Z" fill="#1D2D47"/>
<path d="M12 2.44551C10.5802 2.44551 9.20806 2.72633 7.92181 3.28016C6.67866 3.81544 5.57686 4.57791 4.64728 5.54614C2.91389 7.34863 1.95923 9.69987 1.95923 12.1667C1.95923 14.7009 2.95973 17.0967 4.77521 18.9114C5.70014 19.8422 6.78749 20.5743 8.00708 21.0874C9.26958 21.6185 10.613 21.8878 12 21.8878C14.6829 21.8878 17.2047 20.8769 19.1007 19.0413C20.9967 17.2056 22.0409 14.7641 22.0409 12.1667C22.0409 6.80643 17.5366 2.44551 12 2.44551ZM18.7449 18.0262L16.9994 16.3363L16.3067 17.007L18.0522 18.6969C16.5086 20.041 14.5643 20.8204 12.4898 20.9266V18.5684H11.5102V20.9267C9.37351 20.8178 7.38489 19.9977 5.82328 18.5805L7.44847 17.0069L6.75575 16.3363L5.14383 17.8971C3.82506 16.4267 3.05931 14.5904 2.95224 12.6409H5.3878V11.6925H2.95239C3.05662 9.80443 3.78171 8.01323 5.02878 6.56221L6.7557 8.23416L7.44842 7.56349L5.69461 5.86551C6.4607 5.14501 7.34179 4.56776 8.31987 4.14667C9.33154 3.71106 10.4026 3.46282 11.5102 3.40644V5.76493H12.4898V3.40686C14.6812 3.52043 16.668 4.39159 18.176 5.75374L16.3067 7.56354L16.9994 8.2342L18.856 6.43678C20.1295 7.86323 20.9372 9.68972 21.0479 11.6925H18.6123V12.6409H21.048C20.9383 14.6493 20.1333 16.5317 18.7449 18.0262Z" fill="#1D2D47"/>
<path d="M16.898 10.744H15.6332C15.625 10.7244 15.6168 10.705 15.6084 10.6857L16.5047 9.81801C16.5965 9.7291 16.6481 9.60846 16.6481 9.4827C16.6481 9.35694 16.5965 9.23635 16.5047 9.14739L15.1185 7.80535C15.0266 7.71644 14.9021 7.66645 14.7722 7.66645C14.6423 7.66645 14.5177 7.71644 14.4258 7.80535L13.5296 8.67305C13.5097 8.66494 13.4896 8.65697 13.4693 8.6491V7.42466C13.4693 7.1628 13.25 6.95045 12.9796 6.95045H11.0204C10.7499 6.95045 10.5306 7.1628 10.5306 7.42466V8.6491C10.5103 8.65692 10.4902 8.66494 10.4703 8.67305L9.5741 7.80535C9.48226 7.71644 9.35766 7.66645 9.22777 7.66645C9.09787 7.66645 8.97327 7.71644 8.88143 7.80535L7.49531 9.14739C7.30404 9.33261 7.30404 9.63288 7.49531 9.81806L8.39154 10.6857C8.38316 10.7051 8.37493 10.7245 8.3668 10.7441H7.1021C6.83159 10.7441 6.6123 10.9564 6.6123 11.2183V13.1151C6.6123 13.377 6.83159 13.5893 7.1021 13.5893H8.3669C8.37498 13.6089 8.38326 13.6283 8.39164 13.6477L7.49541 14.5153C7.40342 14.6044 7.35185 14.7252 7.35195 14.8511C7.35204 14.977 7.40386 15.0976 7.49599 15.1866L8.88212 16.5238C9.07314 16.7081 9.38225 16.7082 9.57341 16.5239L10.4704 15.6592C10.4905 15.6675 10.5106 15.6757 10.5307 15.6836V16.9087C10.5307 17.1706 10.75 17.3829 11.0205 17.3829H12.9797C13.2501 17.3829 13.4694 17.1706 13.4695 16.9087V15.6842C13.4898 15.6763 13.5099 15.6683 13.5298 15.6602L14.426 16.5279C14.5179 16.6168 14.6424 16.6668 14.7723 16.6668C14.7725 16.6668 14.7726 16.6668 14.7727 16.6668C14.9028 16.6667 15.0274 16.6166 15.1193 16.5274L16.5005 15.1853C16.6909 15.0003 16.691 14.7011 16.5006 14.516L15.6082 13.6483C15.6168 13.6288 15.6251 13.6091 15.6333 13.5893H16.898C17.1685 13.5893 17.3878 13.3769 17.3878 13.115V11.2182C17.3878 10.9564 17.1685 10.744 16.898 10.744ZM16.4082 12.641H15.2865C15.071 12.641 14.8807 12.7775 14.818 12.9771C14.7553 13.1767 14.6778 13.3587 14.5876 13.518C14.4833 13.7024 14.5168 13.9314 14.6701 14.0804L15.4622 14.8506L14.7717 15.5215L13.9774 14.7525C13.8235 14.6035 13.5866 14.5707 13.3957 14.6719C13.2312 14.7592 13.0432 14.8342 12.8371 14.8949C12.6308 14.9557 12.4899 15.1399 12.4899 15.3486V16.4345H11.5103V15.3486C11.5103 15.1388 11.368 14.954 11.1603 14.8941C10.977 14.8413 10.7926 14.7673 10.5964 14.6677C10.407 14.5716 10.175 14.6057 10.0235 14.7518L9.22801 15.5186L8.53505 14.8501L9.3293 14.0811C9.4831 13.9321 9.51704 13.7028 9.41257 13.518C9.32235 13.3586 9.24486 13.1766 9.18212 12.977C9.11932 12.7774 8.92909 12.6409 8.71353 12.6409H7.5919V11.6925H8.71348C8.92904 11.6925 9.11928 11.556 9.18207 11.3564C9.24481 11.1568 9.32235 10.9748 9.41252 10.8154C9.51699 10.6306 9.4831 10.4013 9.32925 10.2523L8.53436 9.4827L9.22781 8.81132L10.0227 9.58091C10.1766 9.72985 10.4136 9.76267 10.6044 9.66147C10.7689 9.57417 10.9569 9.49915 11.163 9.43846C11.3693 9.37771 11.5103 9.19348 11.5103 8.98479V7.89886H12.4899V8.98479C12.4899 9.19348 12.6308 9.37771 12.8371 9.43846C13.0432 9.49915 13.2312 9.57417 13.3957 9.66147C13.5866 9.76267 13.8235 9.7299 13.9774 9.58091L14.7723 8.81132L15.4658 9.48279L14.6709 10.2524C14.517 10.4014 14.4831 10.6308 14.5877 10.8155C14.6778 10.9748 14.7553 11.1568 14.818 11.3564C14.8807 11.5561 15.071 11.6926 15.2866 11.6926H16.4082V12.641Z" fill="#1D2D47"/>
<path d="M11.9999 10.507C11.0547 10.507 10.2856 11.2515 10.2856 12.1667C10.2856 13.0818 11.0547 13.8264 11.9999 13.8264C12.9452 13.8264 13.7142 13.0818 13.7142 12.1667C13.7142 11.2515 12.9452 10.507 11.9999 10.507ZM11.9999 12.878C11.5948 12.878 11.2652 12.5589 11.2652 12.1667C11.2652 11.7745 11.5948 11.4554 11.9999 11.4554C12.405 11.4554 12.7346 11.7745 12.7346 12.1667C12.7346 12.5589 12.405 12.878 11.9999 12.878Z" fill="#1D2D47"/>
</svg>
