<svg width="93" height="94" viewBox="0 0 93 94" fill="none" xmlns="http://www.w3.org/2000/svg">
<path d="M93 47C93 72.6875 72 93.5 46.5 93.5C20.8125 93.5 0 72.6875 0 47C0 21.5 20.8125 0.5 46.5 0.5C72 0.5 93 21.5 93 47ZM41.0625 71.75L75.5625 37.25C76.6875 36.125 76.6875 34.0625 75.5625 32.9375L71.25 28.8125C70.125 27.5 68.25 27.5 67.125 28.8125L39 56.9375L25.6875 43.8125C24.5625 42.5 22.6875 42.5 21.5625 43.8125L17.25 47.9375C16.125 49.0625 16.125 51.125 17.25 52.25L36.75 71.75C37.875 72.875 39.9375 72.875 41.0625 71.75Z" fill="#44D22D"/>
</svg>
