<svg width="24" height="24" viewBox="0 0 24 24" fill="none" xmlns="http://www.w3.org/2000/svg">
<g clip-path="url(#clip0_128_716)">
<path d="M5.00332 20.8C5.00332 19.4388 3.86119 18.2972 2.5017 18.2972C1.14221 18.2972 0 19.4388 0 20.8C0 22.1613 1.14221 23.3028 2.5017 23.3028C3.86119 23.3028 5.00332 22.1613 5.00332 20.8Z" fill="white"/>
<path d="M5.00332 12.0001C5.00332 10.6388 3.86119 9.49731 2.5017 9.49731C1.14221 9.49731 0 10.6388 0 12.0001C9.89801e-07 13.3614 1.14222 14.5028 2.5017 14.5028C3.86119 14.5028 5.00332 13.3614 5.00332 12.0001Z" fill="white"/>
<path d="M5.00332 3.19997C5.00332 1.8387 3.86119 0.697266 2.5017 0.697266C1.14221 0.697266 0 1.8387 0 3.19997C0 4.56124 1.14221 5.70276 2.5017 5.70276C3.86119 5.70276 5.00332 4.56124 5.00332 3.19997Z" fill="white"/>
<path d="M8.61104 1.30579C8.3732 1.30579 8.1377 1.35479 7.91796 1.44998C7.69823 1.54518 7.49858 1.68471 7.33041 1.8606C7.16223 2.0365 7.02883 2.24532 6.93783 2.47514C6.84682 2.70495 6.79998 2.95127 6.79999 3.20002C6.79999 3.70238 6.9908 4.18416 7.33044 4.53938C7.67007 4.8946 8.13072 5.09416 8.61104 5.09416H22.1889C22.4267 5.09417 22.6622 5.04519 22.8819 4.95C23.1017 4.85482 23.3013 4.7153 23.4695 4.53941C23.6377 4.36352 23.7711 4.15471 23.8621 3.92489C23.9531 3.69508 24 3.44877 24 3.20002C24 2.95126 23.9532 2.70494 23.8621 2.47512C23.7711 2.24529 23.6377 2.03647 23.4695 1.86057C23.3014 1.68467 23.1017 1.54515 22.882 1.44996C22.6622 1.35477 22.4267 1.30578 22.1889 1.30579H8.61104Z" fill="white"/>
<path d="M8.61104 10.1058C8.13072 10.1058 7.67007 10.3054 7.33044 10.6606C6.9908 11.0158 6.79999 11.4976 6.79999 12C6.79999 12.5023 6.9908 12.9841 7.33044 13.3393C7.67007 13.6946 8.13072 13.8941 8.61104 13.8941H22.1889C22.4267 13.8941 22.6622 13.8451 22.8819 13.75C23.1017 13.6548 23.3013 13.5153 23.4695 13.3394C23.6377 13.1635 23.7711 12.9547 23.8621 12.7249C23.9531 12.495 24 12.2487 24 12C24 11.7512 23.9531 11.5049 23.8621 11.2751C23.7711 11.0453 23.6377 10.8365 23.4695 10.6606C23.3013 10.4847 23.1017 10.3452 22.8819 10.25C22.6622 10.1548 22.4267 10.1058 22.1889 10.1058H8.61104Z" fill="white"/>
<path d="M8.61104 18.9059C8.13072 18.9059 7.67007 19.1054 7.33044 19.4607C6.9908 19.8159 6.79999 20.2977 6.79999 20.8C6.79999 21.3024 6.9908 21.7842 7.33044 22.1394C7.67007 22.4946 8.13072 22.6942 8.61104 22.6942H22.1889C22.4267 22.6942 22.6622 22.6452 22.8819 22.55C23.1017 22.4548 23.3013 22.3153 23.4695 22.1394C23.6377 21.9635 23.7711 21.7547 23.8621 21.5249C23.9531 21.2951 24 21.0488 24 20.8C24 20.5513 23.9531 20.305 23.8621 20.0752C23.7711 19.8453 23.6377 19.6365 23.4695 19.4606C23.3013 19.2847 23.1017 19.1452 22.8819 19.05C22.6622 18.9549 22.4267 18.9059 22.1889 18.9059H8.61104Z" fill="white"/>
</g>
<defs>
<clipPath id="clip0_128_716">
<rect width="24" height="24" fill="white"/>
</clipPath>
</defs>
</svg>
