<svg width="31" height="32" viewBox="0 0 31 32" fill="none" xmlns="http://www.w3.org/2000/svg">
<g filter="url(#filter0_d_74_316)">
<circle cx="15.5" cy="14" r="13.5" fill="white"/>
<circle cx="15.5" cy="14" r="13" stroke="#D3D3D3"/>
</g>
<path d="M23 11.1875V19.0625C23 19.8008 22.3984 20.375 21.6875 20.375H10.3125C9.57422 20.375 9 19.8008 9 19.0625V11.1875C9 10.4766 9.57422 9.875 10.3125 9.875H12.7188L13.0469 9C13.2383 8.48047 13.7305 8.125 14.2773 8.125H17.6953C18.2422 8.125 18.7344 8.48047 18.9258 9L19.2812 9.875H21.6875C22.3984 9.875 23 10.4766 23 11.1875ZM19.2812 15.125C19.2812 13.3203 17.8047 11.8438 16 11.8438C14.168 11.8438 12.7188 13.3203 12.7188 15.125C12.7188 16.957 14.168 18.4062 16 18.4062C17.8047 18.4062 19.2812 16.957 19.2812 15.125ZM18.4062 15.125C18.4062 16.4648 17.3125 17.5312 16 17.5312C14.6602 17.5312 13.5938 16.4648 13.5938 15.125C13.5938 13.8125 14.6602 12.7188 16 12.7188C17.3125 12.7188 18.4062 13.8125 18.4062 15.125Z" fill="black"/>
<defs>
<filter id="filter0_d_74_316" x="0" y="0.5" width="31" height="31" filterUnits="userSpaceOnUse" color-interpolation-filters="sRGB">
<feFlood flood-opacity="0" result="BackgroundImageFix"/>
<feColorMatrix in="SourceAlpha" type="matrix" values="0 0 0 0 0 0 0 0 0 0 0 0 0 0 0 0 0 0 127 0" result="hardAlpha"/>
<feOffset dy="2"/>
<feGaussianBlur stdDeviation="1"/>
<feComposite in2="hardAlpha" operator="out"/>
<feColorMatrix type="matrix" values="0 0 0 0 0 0 0 0 0 0 0 0 0 0 0 0 0 0 0.25 0"/>
<feBlend mode="normal" in2="BackgroundImageFix" result="effect1_dropShadow_74_316"/>
<feBlend mode="normal" in="SourceGraphic" in2="effect1_dropShadow_74_316" result="shape"/>
</filter>
</defs>
</svg>
