<svg width="28" height="22" viewBox="0 0 28 22" fill="none" xmlns="http://www.w3.org/2000/svg">
<path d="M27.4531 7.44531C27.5625 7.33594 27.6719 7.31771 27.7812 7.39062C27.9271 7.46354 28 7.57292 28 7.71875V18.875C28 19.6042 27.7448 20.224 27.2344 20.7344C26.724 21.2448 26.1042 21.5 25.375 21.5H2.625C1.89583 21.5 1.27604 21.2448 0.765625 20.7344C0.255208 20.224 0 19.6042 0 18.875V7.71875C0 7.57292 0.0546875 7.48177 0.164062 7.44531C0.309896 7.3724 0.4375 7.3724 0.546875 7.44531C1.75 8.35677 4.55729 10.4167 8.96875 13.625C9.04167 13.6979 9.27865 13.8984 9.67969 14.2266C10.1172 14.5547 10.4635 14.8099 10.7188 14.9922C10.974 15.138 11.3021 15.3385 11.7031 15.5938C12.1042 15.8125 12.487 15.9766 12.8516 16.0859C13.2526 16.1953 13.6354 16.25 14 16.25C14.3646 16.25 14.7292 16.1953 15.0938 16.0859C15.4948 15.9766 15.8958 15.8125 16.2969 15.5938C16.7344 15.3385 17.0807 15.1198 17.3359 14.9375C17.5911 14.7552 17.9193 14.5182 18.3203 14.2266C18.7214 13.8984 18.9583 13.6979 19.0312 13.625C23.3333 10.526 26.1406 8.46615 27.4531 7.44531ZM14 14.5C13.7083 14.5 13.3438 14.4089 12.9062 14.2266C12.5052 14.0078 12.1771 13.8255 11.9219 13.6797C11.6667 13.4974 11.2839 13.224 10.7734 12.8594C10.2995 12.4583 10.0443 12.2578 10.0078 12.2578C5.5599 9.01302 2.38802 6.66146 0.492188 5.20312C0.164062 4.94792 0 4.60156 0 4.16406V3.125C0 2.39583 0.255208 1.77604 0.765625 1.26562C1.27604 0.755208 1.89583 0.5 2.625 0.5H25.375C26.1042 0.5 26.724 0.755208 27.2344 1.26562C27.7448 1.77604 28 2.39583 28 3.125V4.16406C28 4.60156 27.8359 4.94792 27.5078 5.20312C25.7214 6.58854 22.5495 8.9401 17.9922 12.2578C17.9557 12.2578 17.6823 12.4583 17.1719 12.8594C16.6979 13.224 16.3333 13.4974 16.0781 13.6797C15.8229 13.8255 15.4766 14.0078 15.0391 14.2266C14.638 14.4089 14.2917 14.5 14 14.5Z" fill="#16ACDA"/>
</svg>
