<svg width="24" height="24" viewBox="0 0 24 24" fill="none" xmlns="http://www.w3.org/2000/svg">
<path d="M10.7216 12.5055H12.8152C14.7152 12.5055 16.2293 10.9576 16.2293 9.09147V9.08805V9.08459V9.08112V9.07762V9.07409V9.07054V9.06696V9.06336V9.05974V9.05609V9.05241V9.04872V9.045V9.04125V9.03748V9.03369V9.02988V9.02604V9.02218V9.01829V9.01438V9.01045V9.0065V9.00252V8.99852V8.9945V8.99045V8.98638V8.98229V8.97818V8.97405V8.96989V8.96571V8.96151V8.95729V8.95305V8.94878V8.94449V8.94019V8.93586V8.93151V8.92714V8.92274V8.91833V8.9139V8.90944V8.90497V8.90047V8.89596V8.89142V8.88686V8.88229V8.87769V8.87308V8.86844V8.86378V8.85911V8.85441V8.8497V8.84497V8.84022V8.83544V8.83065V8.82584V8.82102V8.81617V8.8113V8.80642V8.80152V8.7966V8.79166V8.7867V8.78173V8.77674V8.77173V8.7667V8.76165V8.75659V8.75151V8.74641V8.7413V8.73616V8.73102V8.72585V8.72067V8.71547V8.71025V8.70502V8.69977V8.6945V8.68922V8.68393V8.67861V8.67328V8.66794V8.66258V8.6572V8.65181V8.6464V8.64098V8.63554V8.63009V8.62462V8.61914V8.61364V8.60813V8.6026V8.59706V8.5915V8.58593V8.58035V8.57475V8.56913V8.56351V8.55787V8.55221V8.54654V8.54086V8.53517V8.52946V8.52374V8.518V8.51226V8.5065V8.50072V8.49494V8.48914V8.48333V8.4775V8.47167V8.46582V8.45996V8.45408V8.4482V8.4423V8.4364V8.43048V8.42454V8.4186V8.41265V8.40668V8.40071V8.39472V8.38872V8.38271V8.37669V8.37066V8.36462V8.35856V8.3525V8.34643V8.34035V8.33425V8.32815V8.32204V8.31592V8.30978V8.30364V8.29749V8.29133V8.28516V8.27898V8.27279V8.2666V8.26039V8.25418V8.24795V8.24172V8.23548V8.22923V8.22297V8.21671V8.21043V8.20415V8.19786V8.19157V8.18526V8.17895V8.17263V8.1663V8.15997V8.15363V8.14728V8.14092V8.13456V8.12819V8.12181V8.11543V8.10904V8.10264V8.09624V8.08983V8.08342V8.077V8.07057V8.06414V8.0577V8.05125V8.0448V8.03835V8.03189V8.02542V8.01895V8.01248V8.006V7.99951V7.99302V7.98653V7.98003V7.97353V7.96702V7.96051V7.95399V7.94747V7.94094V7.93442V7.92788V7.92135V7.91481V7.90827V7.90172V7.89517V7.88862V7.88206V7.87551V7.86895V7.86238V7.85581V7.84925V7.84267V7.8361V7.82952V7.82295V7.81636V7.80978V7.8032V7.79661V7.79002V7.78343V7.77684V7.77025V7.76366V7.75706V7.75047V7.74387V7.73727V7.73068V7.72408V7.71748V7.71088V7.70428V7.69768V7.69107V7.68447V7.67787V7.67127V7.66467V7.65807V7.65147V7.64487V7.63827V7.63167V7.62508V7.61848V7.61188V7.60529V7.5987V7.5921V7.58551V7.57893V7.57234V7.56575V7.55917V7.55259V7.54601V7.53943V7.53285V7.52628V7.51971V7.51314V7.50657V7.50001V7.49345V7.48689V7.48034V7.47378V7.46724V7.46069V7.45415V7.44761V7.44108V7.43454V7.42802V7.42149V7.41497V7.40846V7.40195V7.39544V7.38894V7.38244V7.37594V7.36946V7.36297V7.35649V7.35002V7.34355V7.33708V7.33062V7.32417V7.31772V7.31128V7.30484V7.29841V7.29199V7.28557V7.27915V7.27274V7.26634V7.25995V7.25356V7.24718V7.2408V7.23443V7.22807V7.22172V7.21537V7.20903V7.2027V7.19637V7.19005V7.18374V7.17744V7.17114V7.16485V7.15857V7.1523V7.14604V7.13978V7.13353V7.1273V7.12107V7.11484V7.10863V7.10243V7.09623V7.09004V7.08387V7.0777V7.07154V7.06539V7.05925V7.05312V7.047V7.04089V7.03479V7.0287V7.02262V7.01655V7.01049V7.00444V6.9984V6.99237V6.98635V6.98034V6.97435V6.96836V6.96239V6.95642V6.95047V6.94453V6.9386V6.93268V6.92678V6.92088V6.915V6.90913V6.90327V6.89743V6.89159V6.88577V6.87996V6.87417V6.86838V6.86261V6.85685V6.85111V6.84538V6.83966V6.83395V6.82826V6.82258V6.81691V6.81126V6.80562V6.8V6.79439V6.78879V6.78321V6.77764V6.77209V6.76655V6.76103V6.75552V6.75002V6.74454V6.73908V6.73363V6.72819V6.72277V6.71737V6.71198V6.70661V6.70125V6.69591V6.69058V6.68527V6.67997V6.6747V6.66943V6.66419V6.65896V6.65375V6.64855V6.64337V6.63821V6.63306V6.62793V6.62282V6.61773V6.61265V6.60759V6.60255V6.59752V6.59252V6.58753V6.58256V6.5776V6.57267V6.56775V6.56285V6.55797V6.55311V6.54827V6.54344V6.53864V6.53385V6.52908V6.52433V6.5196V6.51489V6.5102V6.50553V6.50088V6.49625V6.49164V6.48704V6.48247V6.47792V6.47339V6.46887V6.46438V6.45991V6.45546V6.45103V6.44662V6.44223V6.43787V6.43352V6.4292V6.42489V6.42061V6.41635V6.41211V6.40789V6.4037V6.39952V6.39537V6.39124V6.38713V6.38305V6.37898V6.37494V6.37092V6.36693V6.36295V6.359V6.35508V6.35117V6.34729V6.34343V6.3396V6.33579V6.332V6.32824V6.3245V6.32078V6.31709V6.31342V6.30978V6.30616V6.30256V6.29899V6.29544V6.29192V6.28842V6.28495V6.2815V6.27808V6.27468V6.27131V6.26796V6.26464C16.2293 4.38172 14.6978 2.85 12.8152 2.85H12.8003H12.7855H12.7707H12.7561H12.7415H12.727H12.7126H12.6982H12.6839H12.6698H12.6556H12.6416H12.6277H12.6138H12.6H12.5863H12.5726H12.5591H12.5456H12.5322H12.5188H12.5056H12.4924H12.4793H12.4662H12.4533H12.4404H12.4276H12.4149H12.4022H12.3896H12.3771H12.3647H12.3523H12.34H12.3278H12.3157H12.3036H12.2916H12.2797H12.2679H12.2561H12.2444H12.2327H12.2212H12.2097H12.1982H12.1869H12.1756H12.1644H12.1532H12.1422H12.1312H12.1202H12.1094H12.0986H12.0878H12.0772H12.0666H12.0561H12.0456H12.0352H12.0249H12.0146H12.0044H11.9943H11.9842H11.9743H11.9643H11.9545H11.9447H11.9349H11.9253H11.9157H11.9061H11.8967H11.8872H11.8779H11.8686H11.8594H11.8502H11.8411H11.8321H11.8231H11.8142H11.8054H11.7966H11.7879H11.7792H11.7706H11.7621H11.7536H11.7452H11.7368H11.7285H11.7203H11.7121H11.704H11.6959H11.6879H11.68H11.6721H11.6643H11.6565H11.6488H11.6411H11.6335H11.626H11.6185H11.6111H11.6037H11.5964H11.5891H11.5819H11.5747H11.5677H11.5606H11.5536H11.5467H11.5398H11.533H11.5262H11.5195H11.5128H11.5062H11.4997H11.4932H11.4867H11.4803H11.474H11.4677H11.4614H11.4552H11.4491H11.443H11.4369H11.4309H11.425H11.4191H11.4133H11.4075H11.4017H11.396H11.3904H11.3848H11.3792H11.3737H11.3683H11.3629H11.3575H11.3522H11.3469H11.3417H11.3365H11.3314H11.3263H11.3213H11.3163H11.3114H11.3065H11.3016H11.2968H11.292H11.2873H11.2826H11.278H11.2734H11.2689H11.2644H11.2599H11.2555H11.2511H11.2468H11.2425H11.2382H11.234H11.2298H11.2257H11.2216H11.2176H11.2136H11.2096H11.2057H11.2018H11.198H11.1942H11.1904H11.1867H11.183H11.1793H11.1757H11.1721H11.1686H11.1651H11.1616H11.1582H11.1548H11.1514H11.1481H11.1448H11.1416H11.1384H11.1352H11.1321H11.129H11.1259H11.1229H11.1199H11.1169H11.114H11.1111H11.1082H11.1053H11.1025H11.0998H11.097H11.0943H11.0917H11.089H11.0864H11.0838H11.0813H11.0788H11.0763H11.0738H11.0714H11.069H11.0666H11.0643H11.062H11.0597H11.0575H11.0552H11.0531H11.0509H11.0487H11.0466H11.0446H11.0425H11.0405H11.0385H11.0365H11.0346H11.0326H11.0307H11.0289H11.027H11.0252H11.0234H11.0216H11.0199H11.0182H11.0165H11.0148H11.0131H11.0115H11.0099H11.0083H11.0068H11.0052H11.0037H11.0022H11.0008H10.9993H10.9979H10.9965H10.9951H10.9937H10.9924H10.991H10.9897H10.9885H10.9872H10.9859H10.9847H10.9835H10.9823H10.9811H10.98H10.9789H10.9777H10.9766H10.9756H10.9745H10.9734H10.9724H10.9714H10.9704H10.9694H10.9684H10.9675H10.9665H10.9656H10.9647H10.9638H10.9629H10.9621H10.9612H10.9604H10.9596H10.9587H10.9579H10.9572H10.9564H10.9556H10.9549H10.9541H10.9534H10.9527H10.952H10.9513H10.9506H10.9499H10.9493H10.9486H10.948H10.9474H10.9467H10.9461H10.9455H10.9449H10.9443H10.9437H10.9432H10.9426H10.942H10.9415H10.941H10.9404H10.9399H10.9394H10.9388H10.9383H10.9378H10.9373H10.9368H10.9363H10.9359H10.9354H10.9349H10.9344H10.934H10.9335H10.933H10.9326H10.9321H10.9317H10.9312H10.9308H10.9303H10.9299H10.9294H10.929H10.9286H10.9281H10.9277H10.9272H10.9268H10.9264H10.9259H10.9255H10.925H10.9246H10.9242H10.9237H10.9233H10.9228H10.9224H10.9219H10.9215H10.921H10.9206H10.9201H10.9196H10.9192H10.9187H10.9182H10.9177H10.9173H10.9168H10.9163H10.9158H10.9153H10.9148H10.9142H10.9137H10.9132H10.9126H10.9121H10.9116H10.911H10.9104H10.9099H10.9093H10.9087H10.9081H10.9075H10.9069H10.9062H10.9056H10.905H10.9043H10.9037H10.903H10.9023H10.9016H10.9009H10.9002H10.8995H10.8987H10.898H10.8972H10.8964H10.8957H10.8949H10.894H10.8932H10.8924H10.8915H10.8907H10.8898H10.8889H10.888H10.8871H10.8861H10.8852H10.8842H10.8832H10.8822H10.8812H10.8802H10.8791H10.878H10.877H10.8759H10.8747H10.8736H10.8725H10.8713H10.8701H10.8689H10.8677H10.8664H10.8651H10.8639H10.8626H10.8612H10.8599H10.8585H10.8571H10.8557H10.8543H10.8529H10.8514H10.8499H10.8484H10.8468H10.8453H10.8437H10.8421H10.8405H10.8388H10.8371H10.8354H10.8337H10.832H10.8302H10.8284H10.8266H10.8247H10.8229H10.821H10.8191H10.8171H10.8151H10.8131H10.8111H10.8091H10.807H10.8049H10.8027H10.8006H10.7984H10.7961H10.7939H10.7916H10.7893H10.787H10.7846H10.7822H10.7798H10.7773H10.7748H10.7723H10.7698H10.7672H10.7646H10.762H10.7593H10.7566H10.7538H10.7511H10.7483H10.7454H10.7426H10.7397H10.7367H10.7338H10.7308H10.7277H10.7247H10.7216C8.83888 2.85 7.30752 4.38172 7.30752 6.26464V6.26811V6.2716V6.27512V6.27865V6.28221V6.28579V6.28939V6.29301V6.29666V6.30032V6.30401V6.30772V6.31145V6.31521V6.31898V6.32278V6.32659V6.33043V6.33429V6.33817V6.34207V6.34599V6.34993V6.35389V6.35788V6.36188V6.3659V6.36995V6.37401V6.37809V6.3822V6.38632V6.39046V6.39463V6.39881V6.40301V6.40723V6.41147V6.41573V6.42001V6.42431V6.42863V6.43296V6.43732V6.44169V6.44608V6.4505V6.45493V6.45937V6.46384V6.46832V6.47283V6.47735V6.48189V6.48644V6.49102V6.49561V6.50022V6.50485V6.50949V6.51416V6.51884V6.52353V6.52825V6.53298V6.53773V6.54249V6.54728V6.55208V6.55689V6.56172V6.56657V6.57144V6.57632V6.58122V6.58613V6.59106V6.596V6.60097V6.60594V6.61094V6.61595V6.62097V6.62601V6.63106V6.63614V6.64122V6.64632V6.65144V6.65657V6.66171V6.66687V6.67205V6.67724V6.68244V6.68766V6.6929V6.69814V6.70341V6.70868V6.71397V6.71928V6.72459V6.72992V6.73527V6.74063V6.746V6.75139V6.75679V6.7622V6.76762V6.77306V6.77851V6.78398V6.78946V6.79495V6.80045V6.80596V6.81149V6.81703V6.82259V6.82815V6.83373V6.83932V6.84492V6.85053V6.85616V6.86179V6.86744V6.8731V6.87877V6.88446V6.89015V6.89586V6.90157V6.9073V6.91304V6.91879V6.92455V6.93032V6.9361V6.9419V6.9477V6.95351V6.95934V6.96517V6.97101V6.97687V6.98273V6.98861V6.99449V7.00038V7.00629V7.0122V7.01812V7.02405V7.02999V7.03594V7.0419V7.04787V7.05385V7.05984V7.06583V7.07183V7.07785V7.08387V7.0899V7.09593V7.10198V7.10803V7.1141V7.12017V7.12624V7.13233V7.13842V7.14453V7.15064V7.15675V7.16288V7.16901V7.17515V7.18129V7.18745V7.19361V7.19977V7.20595V7.21213V7.21831V7.22451V7.23071V7.23692V7.24313V7.24935V7.25557V7.26181V7.26804V7.27429V7.28054V7.28679V7.29305V7.29932V7.30559V7.31187V7.31815V7.32444V7.33073V7.33703V7.34333V7.34964V7.35596V7.36227V7.3686V7.37492V7.38125V7.38759V7.39393V7.40027V7.40662V7.41298V7.41933V7.42569V7.43206V7.43843V7.4448V7.45117V7.45755V7.46393V7.47032V7.47671V7.4831V7.48949V7.49589V7.50229V7.5087V7.5151V7.52151V7.52792V7.53434V7.54075V7.54717V7.55359V7.56001V7.56644V7.57286V7.57929V7.58572V7.59216V7.59859V7.60502V7.61146V7.6179V7.62434V7.63078V7.63722V7.64366V7.65011V7.65655V7.663V7.66944V7.67589V7.68234V7.68878V7.69523V7.70168V7.70813V7.71458V7.72102V7.72747V7.73392V7.74037V7.74682V7.75326V7.75971V7.76616V7.7726V7.77905V7.78549V7.79193V7.79837V7.80481V7.81125V7.81769V7.82413V7.83056V7.837V7.84343V7.84986V7.85629V7.86272V7.86914V7.87557V7.88199V7.88841V7.89482V7.90124V7.90765V7.91406V7.92046V7.92687V7.93327V7.93967V7.94606V7.95246V7.95884V7.96523V7.97161V7.97799V7.98437V7.99074V7.99711V8.00347V8.00984V8.01619V8.02255V8.0289V8.03524V8.04158V8.04792V8.05425V8.06058V8.0669V8.07322V8.07953V8.08584V8.09215V8.09845V8.10474V8.11103V8.11731V8.12359V8.12987V8.13613V8.1424V8.14865V8.1549V8.16115V8.16739V8.17362V8.17985V8.18607V8.19228V8.19849V8.20469V8.21089V8.21707V8.22326V8.22943V8.2356V8.24176V8.24792V8.25406V8.2602V8.26634V8.27246V8.27858V8.28469V8.29079V8.29689V8.30298V8.30906V8.31513V8.32119V8.32725V8.3333V8.33933V8.34537V8.35139V8.3574V8.36341V8.3694V8.37539V8.38137V8.38734V8.3933V8.39925V8.4052V8.41113V8.41705V8.42297V8.42887V8.43477V8.44065V8.44653V8.4524V8.45825V8.4641V8.46993V8.47576V8.48158V8.48738V8.49317V8.49896V8.50473V8.51049V8.51625V8.52199V8.52772V8.53344V8.53914V8.54484V8.55053V8.5562V8.56186V8.56751V8.57315V8.57878V8.58439V8.59V8.59559V8.60117V8.60674V8.61229V8.61783V8.62336V8.62888V8.63439V8.63988V8.64536V8.65083V8.65628V8.66172V8.66715V8.67257V8.67797V8.68336V8.68873V8.69409V8.69944V8.70477V8.71009V8.7154V8.72069V8.72597V8.73124V8.73649V8.74172V8.74694V8.75215V8.75734V8.76252V8.76769V8.77283V8.77797V8.78309V8.78819V8.79328V8.79835V8.80341V8.80845V8.81348V8.81849V8.82349V8.82847V8.83343V8.83838V8.84332V8.84823V8.85313V8.85802V8.86289V8.86774V8.87257V8.87739V8.88219V8.88698V8.89175V8.8965V8.90123V8.90595V8.91065V8.91534V8.92V8.92465V8.92928V8.93389V8.93849V8.94307V8.94763V8.95217V8.9567V8.9612V8.96569V8.97016V8.97461V8.97904V8.98346V8.98786V8.99223V8.99659V9.00093V9.00525V9.00955V9.01384V9.0181V9.02235V9.02657V9.03078V9.03496V9.03913V9.04328V9.0474V9.05151V9.0556V9.05967V9.06371V9.06774V9.07175V9.07573V9.0797V9.08364V9.08757V9.09147C7.30752 10.9553 8.81842 12.5055 10.7216 12.5055ZM12.8152 4.06721C13.8984 4.06721 14.9374 4.86496 15.0082 6.23449H14.106C12.7897 6.23449 11.6754 5.32268 11.3971 4.06721H12.8152ZM10.0933 4.15909C9.93321 5.01798 9.33402 5.73468 8.53481 6.05447C8.62006 5.16905 9.23819 4.41399 10.0933 4.15909ZM8.52473 9.09147V7.33428C9.47392 7.09162 10.2778 6.48548 10.7829 5.67843C11.5015 6.75504 12.7271 7.4517 14.106 7.4517H15.0121V9.09147C15.0121 10.2952 14.0343 11.2883 12.8152 11.2883H10.7216C9.49868 11.2883 8.52473 10.2924 8.52473 9.09147Z" fill="#1D2D47" stroke="#1D2D47" stroke-width="0.3"/>
<path d="M18.6867 19.5745C18.6867 16.526 16.6369 13.8436 13.6999 13.0481L13.7 13.0481L13.6916 13.0458C12.5211 12.7288 11.0148 12.7289 9.84453 13.046L9.84446 13.0458L9.83963 13.0474C6.90124 13.8432 4.85 16.5264 4.85 19.5745C4.85 19.9106 5.12249 20.1831 5.4586 20.1831H5.46034H5.46235H5.46462H5.46716H5.46997H5.47304H5.47638H5.47997H5.48383H5.48795H5.49233H5.49697H5.50187H5.50702H5.51243H5.51809H5.524H5.53017H5.53659H5.54325H5.55017H5.55734H5.56475H5.5724H5.58031H5.58845H5.59684H5.60547H5.61434H5.62345H5.6328H5.64239H5.65221H5.66226H5.67256H5.68308H5.69384H5.70483H5.71604H5.72749H5.73916H5.75107H5.76319H5.77554H5.78812H5.80092H5.81394H5.82718H5.84064H5.85432H5.86821H5.88232H5.89665H5.91119H5.92594H5.94091H5.95609H5.97147H5.98707H6.00287H6.01888H6.0351H6.05152H6.06814H6.08497H6.102H6.11923H6.13666H6.15428H6.17211H6.19013H6.20834H6.22675H6.24535H6.26415H6.28313H6.30231H6.32167H6.34122H6.36096H6.38088H6.40099H6.42129H6.44176H6.46242H6.48325H6.50427H6.52546H6.54683H6.56838H6.59011H6.612H6.63407H6.65631H6.67873H6.70131H6.72406H6.74698H6.77006H6.79332H6.81673H6.84031H6.86405H6.88796H6.91202H6.93624H6.96062H6.98516H7.00986H7.03471H7.05971H7.08487H7.11018H7.13563H7.16124H7.187H7.21291H7.23896H7.26516H7.2915H7.31798H7.34461H7.37138H7.39829H7.42534H7.45253H7.47985H7.50731H7.53491H7.56264H7.5905H7.6185H7.64662H7.67488H7.70326H7.73177H7.76041H7.78917H7.81806H7.84707H7.8762H7.90546H7.93483H7.96433H7.99394H8.02367H8.05352H8.08348H8.11355H8.14374H8.17404H8.20445H8.23497H8.2656H8.29633H8.32718H8.35812H8.38918H8.42033H8.45159H8.48295H8.51441H8.54597H8.57763H8.60938H8.64123H8.67317H8.70521H8.73735H8.76957H8.80188H8.83429H8.86678H8.89936H8.93203H8.96478H8.99761H9.03053H9.06354H9.09662H9.12978H9.16303H9.19635H9.22974H9.26322H9.29677H9.33039H9.36408H9.39785H9.43169H9.4656H9.49957H9.53361H9.56772H9.6019H9.63614H9.67044H9.70481H9.73923H9.77372H9.80826H9.84287H9.87753H9.91224H9.94702H9.98184H10.0167H10.0516H10.0866H10.1217H10.1567H10.1919H10.227H10.2623H10.2975H10.3328H10.3682H10.4036H10.439H10.4744H10.51H10.5455H10.5811H10.6167H10.6523H10.688H10.7237H10.7595H10.7952H10.831H10.8669H10.9027H10.9386H10.9745H11.0104H11.0464H11.0823H11.1183H11.1543H11.1904H11.2264H11.2625H11.2985H11.3346H11.3707H11.4068H11.443H11.4791H11.5152H11.5514H11.5875H11.6237H11.6599H11.696H11.7322H11.7684H11.8045H11.8407H11.8769H11.913H11.9492H11.9854H12.0215H12.0576H12.0938H12.1299H12.166H12.2021H12.2382H12.2743H12.3103H12.3464H12.3824H12.4184H12.4544H12.4904H12.5263H12.5622H12.5981H12.634H12.6699H12.7057H12.7415H12.7773H12.813H12.8487H12.8844H12.9201H12.9557H12.9912H13.0268H13.0623H13.0978H13.1332H13.1686H13.2039H13.2392H13.2745H13.3097H13.3449H13.38H13.4151H13.4501H13.4851H13.52H13.5549H13.5897H13.6245H13.6592H13.6939H13.7285H13.763H13.7975H13.8319H13.8663H13.9006H13.9348H13.969H14.0031H14.0372H14.0711H14.1051H14.1389H14.1727H14.2064H14.24H14.2735H14.307H14.3404H14.3737H14.407H14.4401H14.4732H14.5062H14.5391H14.572H14.6047H14.6374H14.67H14.7025H14.7349H14.7672H14.7994H14.8315H14.8636H14.8955H14.9274H14.9591H14.9908H15.0223H15.0538H15.0852H15.1164H15.1476H15.1786H15.2096H15.2404H15.2711H15.3018H15.3323H15.3627H15.393H15.4232H15.4533H15.4832H15.5131H15.5428H15.5724H15.6019H15.6313H15.6605H15.6897H15.7187H15.7476H15.7763H15.805H15.8335H15.8619H15.8901H15.9182H15.9462H15.9741H16.0018H16.0294H16.0569H16.0842H16.1114H16.1385H16.1654H16.1921H16.2188H16.2452H16.2716H16.2978H16.3238H16.3497H16.3755H16.4011H16.4266H16.4519H16.477H16.502H16.5269H16.5516H16.5761H16.6005H16.6247H16.6488H16.6727H16.6964H16.72H16.7434H16.7667H16.7898H16.8127H16.8354H16.858H16.8804H16.9027H16.9247H16.9466H16.9684H16.9899H17.0113H17.0325H17.0535H17.0743H17.095H17.1155H17.1357H17.1559H17.1758H17.1955H17.2151H17.2344H17.2536H17.2726H17.2914H17.31H17.3284H17.3466H17.3646H17.3825H17.4001H17.4175H17.4347H17.4518H17.4686H17.4852H17.5016H17.5179H17.5339H17.5497H17.5653H17.5807H17.5958H17.6108H17.6256H17.6401H17.6544H17.6685H17.6824H17.6961H17.7096H17.7228H17.7358H17.7486H17.7612H17.7736H17.7857H17.7976H17.8093H17.8207H17.8319H17.8429H17.8537H17.8642H17.8745H17.8845H17.8944H17.9039H17.9133H17.9224H17.9313H17.9399H17.9483H17.9564H17.9643H17.972H17.9794H17.9866H17.9935H18.0002H18.0066H18.0127H18.0187H18.0243H18.0297H18.0349H18.0398H18.0444H18.0488H18.0529H18.0568H18.0604H18.0637H18.0668H18.0696H18.0721H18.0744H18.0764H18.0781C18.4143 20.1831 18.6867 19.9106 18.6867 19.5745ZM9.41795 18.0162L9.56231 18.057L9.41795 18.0162C9.35109 18.253 9.43336 18.5068 9.62659 18.6593L10.015 18.9659H6.10067C6.33543 16.8398 7.78591 15.018 9.82108 14.3251L10.3138 14.8439L9.41795 18.0162ZM11.2346 14.0459C11.5869 14.0197 11.9499 14.0197 12.3022 14.0459L12.1018 14.2569L12.1017 14.2569C11.9539 14.4126 11.899 14.6347 11.9574 14.8414C11.9574 14.8414 11.9574 14.8415 11.9574 14.8415L12.8369 17.9558L11.7684 18.7992L10.6998 17.9558L11.5794 14.8414L11.435 14.8007L11.5794 14.8414C11.6377 14.6348 11.5828 14.4127 11.435 14.2569L11.435 14.2569L11.2346 14.0459ZM13.7157 14.3249C15.7509 15.0169 17.2015 16.8386 17.436 18.9659H13.5218L13.9101 18.6593C13.9101 18.6593 13.9101 18.6593 13.9101 18.6593C14.1033 18.5068 14.1856 18.253 14.1187 18.0162L13.2229 14.8439L13.7157 14.3249Z" fill="#1D2D47" stroke="#1D2D47" stroke-width="0.3"/>
</svg>
