<svg width="32" height="32" viewBox="0 0 32 32" fill="none" xmlns="http://www.w3.org/2000/svg">
<path d="M13.0533 6.28938C14.7905 6.28938 16.1985 4.88138 16.1985 3.14525C16.1985 1.40744 14.7905 0 13.0533 0C11.3166 0 9.90857 1.40744 9.90857 3.14525C9.90857 4.88138 11.3166 6.28938 13.0533 6.28938Z" fill="#1D2D47"/>
<path d="M29.1033 18.3446C29.0461 17.9637 28.6908 17.7016 28.3088 17.7583L26.6981 18.0003L26.5599 17.0843C26.5028 16.7117 26.1562 16.4563 25.7843 16.5113L25.5772 16.5425C25.5633 16.4325 25.5394 16.3231 25.4934 16.2165L23.9982 12.7603C23.6317 11.9408 22.6234 10.8865 21.8406 10.4474C21.8406 10.4474 17.2285 7.61801 16.8515 7.48033C16.6333 7.40151 16.4006 7.36601 16.1641 7.35876L13.8583 11.9698L11.0618 8.2187C10.8869 8.33301 10.7348 8.45408 10.6292 8.58289L6.48525 13.5154L3.07406 14.773C2.42781 15.0111 2.08075 15.7129 2.28506 16.3708L2.30118 16.4214C2.50156 17.0682 3.35775 17.3875 4.01731 17.2353L6.60793 16.6568C7.30137 16.4969 7.95987 16.211 8.5495 15.8134L10.7547 13.923L11.3061 18.57C11.3561 18.9509 11.3716 19.0403 11.1806 19.3739L9.58712 21.944C8.97256 22.9361 8.5245 24.0227 8.26075 25.1603L7.08425 30.2277C6.94156 31.0422 7.48456 31.8189 8.2985 31.9661L8.35512 31.9761C9.12575 32.1143 9.87362 31.6396 10.0746 30.8834L11.9157 25.4385L14.7312 21.4626L17.0697 25.3758C17.2152 25.665 17.4067 25.9276 17.6383 26.1536L21.9877 30.406C22.5363 30.9423 23.4046 30.9662 23.9815 30.461L24.0509 30.4005C24.3463 30.1417 24.5256 29.7753 24.5495 29.3833C24.5728 28.9914 24.4384 28.606 24.1759 28.3151L20.5031 24.2243L18.5082 18.3768L18.1119 12.364L20.7502 13.4876L23.1421 17.0566C22.9972 17.2037 22.9122 17.4063 22.9449 17.6268L23.0832 18.5445L21.4719 18.7865C21.0899 18.8432 20.8279 19.199 20.8857 19.581L21.5469 23.9833C21.6047 24.3641 21.96 24.6273 22.3414 24.5695L29.1789 23.5424C29.5609 23.4841 29.8229 23.1282 29.7657 22.7473L29.1033 18.3446ZM13.6862 14.0573C13.6862 13.8096 13.8866 13.6092 14.1337 13.6092C14.3814 13.6092 14.5818 13.8096 14.5818 14.0573C14.5818 14.3049 14.3814 14.5053 14.1337 14.5053C13.8866 14.5053 13.6862 14.3049 13.6862 14.0573ZM14.3309 17.1686C14.0838 17.1686 13.8828 16.9676 13.8828 16.7201C13.8828 16.473 14.0838 16.2726 14.3309 16.2726C14.5785 16.2726 14.7789 16.473 14.7789 16.7201C14.7789 16.9676 14.5784 17.1686 14.3309 17.1686ZM23.6117 17.6483C23.956 17.9204 24.4312 17.9926 24.8493 17.8027L24.8859 17.7871C25.1486 17.6683 25.3434 17.464 25.4628 17.2241L25.882 17.1609L25.9108 17.182L26.0485 18.0981L23.7322 18.4468L23.6117 17.6483Z" fill="#1D2D47"/>
<path d="M12.7962 9.49675L13.7006 10.7099L14.3363 9.43844L14.0843 7.44019C13.5236 7.49131 13.0172 7.57675 12.5681 7.68837L12.7962 9.49675Z" fill="#1D2D47"/>
</svg>
