<svg width="24" height="24" viewBox="0 0 24 24" fill="none" xmlns="http://www.w3.org/2000/svg">
<g clip-path="url(#clip0_154_4463)">
<path d="M12.5539 8.15589C11.9753 7.59369 11.2709 7.14948 10.4877 6.86112C10.118 7.25894 9.86622 7.74327 9.76108 8.26844C9.73248 8.41003 9.71533 8.55199 9.70745 8.69326C9.77181 8.71468 9.83476 8.73756 9.89631 8.76352C10.5786 9.04357 11.1643 9.51238 11.5748 10.103C11.9045 10.5752 12.1233 11.1219 12.197 11.7143C12.2163 11.8621 12.2256 12.0127 12.2256 12.1664C12.2256 12.6795 12.1191 13.1628 11.9267 13.6039C11.6878 14.1478 11.3181 14.629 10.8539 15.0032C10.7552 15.0839 10.6515 15.1587 10.5443 15.229C9.93423 15.6278 9.20617 15.8591 8.41159 15.8591C7.88308 15.8591 7.38461 15.7555 6.92833 15.5696C6.24461 15.2895 5.66102 14.8204 5.24908 14.2301C4.83855 13.6405 4.59967 12.934 4.59967 12.1664C4.59967 11.6537 4.70481 11.1711 4.89789 10.729C5.15753 10.1356 5.57589 9.61766 6.10155 9.23096C6.09152 9.09694 6.0872 8.96297 6.0872 8.829C6.0872 8.14077 6.19876 7.46911 6.4112 6.83416C5.59801 7.12048 4.86855 7.57571 4.27066 8.15598C3.21077 9.17904 2.55278 10.603 2.55494 12.1664C2.55283 13.7303 3.21081 15.1542 4.27066 16.1776C5.15317 17.0334 6.32322 17.616 7.62484 17.7853V19.5531H4.91073V21.0757H7.62484V23.6292H9.19825V21.0756H11.9145V19.553H9.19825V17.7853C10.5006 17.616 11.6721 17.0333 12.5539 16.1776C12.8485 15.8923 13.111 15.5772 13.3391 15.2362C13.9292 14.3517 14.2718 13.2947 14.2703 12.1664C14.2703 11.9016 14.251 11.6395 14.2152 11.384C14.0357 10.1307 13.4335 9.0055 12.5539 8.15589Z" fill="#1D2D47"/>
<path d="M16.3601 0.393265V1.9159H18.7603L16.28 4.31719C15.2358 3.54655 13.9807 3.15703 12.732 3.15812C11.2366 3.15703 9.73112 3.71269 8.58967 4.8199C7.77292 5.60856 7.24801 6.57684 7.0134 7.59369C7.01054 7.60612 7.00913 7.6186 7.00553 7.62899C6.99624 7.66848 6.98837 7.70828 6.98054 7.74604C6.9662 7.81942 6.95335 7.89249 6.94121 7.96551C6.93334 8.00948 6.92692 8.05555 6.9219 8.09948C6.91262 8.16633 6.90474 8.23485 6.89903 8.30338C6.89546 8.34286 6.89115 8.38271 6.88904 8.42215C6.88763 8.44189 6.88618 8.46195 6.88478 8.4831C6.88117 8.5229 6.87976 8.56374 6.87831 8.60318C6.87545 8.67797 6.87329 8.75412 6.87329 8.82891C6.87329 8.88673 6.87545 8.94455 6.8769 9.00373C6.87976 9.06191 6.88337 9.11936 6.88618 9.17895L6.89546 9.30702C6.89546 9.32817 6.89903 9.34959 6.90043 9.37246C7.02634 10.6375 7.59057 11.8741 8.58967 12.8397C9.19473 13.4259 9.90273 13.8579 10.6558 14.1338C10.8839 13.8904 11.0699 13.6087 11.2037 13.3054C11.3417 12.9872 11.4204 12.6507 11.4361 12.3035C10.9247 12.1255 10.447 11.8392 10.0351 11.4404C9.66245 11.0779 9.38354 10.6635 9.19829 10.2189C9.06601 9.90489 8.98088 9.57605 8.94367 9.24435C8.91938 9.04802 8.91367 8.85002 8.92295 8.65374C8.92581 8.60491 8.92937 8.55784 8.93223 8.51042C8.93579 8.47547 8.93865 8.44048 8.94507 8.40518C8.94507 8.39165 8.94793 8.37817 8.94939 8.36433C8.95295 8.33075 8.95726 8.2958 8.96368 8.26254C8.97156 8.21684 8.97943 8.16941 8.98871 8.12407C9.03015 7.91668 9.08954 7.71277 9.1682 7.51472C9.18254 7.47837 9.19679 7.44342 9.21399 7.40671C9.22974 7.36863 9.24685 7.33056 9.26546 7.29248C9.28121 7.25441 9.29982 7.21628 9.32054 7.17962C9.3377 7.1419 9.35842 7.10519 9.38064 7.06884C9.48432 6.88259 9.60667 6.70328 9.74682 6.53255C9.77542 6.4976 9.80546 6.46266 9.83481 6.42903C9.89987 6.35737 9.96568 6.28744 10.0365 6.21891C10.1244 6.13373 10.2138 6.05444 10.3068 5.98138C10.6115 5.73626 10.9454 5.54411 11.2959 5.40737C11.9831 5.13771 12.7398 5.06914 13.4614 5.20483C14.1838 5.34053 14.8674 5.675 15.4296 6.21886C15.8037 6.58133 16.0804 6.99572 16.2657 7.43993C16.546 8.10533 16.6169 8.83649 16.4767 9.53552C16.3351 10.2341 15.9889 10.8965 15.4296 11.4404C15.3066 11.5591 15.1779 11.6689 15.0442 11.7661C15.052 11.9001 15.0563 12.0341 15.0563 12.1663C15.0585 12.8487 14.9461 13.5213 14.7309 14.1612C15.514 13.887 16.2485 13.4455 16.8743 12.8397C18.0165 11.7356 18.5922 10.2781 18.5907 8.82887C18.5921 7.61955 18.1895 6.40648 17.3921 5.39381L19.8723 2.99251V5.31729H21.445V0.393265H16.3601Z" fill="#1D2D47"/>
</g>
<defs>
<clipPath id="clip0_154_4463">
<rect width="24" height="23.236" fill="white" transform="translate(0 0.393265)"/>
</clipPath>
</defs>
</svg>
