<svg width="23" height="19" viewBox="0 0 23 19" fill="none" xmlns="http://www.w3.org/2000/svg">
<path d="M11.1875 5.32031C11.2656 5.24219 11.3828 5.20312 11.5 5.20312C11.5781 5.20312 11.6953 5.24219 11.7734 5.32031L19 11.2188V17.625C19 17.9766 18.6875 18.25 18.375 18.25H13.9609C13.6484 18.25 13.3359 17.9766 13.3359 17.625V13.875C13.3359 13.5625 13.0625 13.25 12.7109 13.25H10.2109C9.89844 13.25 9.58594 13.5625 9.58594 13.875V17.625C9.58594 17.9766 9.3125 18.25 9 18.25H4.625C4.27344 18.25 4 17.9766 4 17.625V11.2578L11.1875 5.32031ZM22.5547 9.34375C22.6719 9.42188 22.75 9.57812 22.75 9.69531C22.75 9.8125 22.7109 9.92969 22.6328 10.0078L21.6172 11.2188C21.5391 11.3359 21.4219 11.375 21.2656 11.375C21.1484 11.375 21.0312 11.3359 20.9531 11.2578L11.7734 3.71875C11.6953 3.64062 11.5781 3.60156 11.5 3.60156C11.3828 3.60156 11.2656 3.64062 11.1875 3.71875L2.00781 11.2578C1.92969 11.3359 1.8125 11.375 1.69531 11.375C1.53906 11.375 1.42188 11.3359 1.34375 11.2188L0.328125 10.0078C0.289062 9.92969 0.210938 9.8125 0.210938 9.69531C0.210938 9.57812 0.289062 9.42188 0.40625 9.34375L10.2891 1.17969C10.6016 0.945312 11.0312 0.789062 11.5 0.789062C11.9297 0.789062 12.3594 0.945312 12.6719 1.17969L16.1875 4.07031V1.25781C16.1875 0.984375 16.3828 0.789062 16.6562 0.789062H18.8438C19.0781 0.789062 19.3125 0.984375 19.3125 1.25781V6.64844L22.5547 9.34375Z" fill="white"/>
</svg>
