<svg width="24" height="19" viewBox="0 0 24 19" fill="none" xmlns="http://www.w3.org/2000/svg">
<path d="M23.0079 9.1875C23.1251 9.30469 23.2423 9.46094 23.2423 9.65625C23.2423 9.8125 23.1642 9.96875 23.0861 10.0469L22.6954 10.5547C22.5782 10.6719 22.3829 10.7891 22.1876 10.7891C22.0314 10.7891 21.9142 10.7109 21.797 10.6328L20.7423 9.73438V17.0391C20.7032 17.7031 20.1564 18.25 19.4923 18.25H14.4923C13.7892 18.25 13.2423 17.7031 13.2423 17V12.9375H10.7423V17C10.7032 17.7031 10.1564 18.25 9.49231 18.25H4.49231C3.78918 18.25 3.24231 17.7031 3.24231 17V9.73438L2.14856 10.6328C2.03137 10.7109 1.91418 10.75 1.75793 10.75C1.56262 10.75 1.36731 10.6719 1.28918 10.5547L0.859497 10.0469C0.781372 9.96875 0.74231 9.8125 0.74231 9.65625C0.74231 9.46094 0.820435 9.30469 0.937622 9.1875L10.5861 1.25781C10.9376 0.945312 11.4454 0.789062 11.9923 0.789062C12.5001 0.789062 13.0079 0.945312 13.3595 1.25781L18.8673 5.78906V3.5625C18.8673 3.40625 18.9845 3.28906 19.1798 3.25H20.4298C20.5861 3.25 20.7423 3.40625 20.7423 3.5625V7.3125L23.0079 9.1875ZM18.8282 16.375L18.8673 8.21094L11.9923 2.54688L5.11731 8.21094V16.375H8.86731V12.3125C8.86731 11.6484 9.41418 11.1016 10.1173 11.0625H13.8673C14.5314 11.1016 15.0782 11.6484 15.1173 12.3125V16.375H18.8282Z" fill="white"/>
</svg>
