<svg width="28" height="28" viewBox="0 0 28 28" fill="none" xmlns="http://www.w3.org/2000/svg">
<path fill-rule="evenodd" clip-rule="evenodd" d="M8.21748 0.790848C9.67241 0.723869 10.1363 0.708984 13.8425 0.708984C17.5486 0.708984 18.0125 0.725109 19.4662 0.790848C20.9199 0.856586 21.9122 1.08853 22.7804 1.42467C23.6896 1.76824 24.5144 2.30532 25.1966 2.99991C25.8912 3.68086 26.4271 4.50446 26.7694 5.41488C27.1068 6.28312 27.3375 7.2754 27.4045 8.72661C27.4714 10.184 27.4863 10.6479 27.4863 14.3528C27.4863 18.059 27.4702 18.5229 27.4045 19.9778C27.3387 21.429 27.1068 22.4213 26.7694 23.2896C26.4271 24.2001 25.8903 25.0251 25.1966 25.707C24.5144 26.4016 23.6896 26.9374 22.7804 27.2798C21.9122 27.6172 20.9199 27.8479 19.4687 27.9148C18.0125 27.9818 17.5486 27.9967 13.8425 27.9967C10.1363 27.9967 9.67241 27.9806 8.21748 27.9148C6.76627 27.8491 5.77399 27.6172 4.90574 27.2798C3.99522 26.9374 3.17027 26.4007 2.4883 25.707C1.79417 25.0257 1.25702 24.2011 0.914291 23.2908C0.578156 22.4226 0.34745 21.4303 0.280472 19.9791C0.213493 18.5217 0.198608 18.0578 0.198608 14.3528C0.198608 10.6467 0.214733 10.1828 0.280472 8.72909C0.34621 7.2754 0.578156 6.28312 0.914291 5.41488C1.25752 4.50456 1.79509 3.68001 2.48954 2.99867C3.17054 2.3047 3.99467 1.76755 4.9045 1.42467C5.77275 1.08853 6.76503 0.857826 8.21624 0.790848H8.21748ZM19.3558 3.24674C17.917 3.181 17.4854 3.16736 13.8425 3.16736C10.1996 3.16736 9.76791 3.181 8.32911 3.24674C6.99821 3.30752 6.27633 3.52954 5.79507 3.71684C5.15877 3.96491 4.70356 4.25887 4.22603 4.7364C3.77336 5.17679 3.42498 5.71291 3.20646 6.30545C3.01917 6.7867 2.79714 7.50859 2.73637 8.83948C2.67063 10.2783 2.65698 10.7099 2.65698 14.3528C2.65698 17.9958 2.67063 18.4274 2.73637 19.8662C2.79714 21.1971 3.01917 21.919 3.20646 22.4002C3.42476 22.9919 3.7733 23.529 4.22603 23.9693C4.66635 24.422 5.20342 24.7706 5.79507 24.9889C6.27633 25.1761 6.99821 25.3982 8.32911 25.4589C9.76791 25.5247 10.1983 25.5383 13.8425 25.5383C17.4866 25.5383 17.917 25.5247 19.3558 25.4589C20.6867 25.3982 21.4086 25.1761 21.8899 24.9889C22.5262 24.7408 22.9814 24.4468 23.4589 23.9693C23.9116 23.529 24.2602 22.9919 24.4785 22.4002C24.6658 21.919 24.8878 21.1971 24.9486 19.8662C25.0143 18.4274 25.028 17.9958 25.028 14.3528C25.028 10.7099 25.0143 10.2783 24.9486 8.83948C24.8878 7.50859 24.6658 6.7867 24.4785 6.30545C24.2304 5.66915 23.9364 5.21394 23.4589 4.7364C23.0185 4.28376 22.4824 3.9354 21.8899 3.71684C21.4086 3.52954 20.6867 3.30752 19.3558 3.24674ZM12.0998 18.5589C13.073 18.964 14.1567 19.0187 15.1658 18.7136C16.1749 18.4085 17.0468 17.7625 17.6325 16.8859C18.2182 16.0094 18.4814 14.9567 18.3772 13.9077C18.273 12.8586 17.8079 11.8783 17.0612 11.1341C16.5852 10.6584 16.0096 10.2942 15.376 10.0676C14.7423 9.84104 14.0663 9.75779 13.3966 9.82385C12.7268 9.8899 12.0801 10.1036 11.5029 10.4496C10.9257 10.7956 10.4324 11.2653 10.0585 11.8248C9.68464 12.3844 9.43946 13.0198 9.34063 13.6855C9.24181 14.3511 9.29181 15.0304 9.48703 15.6745C9.68224 16.3185 10.0178 16.9112 10.4696 17.41C10.9214 17.9087 11.4781 18.3011 12.0998 18.5589ZM8.88354 9.39392C9.53476 8.74271 10.3079 8.22613 11.1587 7.8737C12.0096 7.52126 12.9215 7.33987 13.8425 7.33987C14.7634 7.33987 15.6754 7.52126 16.5262 7.8737C17.3771 8.22613 18.1502 8.74271 18.8014 9.39392C19.4526 10.0451 19.9692 10.8182 20.3216 11.6691C20.674 12.5199 20.8554 13.4319 20.8554 14.3528C20.8554 15.2738 20.674 16.1857 20.3216 17.0366C19.9692 17.8874 19.4526 18.6606 18.8014 19.3118C17.4862 20.627 15.7024 21.3658 13.8425 21.3658C11.9825 21.3658 10.1987 20.627 8.88354 19.3118C7.56836 17.9966 6.82949 16.2128 6.82949 14.3528C6.82949 12.4929 7.56836 10.7091 8.88354 9.39392ZM22.4108 8.38428C22.5722 8.23205 22.7014 8.04899 22.7907 7.84593C22.8801 7.64288 22.9278 7.42396 22.931 7.20213C22.9343 6.98031 22.893 6.7601 22.8096 6.55452C22.7262 6.34895 22.6024 6.1622 22.4455 6.00533C22.2886 5.84846 22.1019 5.72466 21.8963 5.64126C21.6907 5.55786 21.4705 5.51655 21.2487 5.51979C21.0269 5.52302 20.8079 5.57073 20.6049 5.66009C20.4018 5.74945 20.2188 5.87864 20.0665 6.04001C19.7705 6.35386 19.6084 6.77073 19.6147 7.20213C19.621 7.63354 19.7952 8.04551 20.1002 8.35059C20.4053 8.65567 20.8173 8.82984 21.2487 8.83613C21.6801 8.84242 22.097 8.68033 22.4108 8.38428Z" fill="white"/>
</svg>
