<svg width="22" height="22" viewBox="0 0 22 22" fill="none" xmlns="http://www.w3.org/2000/svg">
<path d="M2 11.161C2 14.8122 2 18.5742 3.31802 19.7084C4.63604 20.8427 6.75736 20.8427 11 20.8427C15.2426 20.8427 17.364 20.8427 18.682 19.7084C20 18.5742 20 14.8122 20 11.161" stroke="#1D2D47" stroke-width="1.50275"/>
<path d="M13.6603 13.2928L19.8579 11.4927C20.2688 11.3734 20.4743 11.3137 20.6264 11.1954C20.7592 11.0921 20.8626 10.9575 20.9266 10.8046C21 10.6296 21 10.4219 21 10.0067C21 8.37296 21 7.55612 20.6703 6.93272C20.3834 6.3903 19.9276 5.94898 19.3673 5.67123C18.7234 5.35202 17.8797 5.35202 16.1923 5.35202H5.80765C4.12027 5.35202 3.27658 5.35202 2.63268 5.67123C2.07242 5.94898 1.61659 6.3903 1.32971 6.93272C1 7.55612 1 8.37296 1 10.0067C1 10.4219 1 10.6296 1.07336 10.8046C1.13743 10.9575 1.24079 11.0921 1.37363 11.1954C1.52574 11.3137 1.73118 11.3734 2.14206 11.4927L8.33968 13.2928" stroke="#1D2D47" stroke-width="1.50275"/>
<path d="M13 11.6451H9C8.72386 11.6451 8.5 11.8619 8.5 12.1292V14.2219C8.5 14.4197 8.62448 14.5978 8.8143 14.6713L9.5144 14.9425C10.4681 15.3117 11.5319 15.3117 12.4856 14.9425L13.1857 14.6713C13.3755 14.5978 13.5 14.4197 13.5 14.2219V12.1292C13.5 11.8619 13.2761 11.6451 13 11.6451Z" stroke="#1D2D47" stroke-width="1.50275" stroke-linecap="round"/>
<path d="M8.1709 3.4157C8.58273 2.2876 9.694 1.47937 11.0002 1.47937C12.3064 1.47937 13.4177 2.2876 13.8295 3.4157" stroke="#1D2D47" stroke-width="1.50275" stroke-linecap="round"/>
</svg>
