<svg width="70" height="71" viewBox="0 0 70 71" fill="none" xmlns="http://www.w3.org/2000/svg">
<circle cx="35" cy="35.5" r="35" fill="white"/>
<path d="M40.5 30.5H29.4375C30.375 24.9375 32.5 21 35 21C37.4375 21 39.625 24.9375 40.5 30.5ZM29 36.5C29 35.125 29.0625 33.8125 29.1875 32.5H40.75C40.875 33.8125 40.9375 35.125 40.9375 36.5C40.9375 37.9375 40.875 39.25 40.75 40.5H29.1875C29.0625 39.25 29 37.9375 29 36.5ZM49.25 30.5H42.5C41.9375 27 40.9375 23.8125 39.375 21.6875C43.875 23 47.5 26.3125 49.25 30.5ZM30.5625 21.6875C29 23.8125 28 27 27.4375 30.5H20.6875C22.4375 26.3125 26.0625 23 30.5625 21.6875ZM49.9375 32.5C50.25 33.8125 50.4375 35.125 50.4375 36.5C50.4375 37.9375 50.25 39.25 49.9375 40.5H42.75C42.875 39.1875 43 37.875 43 36.5C43 35.1875 42.875 33.8125 42.75 32.5H49.9375ZM27 36.5C27 37.875 27.0625 39.1875 27.1875 40.5H20C19.6875 39.25 19.5 37.9375 19.5 36.5C19.5 35.125 19.6875 33.8125 20 32.5H27.1875C27.0625 33.8125 27 35.1875 27 36.5ZM29.4375 42.5H40.5C39.625 48.125 37.4375 52 35 52C32.5 52 30.375 48.125 29.4375 42.5ZM39.375 51.375C40.9375 49.25 42 46.0625 42.5 42.5H49.25C47.5 46.75 43.875 50.0625 39.375 51.375ZM20.6875 42.5H27.4375C28 46.0625 29 49.25 30.5625 51.375C26.0625 50.0625 22.4375 46.75 20.6875 42.5Z" fill="#16ACDA"/>
</svg>
