<svg width="47" height="48" viewBox="0 0 47 48" fill="none" xmlns="http://www.w3.org/2000/svg">
<path d="M32 15H15.4062C16.8125 6.65625 20 0.75 23.75 0.75C27.4062 0.75 30.6875 6.65625 32 15ZM14.75 24C14.75 21.9375 14.8438 19.9688 15.0312 18H32.375C32.5625 19.9688 32.6562 21.9375 32.6562 24C32.6562 26.1562 32.5625 28.125 32.375 30H15.0312C14.8438 28.125 14.75 26.1562 14.75 24ZM45.125 15H35C34.1562 9.75 32.6562 4.96875 30.3125 1.78125C37.0625 3.75 42.5 8.71875 45.125 15ZM17.0938 1.78125C14.75 4.96875 13.25 9.75 12.4062 15H2.28125C4.90625 8.71875 10.3438 3.75 17.0938 1.78125ZM46.1562 18C46.625 19.9688 46.9062 21.9375 46.9062 24C46.9062 26.1562 46.625 28.125 46.1562 30H35.375C35.5625 28.0312 35.75 26.0625 35.75 24C35.75 22.0312 35.5625 19.9688 35.375 18H46.1562ZM11.75 24C11.75 26.0625 11.8438 28.0312 12.0312 30H1.25C0.78125 28.125 0.5 26.1562 0.5 24C0.5 21.9375 0.78125 19.9688 1.25 18H12.0312C11.8438 19.9688 11.75 22.0312 11.75 24ZM15.4062 33H32C30.6875 41.4375 27.4062 47.25 23.75 47.25C20 47.25 16.8125 41.4375 15.4062 33ZM30.3125 46.3125C32.6562 43.125 34.25 38.3438 35 33H45.125C42.5 39.375 37.0625 44.3438 30.3125 46.3125ZM2.28125 33H12.4062C13.25 38.3438 14.75 43.125 17.0938 46.3125C10.3438 44.3438 4.90625 39.375 2.28125 33Z" fill="#2B3990"/>
</svg>
