<svg width="24" height="24" viewBox="0 0 24 24" fill="none" xmlns="http://www.w3.org/2000/svg">
<g opacity="0.6">
<path fill-rule="evenodd" clip-rule="evenodd" d="M5.9524 5.81179C7.40475 4.42861 9.76666 4.42861 11.219 5.81179L12.5354 7.06554L13.8519 5.81179L12.5354 4.55808C10.3541 2.48064 6.81729 2.48064 4.63598 4.55808C2.45467 6.63551 2.45467 10.0039 4.63598 12.0814L5.9524 13.3351L7.26883 12.0814L5.9524 10.8276C4.50006 9.44443 4.50006 7.19498 5.9524 5.81179ZM19.664 11.3472L18.3476 10.0926L17.0312 11.3472L18.3476 12.6009C19.799 13.9832 19.799 16.2336 18.3476 17.6168C16.8953 18.9991 14.5324 18.9991 13.081 17.6168L11.7646 16.3621L10.4472 17.6168L11.7646 18.8705C13.9459 20.9479 17.4827 20.9479 19.664 18.8705C21.8453 16.793 21.8453 13.4246 19.664 11.3472ZM7.92703 6.43866L17.6894 15.7353L16.372 16.9899L6.6106 7.69241L7.92703 6.43866Z" fill="#5C5C5C"/>
</g>
</svg>
