<svg width="48" height="38" viewBox="0 0 48 38" fill="none" xmlns="http://www.w3.org/2000/svg">
<path d="M39 36H31.125C30.4688 36 30 35.5312 30 34.875V31.125C30 30.5625 30.4688 30 31.125 30H39C40.5938 30 42 28.6875 42 27V9C42 7.40625 40.5938 6 39 6H31.125C30.4688 6 30 5.53125 30 4.875V1.125C30 0.5625 30.4688 0 31.125 0H39C43.9688 0 48 4.03125 48 9V27C48 31.9688 43.9688 36 39 36ZM34.5938 17.1562C35.4375 18.0938 35.4375 19.5 34.5938 20.3438L18.8438 36.0938C17.4375 37.5 15 36.5625 15 34.5V25.5H2.25C0.9375 25.5 0 24.5625 0 23.25V14.25C0 13.0312 0.9375 12 2.25 12H15V3C15 1.03125 17.4375 0 18.8438 1.40625L34.5938 17.1562Z" fill="#2B3990"/>
</svg>
