<svg width="96" height="75" viewBox="0 0 96 75" fill="none" xmlns="http://www.w3.org/2000/svg">
<path d="M93.6875 40.6875L62.1875 72.1875C59.375 75 54.5 73.125 54.5 69V51H29C26.375 51 24.5 49.125 24.5 46.5V28.5C24.5 26.0625 26.375 24 29 24H54.5V6C54.5 2.0625 59.1875 0 62.1875 2.8125L93.6875 34.3125C95.375 36.1875 95.375 39 93.6875 40.6875ZM36.5 71.25C36.5 72.5625 35.375 73.5 34.25 73.5H18.5C8.5625 73.5 0.5 65.4375 0.5 55.5V19.5C0.5 9.5625 8.5625 1.5 18.5 1.5H34.25C35.375 1.5 36.5 2.625 36.5 3.75V11.25C36.5 12.5625 35.375 13.5 34.25 13.5H18.5C15.125 13.5 12.5 16.3125 12.5 19.5V55.5C12.5 58.875 15.125 61.5 18.5 61.5H34.25C35.375 61.5 36.5 62.625 36.5 63.75V71.25Z" fill="#16ACDA"/>
</svg>
