<svg width="70" height="71" viewBox="0 0 70 71" fill="none" xmlns="http://www.w3.org/2000/svg">
<circle cx="35" cy="35.5" r="35" fill="white"/>
<path d="M50.0625 36.5625L39.5625 47.0625C38.625 48 37 47.375 37 46V40H28.5C27.625 40 27 39.375 27 38.5V32.5C27 31.6875 27.625 31 28.5 31H37V25C37 23.6875 38.5625 23 39.5625 23.9375L50.0625 34.4375C50.625 35.0625 50.625 36 50.0625 36.5625ZM31 46.75C31 47.1875 30.625 47.5 30.25 47.5H25C21.6875 47.5 19 44.8125 19 41.5V29.5C19 26.1875 21.6875 23.5 25 23.5H30.25C30.625 23.5 31 23.875 31 24.25V26.75C31 27.1875 30.625 27.5 30.25 27.5H25C23.875 27.5 23 28.4375 23 29.5V41.5C23 42.625 23.875 43.5 25 43.5H30.25C30.625 43.5 31 43.875 31 44.25V46.75Z" fill="#16ACDA"/>
</svg>
