<svg width="24" height="25" viewBox="0 0 24 25" fill="none" xmlns="http://www.w3.org/2000/svg">
<path d="M21 8.88763L17.4392 10.8659C15.454 11.9687 14.4614 12.5202 13.4102 12.7364C12.4798 12.9277 11.5202 12.9277 10.5898 12.7364C9.53864 12.5202 8.54603 11.9687 6.5608 10.8659L3 8.88763M6.2 19.8876H17.8C18.9201 19.8876 19.4802 19.8876 19.908 19.6696C20.2843 19.4779 20.5903 19.1719 20.782 18.7956C21 18.3678 21 17.8077 21 16.6876V9.08763C21 7.96753 21 7.40747 20.782 6.97965C20.5903 6.60332 20.2843 6.29736 19.908 6.10562C19.4802 5.88763 18.9201 5.88763 17.8 5.88763H6.2C5.0799 5.88763 4.51984 5.88763 4.09202 6.10562C3.71569 6.29736 3.40973 6.60332 3.21799 6.97965C3 7.40747 3 7.96752 3 9.08763V16.6876C3 17.8077 3 18.3678 3.21799 18.7956C3.40973 19.1719 3.71569 19.4779 4.09202 19.6696C4.51984 19.8876 5.07989 19.8876 6.2 19.8876Z" stroke="#1D2D47" stroke-width="2" stroke-linecap="round" stroke-linejoin="round"/>
</svg>
