<svg width="32" height="32" viewBox="0 0 32 32" fill="none" xmlns="http://www.w3.org/2000/svg">
<path d="M16.4999 3V11.9999M16.4999 3L12.7499 6.74997M16.4999 3L20.2498 6.74997M7.23496 12.0005C7.85741 12.5502 8.24995 13.3542 8.24995 14.2499C8.24995 15.9068 6.90682 17.2499 5.24998 17.2499C4.35426 17.2499 3.55024 16.8573 3.00056 16.2348M7.23496 12.0005C7.41212 11.9999 7.6001 11.9999 7.79996 11.9999H10.4999M7.23496 12.0005C5.92275 12.0045 5.2034 12.0388 4.63801 12.3269C4.07353 12.6145 3.61459 13.0734 3.32698 13.6379C3.03889 14.2034 3.00462 14.9226 3.00056 16.2348M3.00056 16.2348C3 16.412 3 16.6001 3 16.7999V25.1998C3 25.3996 3 25.5877 3.00056 25.7648M3.00056 25.7648C3.55024 25.1423 4.35426 24.7498 5.24998 24.7498C6.90682 24.7498 8.24995 26.0929 8.24995 27.7498C8.24995 28.6454 7.85741 29.4496 7.23496 29.9992M3.00056 25.7648C3.00462 27.077 3.03889 27.7964 3.32698 28.3618C3.61459 28.9262 4.07353 29.3852 4.63801 29.6728C5.2034 29.9609 5.92275 29.9951 7.23496 29.9992M7.23496 29.9992C7.41212 29.9998 7.6001 29.9998 7.79996 29.9998H25.1998C25.3996 29.9998 25.5877 29.9998 25.7648 29.9992M25.7648 29.9992C25.1423 29.4496 24.7498 28.6454 24.7498 27.7498C24.7498 26.0929 26.0929 24.7498 27.7498 24.7498C28.6457 24.7498 29.45 25.1426 29.9998 25.7654M25.7648 29.9992C27.077 29.9951 27.7964 29.9609 28.3618 29.6728C28.9262 29.3852 29.3852 28.9262 29.6728 28.3618C29.9608 27.7964 29.9957 27.0772 29.9998 25.7654M29.9998 25.7654C30.0004 25.5881 29.9998 25.3999 29.9998 25.1998V16.7999C29.9998 16.6001 29.9998 16.412 29.9992 16.2348M29.9992 16.2348C29.4496 16.8573 28.6454 17.2499 27.7498 17.2499C26.0929 17.2499 24.7498 15.9068 24.7498 14.2499C24.7498 13.3542 25.1423 12.5502 25.7648 12.0005M29.9992 16.2348C29.9951 14.9226 29.9609 14.2034 29.6728 13.6379C29.3852 13.0734 28.9262 12.6145 28.3618 12.3269C27.7964 12.0388 27.077 12.0045 25.7648 12.0005M25.7648 12.0005C25.5877 11.9999 25.3996 11.9999 25.1998 11.9999H22.4998M19.4998 20.9998C19.4998 22.6567 18.1568 23.9998 16.4999 23.9998C14.843 23.9998 13.4999 22.6567 13.4999 20.9998C13.4999 19.343 14.843 17.9999 16.4999 17.9999C18.1568 17.9999 19.4998 19.343 19.4998 20.9998Z" stroke="#1D2D47" stroke-width="2.42308" stroke-linecap="round" stroke-linejoin="round"/>
</svg>
