<svg width="24" height="24" viewBox="0 0 24 24" fill="none" xmlns="http://www.w3.org/2000/svg">
<path d="M12.171 17.1019C12.0417 16.8179 11.774 16.6106 11.45 16.5738C11.1756 16.5424 10.907 16.4837 10.6516 16.3989C10.5371 16.3604 10.4296 16.3184 10.3301 16.2733L10.4954 15.8226C10.6122 15.8747 10.7324 15.9224 10.8556 15.9655L10.8607 15.9673L10.8659 15.969C11.261 16.0996 11.6499 16.1658 12.0215 16.1658C12.3946 16.1658 12.665 16.1158 12.8728 16.0086L12.8852 16.0022L12.8973 15.9951C13.212 15.8145 13.3926 15.5041 13.3926 15.1433C13.3926 14.7429 13.1766 14.4106 12.7999 14.231C12.6104 14.1388 12.3413 14.0508 11.9536 13.9544C11.5559 13.8539 11.2219 13.7472 10.9628 13.6379C10.7734 13.5522 10.6092 13.4155 10.4611 13.22C10.3336 13.0456 10.2691 12.7832 10.2691 12.4399C10.2691 12.0257 10.3857 11.6838 10.6257 11.3947C10.8394 11.1413 11.1427 10.9692 11.5499 10.8727C11.852 10.8011 12.0875 10.5855 12.1934 10.3071C12.3132 10.5893 12.568 10.7992 12.885 10.8497C13.1499 10.8919 13.393 10.9592 13.6116 11.0502L13.4595 11.4918C13.0467 11.3261 12.6404 11.2424 12.2475 11.2424C10.9425 11.2424 10.8765 12.1427 10.8765 12.3231C10.8765 12.7144 11.0878 13.0424 11.4561 13.2233L11.4665 13.2284L11.4769 13.2331C11.663 13.3161 11.927 13.3962 12.3081 13.485C12.7021 13.574 13.0306 13.676 13.2888 13.7891L13.2942 13.7915L13.2995 13.7937C13.4912 13.8735 13.6556 14.0067 13.8022 14.201L13.8045 14.204L13.8069 14.2071C13.935 14.3727 14 14.6288 14 14.9683C14 15.3602 13.8865 15.6919 13.653 15.9825C13.4505 16.2345 13.1678 16.409 12.7884 16.5158C12.4955 16.5983 12.2683 16.8223 12.171 17.1019Z" fill="#1D2D47"/>
<path d="M12.3906 18.3554H11.8218C11.6946 18.3554 11.5915 18.2497 11.5915 18.1192V17.645C11.5915 17.5202 11.4969 17.4177 11.3759 17.4039C11.0879 17.3712 10.8094 17.3101 10.5402 17.2208C10.2787 17.1327 10.0521 17.0283 9.86054 16.9072C9.77248 16.8516 9.74045 16.7386 9.77685 16.6394L10.167 15.5756C10.2195 15.4325 10.389 15.3777 10.5196 15.4517C10.6958 15.5516 10.8852 15.637 11.0877 15.7078C11.3895 15.8075 11.6791 15.8574 11.9565 15.8574C12.1949 15.8574 12.3654 15.831 12.4676 15.7782C12.5697 15.7195 12.6209 15.6345 12.6209 15.5231C12.6209 15.3941 12.5527 15.2974 12.4164 15.2329C12.2851 15.1684 12.066 15.098 11.7594 15.0218C11.3652 14.9221 11.0367 14.8165 10.7739 14.7051C10.5111 14.5878 10.2823 14.4001 10.0876 14.1422C9.89289 13.8783 9.79556 13.5235 9.79556 13.0778C9.79556 12.5617 9.94888 12.119 10.2554 11.7496C10.5318 11.4219 10.9134 11.2003 11.4002 11.0849C11.5099 11.0589 11.5915 10.9614 11.5915 10.8461V10.3234C11.5915 10.1929 11.6946 10.0872 11.8218 10.0872H12.3906C12.5178 10.0872 12.6209 10.1929 12.6209 10.3234V10.8162C12.6209 10.9369 12.7097 11.0374 12.8259 11.056C13.2525 11.1239 13.6273 11.2525 13.9502 11.4419C14.0418 11.4956 14.0782 11.6099 14.043 11.712L13.6779 12.7714C13.6296 12.9118 13.4684 12.9713 13.3387 12.9042C12.9274 12.6916 12.5349 12.5852 12.1609 12.5852C11.718 12.5852 11.4965 12.7142 11.4965 12.9722C11.4965 13.0954 11.5623 13.1892 11.6937 13.2538C11.8251 13.3124 12.0416 13.3769 12.3434 13.4473C12.7327 13.5353 13.0613 13.6378 13.329 13.7551C13.5967 13.8665 13.8278 14.0512 14.0226 14.3093C14.2221 14.5673 14.3219 14.9191 14.3219 15.3648C14.3219 15.8574 14.1734 16.2884 13.8765 16.6579C13.6179 16.9798 13.2599 17.2052 12.8027 17.3341C12.6975 17.3637 12.6209 17.4592 12.6209 17.5709V18.1192C12.6209 18.2497 12.5178 18.3554 12.3906 18.3554Z" fill="#1D2D47"/>
<path fill-rule="evenodd" clip-rule="evenodd" d="M9.57206 3H14.5587C15.8359 3 15.1346 4.96549 14.6174 6.16439L14.029 7.53929L13.9495 7.72474C14.5069 7.69699 15.0581 7.85531 15.5203 8.17595C17.2495 9.79866 18.6528 11.7523 19.6514 13.9271C20.0405 14.7313 20.1949 15.6337 20.0959 16.5257C19.9771 18.7994 18.1985 20.6112 15.981 20.7178H8.14977C5.93162 20.6144 4.15048 18.8045 4.02915 16.5305C3.93015 15.6384 4.08452 14.736 4.47369 13.9319C5.47343 11.7549 6.87873 9.79949 8.61043 8.17595C9.07271 7.85531 9.62388 7.69699 10.1813 7.72474L10.0891 7.51094L9.51333 6.16439C8.99854 4.96549 8.29372 3 9.57206 3Z" stroke="#1D2D47" stroke-width="1.93682" stroke-linecap="round" stroke-linejoin="round"/>
<path d="M13.9495 8.61084C14.4388 8.61084 14.8354 8.21421 14.8354 7.72495C14.8354 7.23569 14.4388 6.83906 13.9495 6.83906V8.61084ZM10.1813 6.83906C9.69206 6.83906 9.29543 7.23569 9.29543 7.72495C9.29543 8.21421 9.69206 8.61084 10.1813 8.61084V6.83906ZM17.1143 7.3114C17.5382 7.06717 17.6839 6.52552 17.4397 6.10157C17.1954 5.67762 16.6538 5.53192 16.2299 5.77614L17.1143 7.3114ZM14.029 7.53951L14.1999 8.40875L14.2025 8.40824L14.029 7.53951ZM10.0892 7.51116L10.2726 6.64442L10.2646 6.64279L10.0892 7.51116ZM7.88731 5.7684C7.45909 5.53175 6.9201 5.68704 6.68345 6.11526C6.44679 6.54348 6.60208 7.08247 7.03031 7.31913L7.88731 5.7684ZM13.9495 6.83906H10.1813V8.61084H13.9495V6.83906ZM16.2299 5.77614C15.4893 6.20274 14.6877 6.50459 13.8555 6.67077L14.2025 8.40824C15.2246 8.20414 16.2077 7.83366 17.1143 7.3114L16.2299 5.77614ZM13.8581 6.67026C12.6729 6.90333 11.4546 6.89452 10.2726 6.64442L9.90579 8.37785C11.3213 8.67735 12.7805 8.68787 14.1999 8.40875L13.8581 6.67026ZM10.2646 6.64279C9.43451 6.47521 8.63317 6.18061 7.88731 5.7684L7.03031 7.31913C7.93369 7.81838 8.90571 8.17598 9.91386 8.37953L10.2646 6.64279Z" fill="#1D2D47"/>
</svg>
