<svg width="31" height="31" viewBox="0 0 31 31" fill="none" xmlns="http://www.w3.org/2000/svg">
<circle cx="15.5" cy="15.5" r="15.5" fill="#8553D8"/>
<path d="M12.2188 11.6875L11.4062 14H20.5625L19.75 11.6875C19.625 11.2812 19.25 11 18.8125 11H13.1562C12.7188 11 12.3438 11.2812 12.2188 11.6875ZM9.21875 14.1562L10.3125 11.0312C10.75 9.8125 11.875 9 13.1562 9H18.8125C20.0938 9 21.2188 9.8125 21.6562 11.0312L22.75 14.1562C23.4688 14.4688 24 15.1875 24 16V20.5V22C24 22.5625 23.5312 23 23 23H22C21.4375 23 21 22.5625 21 22V20.5H11V22C11 22.5625 10.5312 23 10 23H9C8.4375 23 8 22.5625 8 22V20.5V16C8 15.1875 8.5 14.4688 9.21875 14.1562ZM12 17C12 16.4688 11.5312 16 11 16C10.4375 16 10 16.4688 10 17C10 17.5625 10.4375 18 11 18C11.5312 18 12 17.5625 12 17ZM21 18C21.5312 18 22 17.5625 22 17C22 16.4688 21.5312 16 21 16C20.4375 16 20 16.4688 20 17C20 17.5625 20.4375 18 21 18Z" fill="white"/>
</svg>
