<svg width="31" height="31" viewBox="0 0 31 31" fill="none" xmlns="http://www.w3.org/2000/svg">
<circle cx="15.5" cy="15.5" r="15.5" fill="#F56D41"/>
<path d="M11.3438 11C10.9375 11 10.5625 11.25 10.4062 11.6562L9.46875 14H13V11H11.3438ZM14.5 14H19.9062L17.8125 11.375C17.625 11.1562 17.3125 11 17.0312 11H14.5V14ZM22.5 14.0312C24.4688 14.2812 26 15.9688 26 18V19.5C26 20.0625 25.5312 20.5 25 20.5H23.9375C23.7188 21.9375 22.4688 23 21 23C19.5 23 18.25 21.9375 18.0312 20.5H13.9375C13.7188 21.9375 12.4688 23 11 23C9.5 23 8.25 21.9375 8.03125 20.5H7C6.4375 20.5 6 20.0625 6 19.5V16C6 15.1562 6.5 14.4375 7.25 14.1562L8.5625 10.9062C9 9.75 10.125 9 11.3438 9H17.0312C17.9375 9 18.8125 9.4375 19.375 10.125L22.5 14.0312ZM19.5625 19.5C19.375 20.0312 19.4688 20.5938 19.8438 21C20.1875 21.4062 20.7188 21.625 21.25 21.5C21.7812 21.4062 22.2188 21.0312 22.4062 20.5C22.5938 20 22.4688 19.4375 22.125 19.0312C21.7812 18.625 21.25 18.4062 20.7188 18.5312C20.1875 18.625 19.75 19 19.5625 19.5ZM11 18.5C10.4375 18.5 9.96875 18.8125 9.6875 19.25C9.40625 19.7188 9.40625 20.3125 9.6875 20.75C9.96875 21.2188 10.4375 21.5 11 21.5C11.5312 21.5 12 21.2188 12.2812 20.75C12.5625 20.3125 12.5625 19.7188 12.2812 19.25C12 18.8125 11.5312 18.5 11 18.5Z" fill="white"/>
</svg>
