<svg width="21" height="18" viewBox="0 0 21 18" fill="none" xmlns="http://www.w3.org/2000/svg">
<path d="M6.9375 0.523438C7.28906 0.875 7.32812 1.46094 6.97656 1.85156L4.16406 4.97656C4.00781 5.13281 3.77344 5.25 3.5 5.25C3.26562 5.28906 2.99219 5.17188 2.83594 4.97656L1.27344 3.41406C0.882812 3.0625 0.882812 2.47656 1.27344 2.125C1.625 1.73438 2.21094 1.73438 2.5625 2.125L3.46094 2.98438L5.60938 0.5625C5.96094 0.210938 6.54688 0.171875 6.9375 0.523438ZM6.9375 6.77344C7.28906 7.08594 7.32812 7.71094 6.97656 8.10156L4.16406 11.2266C4.00781 11.3828 3.77344 11.5 3.5 11.5C3.26562 11.5391 2.99219 11.4219 2.83594 11.2266L1.27344 9.66406C0.882812 9.3125 0.882812 8.72656 1.27344 8.33594C1.625 7.98438 2.21094 7.98438 2.5625 8.33594L3.46094 9.23438L5.60938 6.8125C5.96094 6.46094 6.54688 6.42188 6.9375 6.77344ZM9.75 2.75C9.75 2.08594 10.2969 1.5 11 1.5H19.75C20.4141 1.5 21 2.08594 21 2.75C21 3.45312 20.4141 4 19.75 4H11C10.2969 4 9.75 3.45312 9.75 2.75ZM9.75 9C9.75 8.33594 10.2969 7.75 11 7.75H19.75C20.4141 7.75 21 8.33594 21 9C21 9.70312 20.4141 10.25 19.75 10.25H11C10.2969 10.25 9.75 9.70312 9.75 9ZM7.25 15.25C7.25 14.5859 7.79688 14 8.5 14H19.75C20.4141 14 21 14.5859 21 15.25C21 15.9531 20.4141 16.5 19.75 16.5H8.5C7.79688 16.5 7.25 15.9531 7.25 15.25ZM1 15.25C1 14.2344 1.82031 13.375 2.875 13.375C3.89062 13.375 4.75 14.2344 4.75 15.25C4.75 16.3047 3.89062 17.125 2.875 17.125C1.82031 17.125 1 16.3047 1 15.25Z" fill="white"/>
</svg>
