<svg width="21" height="18" viewBox="0 0 21 18" fill="none" xmlns="http://www.w3.org/2000/svg">
<path d="M6.42981 1.02344C6.82043 1.375 6.82043 1.96094 6.46887 2.35156L3.65637 5.47656C3.50012 5.63281 3.26575 5.75 2.99231 5.75C2.75793 5.78906 2.4845 5.67188 2.32825 5.47656L0.765747 3.91406C0.375122 3.5625 0.375122 2.97656 0.765747 2.58594C1.11731 2.23438 1.70325 2.23438 2.05481 2.58594L2.95325 3.48438L5.10168 1.0625C5.45325 0.671875 6.03918 0.671875 6.42981 1.02344ZM6.42981 7.27344C6.82043 7.625 6.82043 8.21094 6.46887 8.60156L3.65637 11.7266C3.50012 11.8828 3.26575 12 2.99231 12C2.75793 12.0391 2.4845 11.9219 2.32825 11.7266L0.765747 10.1641C0.375122 9.8125 0.375122 9.22656 0.765747 8.875C1.11731 8.48438 1.70325 8.48438 2.05481 8.875L2.95325 9.73438L5.10168 7.3125C5.45325 6.96094 6.03918 6.92188 6.42981 7.27344ZM9.24231 3.25C9.24231 2.58594 9.78918 2 10.4923 2H19.2423C19.9064 2 20.4923 2.58594 20.4923 3.25C20.4923 3.95312 19.9064 4.5 19.2423 4.5H10.4923C9.78918 4.5 9.24231 3.95312 9.24231 3.25ZM9.24231 9.5C9.24231 8.83594 9.78918 8.25 10.4923 8.25H19.2423C19.9064 8.25 20.4923 8.83594 20.4923 9.5C20.4923 10.2031 19.9064 10.75 19.2423 10.75H10.4923C9.78918 10.75 9.24231 10.2031 9.24231 9.5ZM6.74231 15.75C6.74231 15.0859 7.28918 14.5 7.99231 14.5H19.2423C19.9064 14.5 20.4923 15.0859 20.4923 15.75C20.4923 16.4531 19.9064 17 19.2423 17H7.99231C7.28918 17 6.74231 16.4531 6.74231 15.75ZM2.36731 13.875C3.03137 13.875 3.61731 14.2656 3.96887 14.8125C4.32043 15.3984 4.32043 16.1406 3.96887 16.6875C3.61731 17.2734 3.03137 17.625 2.36731 17.625C1.66418 17.625 1.07825 17.2734 0.726685 16.6875C0.375122 16.1406 0.375122 15.3984 0.726685 14.8125C1.07825 14.2656 1.66418 13.875 2.36731 13.875Z" fill="white"/>
</svg>
