<svg width="24" height="24" viewBox="0 0 24 24" fill="none" xmlns="http://www.w3.org/2000/svg">
<g clip-path="url(#clip0_184_992)">
<path d="M18.3383 22.4258H2.5962V10.6349H8.65689V4.57422H18.3383V6.12637L19.9125 4.61514V3H8.65689L2.5962 9.0607L1.02197 10.6349V24H19.9125V14.7311L18.3383 16.3714V22.4258Z" fill="#1D2D47"/>
<path d="M24.564 7.14815L22.1883 4.77246C21.979 4.56315 21.6397 4.56315 21.4305 4.77246L11.4002 14.4054C11.338 14.4676 11.2921 14.5441 11.2665 14.6282L10.0533 18.6143C9.9285 19.0245 10.3119 19.4079 10.722 19.2831L14.8363 18.0309L24.564 7.90601C24.7732 7.69674 24.7732 7.35741 24.564 7.14815ZM12.3153 17.8196L11.5342 16.9657L12.0756 15.1861L13.4244 15.9118L14.1503 17.2609L12.3153 17.8196ZM23.0563 6.76873L14.5106 15.3686L13.9678 14.8258L22.5681 6.27975L23.0563 6.7679C23.0563 6.76827 23.0563 6.76845 23.0563 6.76873Z" fill="#1D2D47"/>
</g>
<defs>
<clipPath id="clip0_184_992">
<rect width="24" height="24" fill="white"/>
</clipPath>
</defs>
</svg>
