<svg width="20" height="33" viewBox="0 0 20 33" fill="none" xmlns="http://www.w3.org/2000/svg">
<path d="M17 0.5C17.8333 0.5 18.5417 0.791667 19.125 1.375C19.7083 1.95833 20 2.66667 20 3.5V29.5C20 30.3333 19.7083 31.0417 19.125 31.625C18.5417 32.2083 17.8333 32.5 17 32.5H3C2.16667 32.5 1.45833 32.2083 0.875 31.625C0.291667 31.0417 0 30.3333 0 29.5V3.5C0 2.66667 0.291667 1.95833 0.875 1.375C1.45833 0.791667 2.16667 0.5 3 0.5H17ZM8.5625 29.875C8.97917 30.2917 9.45833 30.5 10 30.5C10.5417 30.5 11 30.2917 11.375 29.875C11.7917 29.5 12 29.0417 12 28.5C12 27.9583 11.7917 27.5 11.375 27.125C11 26.7083 10.5417 26.5 10 26.5C9.45833 26.5 8.97917 26.7083 8.5625 27.125C8.1875 27.5 8 27.9583 8 28.5C8 29.0417 8.1875 29.5 8.5625 29.875Z" fill="#16ACDA"/>
</svg>
