<svg width="24" height="25" viewBox="0 0 24 25" fill="none" xmlns="http://www.w3.org/2000/svg">
<path d="M12 18.9626H12.01M9.2 21.9626H14.8C15.9201 21.9626 16.4802 21.9626 16.908 21.7446C17.2843 21.5529 17.5903 21.2469 17.782 20.8706C18 20.4428 18 19.8827 18 18.7626V7.16255C18 6.04245 18 5.48239 17.782 5.05457C17.5903 4.67824 17.2843 4.37228 16.908 4.18054C16.4802 3.96255 15.9201 3.96255 14.8 3.96255H9.2C8.0799 3.96255 7.51984 3.96255 7.09202 4.18054C6.71569 4.37228 6.40973 4.67824 6.21799 5.05457C6 5.48239 6 6.04244 6 7.16255V18.7626C6 19.8827 6 20.4428 6.21799 20.8706C6.40973 21.2469 6.71569 21.5529 7.09202 21.7446C7.51984 21.9626 8.07989 21.9626 9.2 21.9626Z" stroke="#1D2D47" stroke-width="2" stroke-linecap="round" stroke-linejoin="round"/>
</svg>
