<svg width="11" height="11" viewBox="0 0 11 11" fill="none" xmlns="http://www.w3.org/2000/svg">
<path fill-rule="evenodd" clip-rule="evenodd" d="M4.63158 10.1316C4.63158 10.6063 5.02526 11 5.5 11C5.97474 11 6.36842 10.6063 6.36842 10.1316V6.36842H10.1316C10.6063 6.36842 11 5.97474 11 5.5C11 5.02526 10.6063 4.63158 10.1316 4.63158H6.36842V0.868421C6.36842 0.393684 5.97474 0 5.5 0C5.02526 0 4.63158 0.393684 4.63158 0.868421V4.63158H0.868421C0.393684 4.63158 0 5.02526 0 5.5C0 5.97474 0.393684 6.36842 0.868421 6.36842H4.63158V10.1316Z" fill="#1DBF73"/>
</svg>
