<svg width="36" height="35" viewBox="0 0 36 35" fill="none" xmlns="http://www.w3.org/2000/svg">
<path d="M18 0.0625C27.5625 0.0625 35.4375 7.9375 35.4375 17.5C35.4375 27.1328 27.5625 34.9375 18 34.9375C8.36719 34.9375 0.5625 27.1328 0.5625 17.5C0.5625 7.9375 8.36719 0.0625 18 0.0625ZM27.1406 8.35937C22.5 3.78906 15.4688 3.4375 10.5469 6.95312L28.5469 24.9531C32.0625 20.0312 31.7109 13 27.1406 8.35937ZM8.78906 26.7109C13.4297 31.2812 20.4609 31.6328 25.3828 28.1172L7.38281 10.1172C3.86719 15.0391 4.21875 22.0703 8.78906 26.7109Z" fill="white"/>
</svg>
