<svg width="70" height="71" viewBox="0 0 70 71" fill="none" xmlns="http://www.w3.org/2000/svg">
<circle opacity="0.1" cx="35" cy="35.5" r="35" fill="black"/>
<path d="M48.125 25.75C49.25 26.25 50 27.3125 50 28.5C50 42.375 41.5 50.0625 36.125 52.3125C35.375 52.625 34.5625 52.625 33.8125 52.3125C27.125 49.5 20 40.9375 20 28.5C20 27.3125 20.6875 26.25 21.8125 25.75L33.8125 20.75C34.1875 20.625 34.5625 20.5625 35 20.5625C35.375 20.5625 35.75 20.625 36.125 20.75L48.125 25.75ZM45.1875 32.875C45.5625 32.5 45.5625 31.875 45.1875 31.5L43.75 30.0625C43.375 29.6875 42.75 29.6875 42.375 30.0625L33 39.4375L28.5625 35.0625C28.1875 34.6875 27.5625 34.6875 27.1875 35.0625L25.75 36.5C25.375 36.875 25.375 37.5 25.75 37.875L32.25 44.375C32.625 44.8125 33.3125 44.8125 33.6875 44.375L45.1875 32.875Z" fill="#16ACDA"/>
</svg>
