<svg width="23" height="18" viewBox="0 0 23 18" fill="none" xmlns="http://www.w3.org/2000/svg">
<path d="M20.25 0.25C21.6172 0.25 22.75 1.38281 22.75 2.75V15.25C22.75 16.6562 21.6172 17.75 20.25 17.75H2.75C1.34375 17.75 0.25 16.6562 0.25 15.25V2.75C0.25 1.38281 1.34375 0.25 2.75 0.25H20.25ZM7.125 4C5.71875 4 4.625 5.13281 4.625 6.5C4.625 7.90625 5.71875 9 7.125 9C8.49219 9 9.625 7.90625 9.625 6.5C9.625 5.13281 8.49219 4 7.125 4ZM10.875 14C11.1875 14 11.5 13.7266 11.5 13.375C11.5 11.6562 10.0938 10.25 8.375 10.25H5.875C4.11719 10.25 2.75 11.6562 2.75 13.375C2.75 13.7266 3.02344 14 3.375 14H10.875ZM19.625 11.5C19.9375 11.5 20.25 11.2266 20.25 10.875C20.25 10.5625 19.9375 10.25 19.625 10.25H14.625C14.2734 10.25 14 10.5625 14 10.875C14 11.2266 14.2734 11.5 14.625 11.5H19.625ZM19.625 9C19.9375 9 20.25 8.72656 20.25 8.375C20.25 8.0625 19.9375 7.75 19.625 7.75H14.625C14.2734 7.75 14 8.0625 14 8.375C14 8.72656 14.2734 9 14.625 9H19.625ZM19.625 6.5C19.9375 6.5 20.25 6.22656 20.25 5.875C20.25 5.5625 19.9375 5.25 19.625 5.25H14.625C14.2734 5.25 14 5.5625 14 5.875C14 6.22656 14.2734 6.5 14.625 6.5H19.625Z" fill="white"/>
</svg>
