<svg width="24" height="19" viewBox="0 0 24 19" fill="none" xmlns="http://www.w3.org/2000/svg">
<path d="M20.7423 2.625H3.24231C2.89075 2.625 2.61731 2.9375 2.61731 3.25V15.75C2.61731 16.1016 2.89075 16.375 3.24231 16.375H20.7423C21.0548 16.375 21.3673 16.1016 21.3673 15.75V3.25C21.3673 2.9375 21.0548 2.625 20.7423 2.625ZM3.24231 0.75H20.7423C22.1095 0.75 23.2423 1.88281 23.2423 3.25V15.75C23.2423 17.1562 22.1095 18.25 20.7423 18.25H3.24231C1.83606 18.25 0.74231 17.1562 0.74231 15.75V3.25C0.74231 1.88281 1.83606 0.75 3.24231 0.75ZM8.86731 9.5C7.96887 9.5 7.14856 9.03125 6.67981 8.25C6.25012 7.50781 6.25012 6.53125 6.67981 5.75C7.14856 5.00781 7.96887 4.5 8.86731 4.5C9.72668 4.5 10.547 5.00781 11.0157 5.75C11.4454 6.53125 11.4454 7.50781 11.0157 8.25C10.547 9.03125 9.72668 9.5 8.86731 9.5ZM7.61731 10.75H10.1173C11.8361 10.75 13.2423 12.1562 13.2423 13.875C13.2423 14.2266 12.9298 14.5 12.6173 14.5H5.11731C4.76575 14.5 4.49231 14.2266 4.49231 13.875C4.49231 12.1562 5.8595 10.75 7.61731 10.75ZM15.4298 5.125H18.5548C19.0626 5.125 19.4923 5.55469 19.4923 6.0625C19.4923 6.60938 19.0626 7 18.5548 7H15.4298C14.8829 7 14.4923 6.60938 14.4923 6.0625C14.4923 5.55469 14.8829 5.125 15.4298 5.125ZM15.4298 8.875H18.5548C19.0626 8.875 19.4923 9.30469 19.4923 9.8125C19.4923 10.3594 19.0626 10.75 18.5548 10.75H15.4298C14.8829 10.75 14.4923 10.3594 14.4923 9.8125C14.4923 9.30469 14.8829 8.875 15.4298 8.875Z" fill="white"/>
</svg>
