<svg width="24" height="24" viewBox="0 0 24 24" fill="none" xmlns="http://www.w3.org/2000/svg">
<path d="M6.8075 4.40134C6.8075 4.17969 6.98717 4 7.20883 4C7.43049 4 7.61017 4.17969 7.61017 4.40134V6.80936C7.61017 7.03102 7.43049 7.2107 7.20883 7.2107C6.98717 7.2107 6.8075 7.03102 6.8075 6.80936V4.40134Z" fill="#1D2D47"/>
<path d="M13.2322 4.40134C13.2322 4.17969 13.4119 4 13.6335 4C13.8552 4 14.0349 4.17969 14.0349 4.40134V6.80936C14.0349 7.03102 13.8552 7.2107 13.6335 7.2107C13.4119 7.2107 13.2322 7.03102 13.2322 6.80936V4.40134Z" fill="#1D2D47"/>
<path fill-rule="evenodd" clip-rule="evenodd" d="M7.61304 11.6387H6.81037V12.4414H7.61304V11.6387ZM6.81037 10.8361C6.36705 10.8361 6.00769 11.1954 6.00769 11.6387V12.4414C6.00769 12.8847 6.36705 13.2441 6.81037 13.2441H7.61304C8.05636 13.2441 8.41572 12.8847 8.41572 12.4414V11.6387C8.41572 11.1954 8.05636 10.8361 7.61304 10.8361H6.81037Z" fill="#1D2D47"/>
<path fill-rule="evenodd" clip-rule="evenodd" d="M10.8253 11.6387H10.0226V12.4414H10.8253V11.6387ZM10.0226 10.8361C9.57933 10.8361 9.21997 11.1954 9.21997 11.6387V12.4414C9.21997 12.8847 9.57933 13.2441 10.0226 13.2441H10.8253C11.2686 13.2441 11.628 12.8847 11.628 12.4414V11.6387C11.628 11.1954 11.2686 10.8361 10.8253 10.8361H10.0226Z" fill="#1D2D47"/>
<path fill-rule="evenodd" clip-rule="evenodd" d="M14.0311 11.6387H13.2285V12.4414H14.0311V11.6387ZM13.2285 10.8361C12.7851 10.8361 12.4258 11.1954 12.4258 11.6387V12.4414C12.4258 12.8847 12.7851 13.2441 13.2285 13.2441H14.0311C14.4744 13.2441 14.8338 12.8847 14.8338 12.4414V11.6387C14.8338 11.1954 14.4744 10.8361 14.0311 10.8361H13.2285Z" fill="#1D2D47"/>
<path fill-rule="evenodd" clip-rule="evenodd" d="M7.61304 14.8511H6.81037V15.6538H7.61304V14.8511ZM6.81037 14.0485C6.36705 14.0485 6.00769 14.4078 6.00769 14.8511V15.6538C6.00769 16.0971 6.36705 16.4565 6.81037 16.4565H7.61304C8.05636 16.4565 8.41572 16.0971 8.41572 15.6538V14.8511C8.41572 14.4078 8.05636 14.0485 7.61304 14.0485H6.81037Z" fill="#1D2D47"/>
<path fill-rule="evenodd" clip-rule="evenodd" d="M10.8253 14.8511H10.0226V15.6538H10.8253V14.8511ZM10.0226 14.0485C9.57933 14.0485 9.21997 14.4078 9.21997 14.8511V15.6538C9.21997 16.0971 9.57933 16.4565 10.0226 16.4565H10.8253C11.2686 16.4565 11.628 16.0971 11.628 15.6538V14.8511C11.628 14.4078 11.2686 14.0485 10.8253 14.0485H10.0226Z" fill="#1D2D47"/>
<path fill-rule="evenodd" clip-rule="evenodd" d="M5.60535 6.41876H15.2375C15.6808 6.41876 16.0401 6.77812 16.0401 7.22144V13.6428C16.3173 13.6428 16.5863 13.678 16.8428 13.744V7.22144C16.8428 6.33483 16.124 5.61609 15.2375 5.61609H5.60535C4.71874 5.61609 4 6.33483 4 7.22144V16.8535C4 17.7401 4.71874 18.4589 5.60535 18.4589H13.259C13.1153 18.2105 13.0039 17.941 12.9306 17.6562H5.60535C5.16204 17.6562 4.80268 17.2969 4.80268 16.8535V7.22144C4.80268 6.77812 5.16204 6.41876 5.60535 6.41876Z" fill="#1D2D47"/>
<path fill-rule="evenodd" clip-rule="evenodd" d="M16.4416 10.0261H4.40149V9.22339H16.4416V10.0261Z" fill="#1D2D47"/>
<path fill-rule="evenodd" clip-rule="evenodd" d="M16.038 19.259C17.3679 19.259 18.446 18.1809 18.446 16.851C18.446 15.521 17.3679 14.4429 16.038 14.4429C14.7081 14.4429 13.6299 15.521 13.6299 16.851C13.6299 18.1809 14.7081 19.259 16.038 19.259ZM16.038 20.0617C17.8112 20.0617 19.2487 18.6242 19.2487 16.851C19.2487 15.0777 17.8112 13.6403 16.038 13.6403C14.2647 13.6403 12.8273 15.0777 12.8273 16.851C12.8273 18.6242 14.2647 20.0617 16.038 20.0617Z" fill="#1D2D47"/>
<path fill-rule="evenodd" clip-rule="evenodd" d="M16.0427 14.924C16.2644 14.924 16.444 15.1036 16.444 15.3253V17.0503L17.4279 17.7332C17.61 17.8596 17.6551 18.1097 17.5287 18.2918C17.4023 18.4739 17.1523 18.519 16.9702 18.3926L15.6414 17.4702V15.3253C15.6414 15.1036 15.821 14.924 16.0427 14.924Z" fill="#1D2D47"/>
</svg>
