<svg width="20" height="22" viewBox="0 0 20 22" fill="none" xmlns="http://www.w3.org/2000/svg">
<path d="M2.92969 18.7422C0.625 16.3594 0.664062 12.5703 2.96875 10.2266L11.1719 1.82812C12.8906 0.0703125 15.7031 0.0703125 17.4609 1.82812C19.1406 3.58594 19.1797 6.4375 17.4609 8.19531L10.3125 15.5C9.14062 16.6719 7.22656 16.6719 6.09375 15.4609C4.96094 14.2891 5 12.4141 6.13281 11.2812L11.7578 5.53906C11.9922 5.30469 12.3828 5.26562 12.6562 5.53906L13.5156 6.39844C13.7891 6.63281 13.7891 7.02344 13.5547 7.29688L7.92969 13C7.73438 13.1953 7.73438 13.5469 7.89062 13.7422C8.08594 13.8984 8.35938 13.8984 8.51562 13.7422L15.6641 6.4375C16.4062 5.65625 16.4062 4.36719 15.6641 3.58594C14.9219 2.84375 13.7109 2.84375 12.9688 3.58594L4.76562 11.9844C3.39844 13.3516 3.39844 15.6172 4.72656 16.9844C6.05469 18.3516 8.20312 18.3516 9.53125 16.9844L16.25 10.1094C16.4844 9.875 16.875 9.875 17.1094 10.1094L18.0078 11.0078C18.2812 11.2422 18.2812 11.6328 18.0469 11.8672L11.3281 18.7422C8.98438 21.125 5.23438 21.0859 2.92969 18.7422Z" fill="black"/>
</svg>
