<svg width="24" height="24" viewBox="0 0 24 24" fill="none" xmlns="http://www.w3.org/2000/svg">
<path d="M14.6608 14.3334C14.0419 14.9522 13.2025 15.2999 12.3273 15.2999C11.4521 15.2999 10.6128 14.9522 9.99388 14.3334C9.37502 13.7145 9.02734 12.8751 9.02734 11.9999C9.02734 11.1247 9.37502 10.2854 9.99388 9.66649C10.6128 9.04763 11.4521 8.69995 12.3273 8.69995C13.2025 8.69995 14.0419 9.04763 14.6608 9.66649" stroke="#1D2D47" stroke-width="1.78386" stroke-linecap="round" stroke-linejoin="round"/>
<mask id="path-2-outside-1_144_879" maskUnits="userSpaceOnUse" x="1" y="0" width="22" height="24" fill="black">
<rect fill="white" x="1" width="22" height="24"/>
<path d="M11.2414 1C10.7702 0.999994 10.3154 1.17277 9.96314 1.4856C9.61085 1.79844 9.38552 2.2296 9.32982 2.69744L10.9683 2.89241C10.9762 2.82559 11.0084 2.76402 11.0588 2.71934C11.1091 2.67467 11.1741 2.65 11.2414 2.65V1ZM13.4128 1H11.2414V2.65H13.4128V1ZM15.3243 2.69744C15.2686 2.2296 15.0433 1.79844 14.691 1.4856C14.3387 1.17277 13.8839 0.999994 13.4128 1V2.65C13.48 2.65 13.545 2.67467 13.5953 2.71934C13.6457 2.76402 13.6779 2.82559 13.6858 2.89241L15.3243 2.69744ZM15.4919 4.10544L15.3243 2.69744L13.6858 2.89241L13.8534 4.30041L15.4919 4.10544ZM18.8847 4.75306L17.5767 5.31393L18.2269 6.83042L19.5349 6.26942L18.8847 4.75306ZM21.3105 5.55964C21.0749 5.15162 20.6979 4.84416 20.2508 4.69548C19.8038 4.54681 19.3177 4.56738 18.8847 4.75306L19.5349 6.26942C19.5968 6.24285 19.6662 6.24003 19.7301 6.26124C19.794 6.28245 19.8479 6.32636 19.8816 6.38464L21.3105 5.55964ZM22.3963 7.44009L21.3105 5.55964L19.8816 6.38464L20.9673 8.26509L22.3963 7.44009ZM21.8819 9.94424C22.2592 9.66209 22.52 9.25136 22.6147 8.78986C22.7095 8.32835 22.6319 7.84811 22.3963 7.44009L20.9673 8.26509C21.0009 8.32339 21.012 8.39202 20.9985 8.45796C20.9849 8.5239 20.9478 8.58257 20.8939 8.62287L21.8819 9.94424ZM20.6466 10.868L21.8819 9.94424L20.8939 8.62287L19.6586 9.54673L20.6466 10.868ZM21.8819 14.0555L20.6466 13.1318L19.6586 14.4531L20.8937 15.3769L21.8819 14.0555ZM22.3963 16.5596C22.6319 16.1516 22.7095 15.6714 22.6147 15.2099C22.52 14.7484 22.2592 14.3376 21.8819 14.0555L20.8937 15.3769C20.9476 15.4172 20.9849 15.4758 20.9985 15.5418C21.012 15.6077 21.0009 15.6763 20.9673 15.7346L22.3963 16.5596ZM21.3105 18.4401L22.3963 16.5596L20.9673 15.7346L19.8816 17.6151L21.3105 18.4401ZM18.8847 19.2468C19.3177 19.4325 19.8038 19.4529 20.2508 19.3043C20.6979 19.1556 21.0749 18.8481 21.3105 18.4401L19.8816 17.6151C19.8479 17.6734 19.794 17.7173 19.7301 17.7385C19.6663 17.7598 19.5968 17.7568 19.5349 17.7303L18.8847 19.2468ZM17.5767 18.6858L18.8847 19.2468L19.5349 17.7303L18.227 17.1695L17.5767 18.6858ZM15.3243 21.3024L15.4919 19.8946L13.8534 19.6993L13.6858 21.1073L15.3243 21.3024ZM13.4128 22.9999C13.8839 22.9999 14.3387 22.8271 14.691 22.5143C15.0433 22.2014 15.2686 21.7703 15.3243 21.3024L13.6858 21.1073C13.6779 21.1742 13.6457 21.2358 13.5954 21.2805C13.545 21.3252 13.4801 21.3499 13.4128 21.3499V22.9999ZM11.2414 22.9999H13.4128V21.3499H11.2414V22.9999ZM9.32982 21.3024C9.38552 21.7703 9.61085 22.2014 9.96314 22.5143C10.3154 22.8271 10.7702 22.9999 11.2414 22.9999V21.3499C11.174 21.3499 11.1091 21.3252 11.0587 21.2805C11.0084 21.2358 10.9762 21.1742 10.9683 21.1073L9.32982 21.3024ZM9.19068 20.1331L9.32982 21.3024L10.9683 21.1073L10.8291 19.938L9.19068 20.1331ZM6.1984 17.2675L5.11916 17.7303L5.7694 19.2468L6.84864 18.784L6.1984 17.2675ZM5.11916 17.7303C5.05731 17.7568 4.98774 17.7598 4.92389 17.7385C4.86003 17.7173 4.80618 17.6734 4.77252 17.6151L3.34376 18.4401C3.57932 18.8481 3.9562 19.1556 4.40327 19.3043C4.85033 19.4529 5.33639 19.4325 5.7694 19.2468L5.11916 17.7303ZM4.77252 17.6151L3.68696 15.7346L2.25806 16.5596L3.34376 18.4401L4.77252 17.6151ZM3.68696 15.7346C3.65329 15.6764 3.64217 15.6077 3.6557 15.5418C3.66923 15.4759 3.70662 15.4172 3.76052 15.3769L2.77217 14.0555C2.39486 14.3376 2.13413 14.7484 2.03935 15.2099C1.94458 15.6714 2.02235 16.1516 2.25792 16.5596L3.68696 15.7346ZM3.76052 15.3769L4.60353 14.7464L3.61546 13.4252L2.77217 14.0555L3.76052 15.3769ZM2.77217 9.94424L3.61546 10.5748L4.60353 9.25344L3.76038 8.62287L2.77217 9.94424ZM2.25792 7.44009C2.02235 7.84811 1.94458 8.32835 2.03935 8.78986C2.13413 9.25136 2.39486 9.66209 2.77217 9.94424L3.76038 8.62287C3.70646 8.58257 3.66918 8.5239 3.65563 8.45796C3.64207 8.39202 3.6533 8.32339 3.68696 8.26509L2.25792 7.44009ZM3.34376 5.55964L2.25792 7.44009L3.68696 8.26509L4.77252 6.38464L3.34376 5.55964ZM5.7694 4.75293C5.33639 4.56725 4.85033 4.54681 4.40327 4.69548C3.9562 4.84416 3.57932 5.15162 3.34376 5.55964L4.77252 6.38464C4.80618 6.32636 4.86003 6.28245 4.92389 6.26122C4.98774 6.23998 5.05731 6.2429 5.11916 6.26942L5.7694 4.75293ZM6.84864 5.21575L5.7694 4.75293L5.11902 6.26955L6.1984 6.73224L6.84864 5.21575ZM9.32982 2.69744L9.19068 3.8666L10.8291 4.06171L10.9683 2.89241L9.32982 2.69744ZM9.08865 6.4857C9.92438 6.01463 10.696 5.17918 10.8291 4.06171L9.19068 3.8666C9.13815 4.30784 8.80994 4.74866 8.27836 5.04841L9.08865 6.4857ZM6.1984 6.73224C7.19995 7.16179 8.2686 6.94812 9.08865 6.4857L8.27836 5.04841C7.76892 5.33552 7.24972 5.38776 6.84864 5.21575L6.19826 6.73238L6.1984 6.73224ZM5.86455 11.9999C5.86455 11.0236 5.5142 9.93434 4.60367 9.2533L3.61546 10.5748C3.98905 10.8542 4.21455 11.3723 4.21455 11.9997L5.86455 11.9999ZM9.08865 17.514C8.26846 17.0516 7.19995 16.8379 6.1984 17.2675L6.84864 18.784C7.24972 18.612 7.76892 18.6642 8.27836 18.9515L9.08865 17.514ZM4.60353 14.7464C5.5142 14.0653 5.86455 12.9761 5.86455 11.9999H4.21468C4.21468 12.6273 3.98918 13.1457 3.6156 13.4251L4.60353 14.7464ZM15.4218 17.438C14.6606 17.8915 13.9757 18.673 13.8534 19.6993L15.4919 19.8946C15.5373 19.5144 15.8106 19.1269 16.2663 18.8553L15.4218 17.438ZM18.227 17.1695C17.2516 16.7512 16.2101 16.9683 15.4218 17.438L16.2663 18.8553C16.7313 18.5783 17.2112 18.5292 17.5767 18.6858L18.227 17.1695ZM10.8291 19.9379C10.6962 18.8204 9.92438 17.9851 9.08865 17.5138L8.27836 18.9513C8.81007 19.2509 9.13815 19.6919 9.19068 20.1331L10.8291 19.9379ZM18.5147 11.9999C18.5147 12.8784 18.8444 13.8443 19.6587 14.4531L20.6466 13.1318C20.3535 12.9126 20.1647 12.5042 20.1647 11.9999H18.5147ZM19.6587 9.54659C18.8443 10.1554 18.5147 11.1214 18.5147 11.9999H20.1647C20.1647 11.4955 20.3536 11.0871 20.6468 10.8678L19.6587 9.54659ZM15.4218 6.56188C16.2101 7.03158 17.2516 7.24855 18.2269 6.83042L17.5767 5.31393C17.2112 5.47068 16.7313 5.42145 16.2663 5.14439L15.4218 6.56188ZM13.8534 4.30055C13.9758 5.32685 14.6606 6.1084 15.4218 6.56188L16.2663 5.14439C15.8106 4.87296 15.5371 4.48563 15.4919 4.10544L13.8534 4.30041V4.30055Z"/>
</mask>
<path d="M11.2414 1C10.7702 0.999994 10.3154 1.17277 9.96314 1.4856C9.61085 1.79844 9.38552 2.2296 9.32982 2.69744L10.9683 2.89241C10.9762 2.82559 11.0084 2.76402 11.0588 2.71934C11.1091 2.67467 11.1741 2.65 11.2414 2.65V1ZM13.4128 1H11.2414V2.65H13.4128V1ZM15.3243 2.69744C15.2686 2.2296 15.0433 1.79844 14.691 1.4856C14.3387 1.17277 13.8839 0.999994 13.4128 1V2.65C13.48 2.65 13.545 2.67467 13.5953 2.71934C13.6457 2.76402 13.6779 2.82559 13.6858 2.89241L15.3243 2.69744ZM15.4919 4.10544L15.3243 2.69744L13.6858 2.89241L13.8534 4.30041L15.4919 4.10544ZM18.8847 4.75306L17.5767 5.31393L18.2269 6.83042L19.5349 6.26942L18.8847 4.75306ZM21.3105 5.55964C21.0749 5.15162 20.6979 4.84416 20.2508 4.69548C19.8038 4.54681 19.3177 4.56738 18.8847 4.75306L19.5349 6.26942C19.5968 6.24285 19.6662 6.24003 19.7301 6.26124C19.794 6.28245 19.8479 6.32636 19.8816 6.38464L21.3105 5.55964ZM22.3963 7.44009L21.3105 5.55964L19.8816 6.38464L20.9673 8.26509L22.3963 7.44009ZM21.8819 9.94424C22.2592 9.66209 22.52 9.25136 22.6147 8.78986C22.7095 8.32835 22.6319 7.84811 22.3963 7.44009L20.9673 8.26509C21.0009 8.32339 21.012 8.39202 20.9985 8.45796C20.9849 8.5239 20.9478 8.58257 20.8939 8.62287L21.8819 9.94424ZM20.6466 10.868L21.8819 9.94424L20.8939 8.62287L19.6586 9.54673L20.6466 10.868ZM21.8819 14.0555L20.6466 13.1318L19.6586 14.4531L20.8937 15.3769L21.8819 14.0555ZM22.3963 16.5596C22.6319 16.1516 22.7095 15.6714 22.6147 15.2099C22.52 14.7484 22.2592 14.3376 21.8819 14.0555L20.8937 15.3769C20.9476 15.4172 20.9849 15.4758 20.9985 15.5418C21.012 15.6077 21.0009 15.6763 20.9673 15.7346L22.3963 16.5596ZM21.3105 18.4401L22.3963 16.5596L20.9673 15.7346L19.8816 17.6151L21.3105 18.4401ZM18.8847 19.2468C19.3177 19.4325 19.8038 19.4529 20.2508 19.3043C20.6979 19.1556 21.0749 18.8481 21.3105 18.4401L19.8816 17.6151C19.8479 17.6734 19.794 17.7173 19.7301 17.7385C19.6663 17.7598 19.5968 17.7568 19.5349 17.7303L18.8847 19.2468ZM17.5767 18.6858L18.8847 19.2468L19.5349 17.7303L18.227 17.1695L17.5767 18.6858ZM15.3243 21.3024L15.4919 19.8946L13.8534 19.6993L13.6858 21.1073L15.3243 21.3024ZM13.4128 22.9999C13.8839 22.9999 14.3387 22.8271 14.691 22.5143C15.0433 22.2014 15.2686 21.7703 15.3243 21.3024L13.6858 21.1073C13.6779 21.1742 13.6457 21.2358 13.5954 21.2805C13.545 21.3252 13.4801 21.3499 13.4128 21.3499V22.9999ZM11.2414 22.9999H13.4128V21.3499H11.2414V22.9999ZM9.32982 21.3024C9.38552 21.7703 9.61085 22.2014 9.96314 22.5143C10.3154 22.8271 10.7702 22.9999 11.2414 22.9999V21.3499C11.174 21.3499 11.1091 21.3252 11.0587 21.2805C11.0084 21.2358 10.9762 21.1742 10.9683 21.1073L9.32982 21.3024ZM9.19068 20.1331L9.32982 21.3024L10.9683 21.1073L10.8291 19.938L9.19068 20.1331ZM6.1984 17.2675L5.11916 17.7303L5.7694 19.2468L6.84864 18.784L6.1984 17.2675ZM5.11916 17.7303C5.05731 17.7568 4.98774 17.7598 4.92389 17.7385C4.86003 17.7173 4.80618 17.6734 4.77252 17.6151L3.34376 18.4401C3.57932 18.8481 3.9562 19.1556 4.40327 19.3043C4.85033 19.4529 5.33639 19.4325 5.7694 19.2468L5.11916 17.7303ZM4.77252 17.6151L3.68696 15.7346L2.25806 16.5596L3.34376 18.4401L4.77252 17.6151ZM3.68696 15.7346C3.65329 15.6764 3.64217 15.6077 3.6557 15.5418C3.66923 15.4759 3.70662 15.4172 3.76052 15.3769L2.77217 14.0555C2.39486 14.3376 2.13413 14.7484 2.03935 15.2099C1.94458 15.6714 2.02235 16.1516 2.25792 16.5596L3.68696 15.7346ZM3.76052 15.3769L4.60353 14.7464L3.61546 13.4252L2.77217 14.0555L3.76052 15.3769ZM2.77217 9.94424L3.61546 10.5748L4.60353 9.25344L3.76038 8.62287L2.77217 9.94424ZM2.25792 7.44009C2.02235 7.84811 1.94458 8.32835 2.03935 8.78986C2.13413 9.25136 2.39486 9.66209 2.77217 9.94424L3.76038 8.62287C3.70646 8.58257 3.66918 8.5239 3.65563 8.45796C3.64207 8.39202 3.6533 8.32339 3.68696 8.26509L2.25792 7.44009ZM3.34376 5.55964L2.25792 7.44009L3.68696 8.26509L4.77252 6.38464L3.34376 5.55964ZM5.7694 4.75293C5.33639 4.56725 4.85033 4.54681 4.40327 4.69548C3.9562 4.84416 3.57932 5.15162 3.34376 5.55964L4.77252 6.38464C4.80618 6.32636 4.86003 6.28245 4.92389 6.26122C4.98774 6.23998 5.05731 6.2429 5.11916 6.26942L5.7694 4.75293ZM6.84864 5.21575L5.7694 4.75293L5.11902 6.26955L6.1984 6.73224L6.84864 5.21575ZM9.32982 2.69744L9.19068 3.8666L10.8291 4.06171L10.9683 2.89241L9.32982 2.69744ZM9.08865 6.4857C9.92438 6.01463 10.696 5.17918 10.8291 4.06171L9.19068 3.8666C9.13815 4.30784 8.80994 4.74866 8.27836 5.04841L9.08865 6.4857ZM6.1984 6.73224C7.19995 7.16179 8.2686 6.94812 9.08865 6.4857L8.27836 5.04841C7.76892 5.33552 7.24972 5.38776 6.84864 5.21575L6.19826 6.73238L6.1984 6.73224ZM5.86455 11.9999C5.86455 11.0236 5.5142 9.93434 4.60367 9.2533L3.61546 10.5748C3.98905 10.8542 4.21455 11.3723 4.21455 11.9997L5.86455 11.9999ZM9.08865 17.514C8.26846 17.0516 7.19995 16.8379 6.1984 17.2675L6.84864 18.784C7.24972 18.612 7.76892 18.6642 8.27836 18.9515L9.08865 17.514ZM4.60353 14.7464C5.5142 14.0653 5.86455 12.9761 5.86455 11.9999H4.21468C4.21468 12.6273 3.98918 13.1457 3.6156 13.4251L4.60353 14.7464ZM15.4218 17.438C14.6606 17.8915 13.9757 18.673 13.8534 19.6993L15.4919 19.8946C15.5373 19.5144 15.8106 19.1269 16.2663 18.8553L15.4218 17.438ZM18.227 17.1695C17.2516 16.7512 16.2101 16.9683 15.4218 17.438L16.2663 18.8553C16.7313 18.5783 17.2112 18.5292 17.5767 18.6858L18.227 17.1695ZM10.8291 19.9379C10.6962 18.8204 9.92438 17.9851 9.08865 17.5138L8.27836 18.9513C8.81007 19.2509 9.13815 19.6919 9.19068 20.1331L10.8291 19.9379ZM18.5147 11.9999C18.5147 12.8784 18.8444 13.8443 19.6587 14.4531L20.6466 13.1318C20.3535 12.9126 20.1647 12.5042 20.1647 11.9999H18.5147ZM19.6587 9.54659C18.8443 10.1554 18.5147 11.1214 18.5147 11.9999H20.1647C20.1647 11.4955 20.3536 11.0871 20.6468 10.8678L19.6587 9.54659ZM15.4218 6.56188C16.2101 7.03158 17.2516 7.24855 18.2269 6.83042L17.5767 5.31393C17.2112 5.47068 16.7313 5.42145 16.2663 5.14439L15.4218 6.56188ZM13.8534 4.30055C13.9758 5.32685 14.6606 6.1084 15.4218 6.56188L16.2663 5.14439C15.8106 4.87296 15.5371 4.48563 15.4919 4.10544L13.8534 4.30041V4.30055Z" fill="#1D2D47"/>
<path d="M22.3963 7.44009L22.4788 7.58298L22.3138 7.29719L22.3963 7.44009ZM20.8939 8.62287L21.026 8.52404L20.7617 8.72168L20.8939 8.62287ZM22.3963 16.5596L22.3138 16.7025L22.4788 16.4168L22.3963 16.5596ZM5.11916 17.7303L5.27081 17.6653L4.96751 17.7953L5.11916 17.7303ZM3.34376 18.4401L3.26125 18.2972L3.42626 18.583L3.34376 18.4401ZM3.68696 8.26509L3.60446 8.40799L3.76946 8.1222L3.68696 8.26509ZM3.34376 5.55964L3.42626 5.41675L3.26125 5.70253L3.34376 5.55964ZM18.2269 6.83042L18.0753 6.89544L18.3786 6.7654L18.2269 6.83042ZM10.1687 2.63109L9.34949 2.53346L9.31044 2.86114L10.1297 2.95877L10.1687 2.63109ZM14.4857 2.63109L13.6664 2.72871L13.7055 3.05639L14.5247 2.95877L14.4857 2.63109ZM19.3617 5.4462L19.0365 4.68802L18.7332 4.8181L19.0584 5.57628L19.3617 5.4462ZM20.6787 6.11503L21.3931 5.70253L21.2281 5.41675L20.5137 5.82925L20.6787 6.11503ZM21.7644 7.99548L22.4788 7.58298L22.3138 7.2972L21.5994 7.7097L21.7644 7.99548ZM21.5202 9.18473L21.026 8.52404L20.7617 8.7217L21.2559 9.38238L21.5202 9.18473ZM21.5202 14.815L22.0142 14.1543L21.7499 13.9567L21.2559 14.6174L21.5202 14.815ZM21.5994 16.29L22.3138 16.7025L22.4788 16.4168L21.7644 16.0043L21.5994 16.29ZM20.6787 17.8847L19.9642 17.4722L19.7992 17.758L20.5137 18.1705L20.6787 17.8847ZM19.3617 18.5536L19.6867 17.7953L19.3834 17.6653L19.0584 18.4236L19.3617 18.5536ZM14.4857 21.3688L15.3049 21.4664L15.3439 21.1387L14.5247 21.0411L14.4857 21.3688ZM10.1297 21.0411L9.31044 21.1387L9.34949 21.4664L10.1687 21.3688L10.1297 21.0411ZM5.59599 18.4236L5.27081 17.6653L4.96752 17.7954L5.2927 18.5537L5.59599 18.4236ZM3.97571 17.8847L3.26126 18.2972L3.42626 18.583L4.14071 18.1705L3.97571 17.8847ZM3.05501 16.29L3.76946 15.8775L3.60446 15.5918L2.89001 16.0043L3.05501 16.29ZM3.13422 14.815L3.62839 15.4757L3.89265 15.278L3.39848 14.6174L3.13422 14.815ZM3.1342 9.18476L2.64016 9.84558L2.90446 10.0432L3.3985 9.38235L3.1342 9.18476ZM2.89001 7.99548L3.60446 8.40798L3.76946 8.1222L3.05501 7.7097L2.89001 7.99548ZM4.14071 5.82925L3.42626 5.41675L3.26126 5.70253L3.97571 6.11503L4.14071 5.82925ZM5.29271 5.4462L4.96752 6.20438L5.2708 6.33446L5.59599 5.57628L5.29271 5.4462ZM6.37195 5.90903L6.04676 6.6672L6.35004 6.79728L6.67523 6.0391L6.37195 5.90903ZM6.37195 18.091L6.69713 18.8492L7.00041 18.7191L6.67523 17.9609L6.37195 18.091ZM4.24164 13.9871L3.7476 13.3264L3.48332 13.524L3.97736 14.1847L4.24164 13.9871ZM14.6531 19.9608L15.4724 20.0584L15.5114 19.7307L14.6922 19.6331L14.6531 19.9608ZM20.2847 10.1086L19.7907 9.44792L19.5264 9.64554L20.0205 10.3062L20.2847 10.1086ZM17.7502 6.13726L18.0753 6.89543L18.3786 6.7654L18.0535 6.00722L17.7502 6.13726ZM14.6532 4.03922L13.8339 4.13671L13.8729 4.4644L14.6922 4.36691L14.6532 4.03922ZM9.31033 2.86128L10.9488 3.05626L10.9878 2.72857L9.34932 2.53359L9.31033 2.86128ZM11.4064 2.65V1H11.0763V2.65H11.4064ZM13.5778 2.65V1H13.2478V2.65H13.5778ZM13.7053 3.05626L15.3438 2.86128L15.3048 2.53359L13.6663 2.72857L13.7053 3.05626ZM13.8729 4.46426L15.5114 4.26928L15.4724 3.9416L13.8339 4.13657L13.8729 4.46426ZM17.425 5.37895L18.0753 6.89544L18.3786 6.76539L17.7283 5.2489L17.425 5.37895ZM19.6866 6.20439L19.0363 4.68804L18.7331 4.81809L19.3833 6.33444L19.6866 6.20439ZM19.9641 6.52753L21.393 5.70253L21.228 5.41675L19.7991 6.24175L19.9641 6.52753ZM21.0498 8.40799L22.4788 7.58299L22.3138 7.29719L20.8848 8.12219L21.0498 8.40799ZM20.7617 8.72168L21.7498 10.0431L22.0141 9.84543L21.026 8.52406L20.7617 8.72168ZM21.0259 15.4757L22.0141 14.1543L21.7498 13.9567L20.7616 15.2781L21.0259 15.4757ZM20.8848 15.8775L22.3138 16.7025L22.4788 16.4167L21.0498 15.5917L20.8848 15.8775ZM19.7991 17.758L21.228 18.583L21.393 18.2972L19.9641 17.4722L19.7991 17.758ZM19.3833 17.6653L18.7331 19.1818L19.0364 19.3118L19.6866 17.7953L19.3833 17.6653ZM18.0754 17.1044L17.425 18.6208L17.7283 18.7508L18.3787 17.2345L18.0754 17.1044ZM15.5114 19.7307L13.873 19.5355L13.8339 19.8632L15.4724 20.0584L15.5114 19.7307ZM13.6663 21.2712L15.3048 21.4663L15.3438 21.1386L13.7053 20.9435L13.6663 21.2712ZM13.2478 21.3499V22.9999H13.5778V21.3499H13.2478ZM11.0763 21.3499V22.9999H11.4064V21.3499H11.0763ZM10.9488 20.9435L9.31031 21.1386L9.34934 21.4663L10.9878 21.2712L10.9488 20.9435ZM4.96751 17.7953L5.61775 19.3118L5.92105 19.1818L5.27081 17.6653L4.96751 17.7953ZM7.00028 18.719L6.35005 17.2025L6.04675 17.3325L6.69699 18.849L7.00028 18.719ZM4.69001 17.4722L3.26125 18.2972L3.42627 18.583L4.85503 17.758L4.69001 17.4722ZM3.89265 15.278L2.9043 13.9567L2.64004 14.1543L3.62839 15.4757L3.89265 15.278ZM3.62825 8.52405L2.64004 9.84542L2.90431 10.0431L3.89252 8.72169L3.62825 8.52405ZM3.76946 8.12219L2.34042 7.29719L2.17543 7.58299L3.60446 8.40799L3.76946 8.12219ZM4.85503 6.24175L3.42627 5.41675L3.26125 5.70253L4.69001 6.52753L4.85503 6.24175ZM9.17116 4.03044L10.8096 4.22556L10.8486 3.89787L9.21019 3.70276L9.17116 4.03044ZM8.13463 5.12945L8.94492 6.56673L9.23238 6.40467L8.42209 4.96738L8.13463 5.12945ZM16.408 18.7709L15.5635 17.3535L15.28 17.5225L16.1245 18.9398L16.408 18.7709ZM20.1647 11.8349H18.5147V12.1649H20.1647V11.8349ZM16.1245 5.05994L15.28 6.47743L15.5635 6.64633L16.408 5.22884L16.1245 5.05994ZM22.3963 7.44009L22.6821 7.27509L22.6821 7.27507L22.3963 7.44009ZM20.8939 8.62287L20.6963 8.35851L20.6962 8.3586L20.8939 8.62287ZM22.3963 16.5596L22.6821 16.7247L22.6821 16.7247L22.3963 16.5596ZM5.11916 17.7303L5.24919 18.0336L5.24922 18.0336L5.11916 17.7303ZM3.34376 18.4401L3.62955 18.2751L3.62955 18.2751L3.34376 18.4401ZM3.68696 15.7346L3.97276 15.5697L3.97271 15.5696L3.68696 15.7346ZM3.76052 15.3769L3.56289 15.1126L3.56288 15.1126L3.76052 15.3769ZM3.68696 8.26509L3.40116 8.1001L3.40116 8.10012L3.68696 8.26509ZM3.34376 5.55964L3.62954 5.72466L3.62955 5.72464L3.34376 5.55964ZM5.11916 6.26942L4.98913 6.57272L5.29242 6.70274L5.42246 6.39946L5.11916 6.26942ZM3.61546 13.4252L3.87973 13.2276L3.68215 12.9634L3.41789 13.1609L3.61546 13.4252ZM15.4919 19.8946L15.1642 19.8555L15.1642 19.8556L15.4919 19.8946ZM19.6586 9.54673L19.4609 9.28246L19.1967 9.4801L19.3943 9.74436L19.6586 9.54673ZM18.2269 6.83042L18.3569 7.13372L18.357 7.1337L18.2269 6.83042ZM13.8534 4.30055H13.5234V4.32016L13.5258 4.33962L13.8534 4.30055ZM11.2414 1L11.2413 1.33H11.2414V1ZM9.32982 2.69744L9.00214 2.65843L9.00214 2.65844L9.32982 2.69744ZM10.9683 2.89241L10.6406 2.85331L10.6406 2.85342L10.9683 2.89241ZM11.2414 2.65L11.2413 2.98H11.2414V2.65ZM13.4128 1V1.33H13.4128L13.4128 1ZM13.4128 2.65V2.98H13.4128L13.4128 2.65ZM15.3243 2.69744L15.652 2.65843V2.65843L15.3243 2.69744ZM13.6858 2.89241L14.0135 2.8534L14.0135 2.85331L13.6858 2.89241ZM15.4919 4.10544L15.8196 4.06645L15.8196 4.06643L15.4919 4.10544ZM13.8534 4.30041H14.1834V4.28084L14.1811 4.26141L13.8534 4.30041ZM18.8847 4.75306L19.0147 5.05636L19.0148 5.05635L18.8847 4.75306ZM17.5767 5.31393L17.4466 5.01063L17.4466 5.01064L17.5767 5.31393ZM19.5349 6.26942L19.665 6.5727L19.6652 6.57263L19.5349 6.26942ZM21.3105 5.55964L21.0247 5.72464L21.0247 5.72466L21.3105 5.55964ZM19.8816 6.38464L20.1674 6.21964L20.1673 6.21953L19.8816 6.38464ZM20.9673 8.26509L21.2531 8.10012L21.2531 8.10009L20.9673 8.26509ZM21.8819 9.94424L22.0796 10.2085L22.0796 10.2085L21.8819 9.94424ZM20.6466 10.868L20.3824 11.0656L20.58 11.3299L20.8443 11.1322L20.6466 10.868ZM21.8819 14.0555L22.0796 13.7912L22.0796 13.7912L21.8819 14.0555ZM20.6466 13.1318L20.8443 12.8675L20.8442 12.8675L20.6466 13.1318ZM19.6586 14.4531L19.3943 14.2555L19.1967 14.5198L19.4609 14.7174L19.6586 14.4531ZM20.8937 15.3769L20.6961 15.6411L20.6962 15.6412L20.8937 15.3769ZM20.9673 15.7346L21.2531 15.8996L21.2531 15.8996L20.9673 15.7346ZM21.3105 18.4401L21.0247 18.2751L21.0247 18.2751L21.3105 18.4401ZM19.8816 17.6151L20.1673 17.7802L20.1674 17.7801L19.8816 17.6151ZM18.8847 19.2468L18.7546 19.5501L18.7546 19.5501L18.8847 19.2468ZM19.5349 17.7303L19.4049 18.0336L19.4049 18.0336L19.5349 17.7303ZM17.5767 18.6858L17.7067 18.3825L17.7066 18.3825L17.5767 18.6858ZM18.227 17.1695L18.3571 16.8662L18.3571 16.8662L18.227 17.1695ZM15.3243 21.3024L14.9966 21.2634V21.2634L15.3243 21.3024ZM13.8534 19.6993L13.5258 19.6603L13.5258 19.6603L13.8534 19.6993ZM13.6858 21.1073L13.3581 21.0683L13.3581 21.0684L13.6858 21.1073ZM13.4128 22.9999L13.4128 22.6699H13.4128V22.9999ZM13.4128 21.3499V21.6799H13.4128L13.4128 21.3499ZM11.2414 22.9999V22.6699H11.2413L11.2414 22.9999ZM11.2414 21.3499L11.2413 21.6799H11.2414V21.3499ZM9.32982 21.3024L9.00214 21.3414L9.00214 21.3414L9.32982 21.3024ZM10.9683 21.1073L11.296 21.0684L11.296 21.0683L10.9683 21.1073ZM10.8291 19.938L11.1568 19.899L11.1178 19.5713L10.7901 19.6103L10.8291 19.938ZM6.1984 17.2675L6.32846 17.5708L6.32847 17.5708L6.1984 17.2675ZM5.7694 19.2468L5.89946 19.5501L5.89946 19.5501L5.7694 19.2468ZM6.84864 18.784L6.9787 19.0873L6.9787 19.0873L6.84864 18.784ZM4.77252 17.6151L4.48673 17.7801L4.48675 17.7801L4.77252 17.6151ZM2.25806 16.5596L2.09306 16.2739L1.80727 16.4389L1.97227 16.7246L2.25806 16.5596ZM2.77217 14.0555L2.57461 13.7912L2.57454 13.7912L2.77217 14.0555ZM2.25792 16.5596L1.97214 16.7247L2.13713 17.0104L2.42291 16.8454L2.25792 16.5596ZM4.60353 14.7464L4.80117 15.0107L4.8012 15.0107L4.60353 14.7464ZM2.77217 9.94424L2.57454 10.2085L2.57455 10.2085L2.77217 9.94424ZM4.60353 9.25344L4.86782 9.45106L5.06543 9.1868L4.80118 8.98917L4.60353 9.25344ZM3.76038 8.62287L3.95803 8.3586L3.95791 8.35851L3.76038 8.62287ZM2.25792 7.44009L1.97214 7.27507L1.97214 7.27509L2.25792 7.44009ZM4.77252 6.38464L4.48675 6.21961L4.48673 6.21965L4.77252 6.38464ZM5.7694 4.75293L5.89946 4.44964L5.89946 4.44964L5.7694 4.75293ZM6.84864 5.21575L6.9787 4.91247L6.9787 4.91246L6.84864 5.21575ZM5.11902 6.26955L4.81573 6.13949L4.68566 6.44283L4.98901 6.57286L5.11902 6.26955ZM9.19068 3.8666L9.51836 3.90561L9.51836 3.9056L9.19068 3.8666ZM10.8291 4.06171L11.1568 4.10074L11.1568 4.10071L10.8291 4.06171ZM9.08865 6.4857L8.92661 6.19823L8.92656 6.19825L9.08865 6.4857ZM8.27836 5.04841L8.44038 5.3359L8.44045 5.33586L8.27836 5.04841ZM6.19826 6.73238L5.89497 6.60232L6.43161 6.96572L6.19826 6.73238ZM4.60367 9.2533L4.80133 8.98905L4.53704 8.79137L4.33939 9.05568L4.60367 9.2533ZM4.21455 11.9997H3.88455V12.3297L4.21452 12.3297L4.21455 11.9997ZM9.08865 17.514L9.37612 17.6761L9.53816 17.3886L9.25072 17.2266L9.08865 17.514ZM8.27836 18.9515L8.11628 19.2389L8.40377 19.401L8.56583 19.1135L8.27836 18.9515ZM4.21468 11.9999V11.6699H3.88468V11.9999H4.21468ZM3.6156 13.4251L3.41796 13.1608L3.15373 13.3584L3.3513 13.6227L3.6156 13.4251ZM15.4218 17.438L15.5907 17.7215L15.5907 17.7215L15.4218 17.438ZM16.2663 18.8553L16.0974 18.5718L16.0974 18.5719L16.2663 18.8553ZM10.8291 19.9379L10.8682 20.2656L11.1958 20.2265L11.1568 19.8989L10.8291 19.9379ZM9.08865 17.5138L9.25076 17.2263L8.96325 17.0642L8.80117 17.3517L9.08865 17.5138ZM8.27836 18.9513L7.99088 18.7893L7.82882 19.0768L8.11636 19.2388L8.27836 18.9513ZM19.6587 14.4531L19.4611 14.7174L19.7254 14.9151L19.923 14.6507L19.6587 14.4531ZM19.6587 9.54659L19.923 9.34896L19.7254 9.08473L19.4611 9.28229L19.6587 9.54659ZM20.6468 10.8678L20.8444 11.1321L21.1086 10.9344L20.911 10.6702L20.6468 10.8678ZM15.4218 6.56188L15.5907 6.27839L15.5907 6.27837L15.4218 6.56188ZM16.2663 5.14439L16.4352 4.86089L16.4352 4.86087L16.2663 5.14439ZM11.2414 0.67C10.6894 0.669993 10.1567 0.872388 9.74402 1.23885L10.1823 1.73236C10.4742 1.47315 10.851 1.33 11.2413 1.33L11.2414 0.67ZM9.74402 1.23885C9.33134 1.60531 9.06738 2.11039 9.00214 2.65843L9.65751 2.73645C9.70366 2.34881 9.89036 1.99156 10.1823 1.73236L9.74402 1.23885ZM11.2959 2.93152C11.2944 2.94488 11.2879 2.9572 11.2779 2.96613L10.8397 2.47255C10.729 2.57084 10.6581 2.70631 10.6406 2.85331L11.2959 2.93152ZM11.2779 2.96613C11.2678 2.97507 11.2548 2.98 11.2413 2.98L11.2414 2.32C11.0933 2.31999 10.9504 2.37427 10.8397 2.47255L11.2779 2.96613ZM13.4128 0.67H11.2414V1.33H13.4128V0.67ZM11.2414 2.98H13.4128V2.32H11.2414V2.98ZM15.652 2.65843C15.5867 2.11039 15.3228 1.60531 14.9101 1.23885L14.4718 1.73236C14.7637 1.99156 14.9504 2.34881 14.9966 2.73645L15.652 2.65843ZM14.9101 1.23885C14.4974 0.872388 13.9647 0.669993 13.4127 0.67L13.4128 1.33C13.8031 1.33 14.1799 1.47315 14.4718 1.73236L14.9101 1.23885ZM13.4128 2.98C13.3993 2.98 13.3863 2.97507 13.3763 2.96613L13.8144 2.47255C13.7037 2.37427 13.5608 2.31999 13.4127 2.32L13.4128 2.98ZM13.3763 2.96613C13.3662 2.9572 13.3597 2.94488 13.3582 2.93152L14.0135 2.85331C13.996 2.70631 13.9251 2.57084 13.8144 2.47255L13.3763 2.96613ZM15.8196 4.06643L15.652 2.65843L14.9966 2.73645L15.1642 4.14445L15.8196 4.06643ZM13.3581 2.93142L13.5258 4.33942L14.1811 4.26141L14.0135 2.8534L13.3581 2.93142ZM18.7547 4.44977L17.4466 5.01063L17.7067 5.61722L19.0147 5.05636L18.7547 4.44977ZM18.357 7.1337L19.665 6.5727L19.4049 5.96613L18.0968 6.52713L18.357 7.1337ZM21.5963 5.39464C21.3203 4.91668 20.8787 4.55651 20.355 4.38234L20.1467 5.00862C20.5171 5.13181 20.8295 5.38656 21.0247 5.72464L21.5963 5.39464ZM20.355 4.38234C19.8312 4.20816 19.2618 4.23229 18.7546 4.44977L19.0148 5.05635C19.3736 4.90248 19.7763 4.88546 20.1467 5.00862L20.355 4.38234ZM19.6652 6.57263C19.6524 6.57813 19.6385 6.57852 19.6261 6.57443L19.8341 5.94805C19.694 5.90154 19.5412 5.90756 19.4047 5.9662L19.6652 6.57263ZM19.6261 6.57443C19.6134 6.57019 19.6026 6.5614 19.5959 6.54975L20.1673 6.21953C20.0932 6.09131 19.9747 5.99471 19.8341 5.94805L19.6261 6.57443ZM22.6821 7.27507L21.5963 5.39462L21.0247 5.72466L22.1105 7.60511L22.6821 7.27507ZM19.5958 6.54964L20.6815 8.43009L21.2531 8.10009L20.1674 6.21964L19.5958 6.54964ZM22.0796 10.2085C22.5215 9.878 22.827 9.39686 22.938 8.85624L22.2915 8.72347C22.213 9.10586 21.9969 9.44618 21.6843 9.67997L22.0796 10.2085ZM22.938 8.85624C23.049 8.31568 22.9581 7.75311 22.6821 7.27509L22.1105 7.6051C22.3057 7.94311 22.37 8.34101 22.2915 8.72347L22.938 8.85624ZM20.6815 8.43007C20.6747 8.41841 20.6725 8.40468 20.6752 8.3915L21.3217 8.52442C21.3515 8.37935 21.3271 8.22838 21.2531 8.10012L20.6815 8.43007ZM20.6752 8.3915C20.6779 8.37871 20.6852 8.36682 20.6963 8.35851L21.0914 8.88722C21.2103 8.79833 21.292 8.66909 21.3217 8.52442L20.6752 8.3915ZM20.8443 11.1322L22.0796 10.2085L21.6843 9.67996L20.449 10.6037L20.8443 11.1322ZM20.6962 8.3586L19.4609 9.28246L19.8562 9.811L21.0915 8.88714L20.6962 8.3586ZM19.3943 9.74436L20.3824 11.0656L20.9109 10.6703L19.9228 9.34909L19.3943 9.74436ZM22.0796 13.7912L20.8443 12.8675L20.449 13.3961L21.6843 14.3198L22.0796 13.7912ZM20.3823 12.9341L19.3943 14.2555L19.9228 14.6508L20.9109 13.3294L20.3823 12.9341ZM19.4609 14.7174L20.6961 15.6411L21.0914 15.1126L19.8562 14.1889L19.4609 14.7174ZM22.6821 16.7247C22.9581 16.2466 23.049 15.6841 22.938 15.1435L22.2915 15.2763C22.37 15.6587 22.3057 16.0566 22.1105 16.3946L22.6821 16.7247ZM22.938 15.1435C22.827 14.6029 22.5215 14.1217 22.0796 13.7912L21.6843 14.3198C21.9969 14.5536 22.213 14.8939 22.2915 15.2763L22.938 15.1435ZM20.6962 15.6412C20.6854 15.6332 20.678 15.6214 20.6752 15.6082L21.3217 15.4753C21.2919 15.3303 21.2099 15.2012 21.0912 15.1125L20.6962 15.6412ZM20.6752 15.6082C20.6725 15.5951 20.6747 15.5813 20.6815 15.5697L21.2531 15.8996C21.3271 15.7714 21.3515 15.6204 21.3217 15.4753L20.6752 15.6082ZM21.5963 18.6051L22.6821 16.7247L22.1105 16.3946L21.0247 18.2751L21.5963 18.6051ZM20.6815 15.5696L19.5958 17.4501L20.1674 17.7801L21.2531 15.8996L20.6815 15.5696ZM18.7546 19.5501C19.2619 19.7676 19.8313 19.7916 20.355 19.6174L20.1467 18.9911C19.7763 19.1143 19.3735 19.0974 19.0148 18.9435L18.7546 19.5501ZM20.355 19.6174C20.8787 19.4432 21.3203 19.0831 21.5963 18.6051L21.0247 18.2751C20.8295 18.6132 20.5171 18.8679 20.1467 18.9911L20.355 19.6174ZM19.5958 17.45C19.6026 17.4384 19.6133 17.4296 19.626 17.4254L19.8342 18.0517C19.9747 18.005 20.0932 17.9084 20.1673 17.7802L19.5958 17.45ZM19.626 17.4254C19.6388 17.4211 19.6526 17.4217 19.665 17.427L19.4049 18.0336C19.541 18.092 19.6937 18.0984 19.8342 18.0517L19.626 17.4254ZM17.4466 18.9891L18.7546 19.5501L19.0148 18.9435L17.7067 18.3825L17.4466 18.9891ZM19.665 17.427L18.3571 16.8662L18.097 17.4727L19.4049 18.0336L19.665 17.427ZM15.652 21.3414L15.8196 19.9336L15.1642 19.8556L14.9966 21.2634L15.652 21.3414ZM13.5258 19.6603L13.3581 21.0683L14.0135 21.1463L14.1811 19.7383L13.5258 19.6603ZM13.4127 23.3299C13.9647 23.3299 14.4974 23.1275 14.9101 22.761L14.4718 22.2675C14.1799 22.5267 13.8031 22.6699 13.4128 22.6699L13.4127 23.3299ZM14.9101 22.761C15.3228 22.3946 15.5867 21.8895 15.652 21.3414L14.9966 21.2634C14.9504 21.6511 14.7637 22.0083 14.4718 22.2675L14.9101 22.761ZM13.3581 21.0684C13.3597 21.055 13.3662 21.0427 13.3762 21.0338L13.8145 21.5272C13.9252 21.4289 13.996 21.2933 14.0135 21.1463L13.3581 21.0684ZM13.3762 21.0338C13.3863 21.0248 13.3993 21.0199 13.4127 21.0199L13.4128 21.6799C13.5608 21.6799 13.7038 21.6256 13.8145 21.5272L13.3762 21.0338ZM11.2414 23.3299H13.4128V22.6699H11.2414V23.3299ZM13.4128 21.0199H11.2414V21.6799H13.4128V21.0199ZM9.00214 21.3414C9.06738 21.8895 9.33134 22.3946 9.74402 22.761L10.1823 22.2675C9.89036 22.0083 9.70366 21.6511 9.65751 21.2634L9.00214 21.3414ZM9.74402 22.761C10.1567 23.1275 10.6894 23.3299 11.2414 23.3299L11.2413 22.6699C10.851 22.6699 10.4742 22.5267 10.1823 22.2675L9.74402 22.761ZM11.2414 21.0199C11.2548 21.0199 11.2678 21.0248 11.2779 21.0338L10.8396 21.5272C10.9503 21.6256 11.0933 21.6799 11.2413 21.6799L11.2414 21.0199ZM11.2779 21.0338C11.2879 21.0427 11.2944 21.055 11.296 21.0684L10.6406 21.1463C10.6581 21.2933 10.7289 21.4289 10.8396 21.5272L11.2779 21.0338ZM8.86299 20.1721L9.00214 21.3414L9.65751 21.2634L9.51836 20.0941L8.86299 20.1721ZM11.296 21.0683L11.1568 19.899L10.5014 19.977L10.6406 21.1463L11.296 21.0683ZM10.7901 19.6103L9.15165 19.8055L9.2297 20.4608L10.8681 20.2657L10.7901 19.6103ZM6.06833 16.9642L4.9891 17.427L5.24922 18.0336L6.32846 17.5708L6.06833 16.9642ZM5.89946 19.5501L6.9787 19.0873L6.71857 18.4807L5.63933 18.9435L5.89946 19.5501ZM4.98913 17.427C5.00152 17.4217 5.01527 17.4211 5.02802 17.4254L4.81976 18.0517C4.96022 18.0984 5.1131 18.092 5.24919 18.0336L4.98913 17.427ZM5.02802 17.4254C5.04079 17.4296 5.05156 17.4384 5.05829 17.4501L4.48675 17.7801C4.56079 17.9083 4.67927 18.0049 4.81976 18.0517L5.02802 17.4254ZM3.05797 18.6051C3.33389 19.083 3.77539 19.4432 4.29913 19.6174L4.5074 18.9911C4.13702 18.8679 3.82475 18.6132 3.62955 18.2751L3.05797 18.6051ZM4.29913 19.6174C4.82283 19.7916 5.39222 19.7676 5.89946 19.5501L5.63934 18.9435C5.28057 19.0974 4.87783 19.1143 4.5074 18.9911L4.29913 19.6174ZM5.05832 17.4501L3.97276 15.5697L3.40116 15.8996L4.48673 17.7801L5.05832 17.4501ZM3.52196 15.4489L2.09306 16.2739L2.42306 16.8454L3.85196 16.0204L3.52196 15.4489ZM1.97227 16.7246L3.05797 18.6051L3.62955 18.2751L2.54385 16.3946L1.97227 16.7246ZM3.97271 15.5696C3.97945 15.5812 3.98167 15.595 3.97896 15.6082L3.33244 15.4755C3.30267 15.6205 3.32713 15.7715 3.40121 15.8997L3.97271 15.5696ZM3.97896 15.6082C3.97618 15.6217 3.96862 15.6333 3.95816 15.6411L3.56288 15.1126C3.44462 15.201 3.36229 15.33 3.33244 15.4755L3.97896 15.6082ZM2.57454 13.7912C2.13255 14.1217 1.82712 14.6029 1.7161 15.1435L2.36261 15.2763C2.44114 14.8939 2.65717 14.5536 2.9698 14.3198L2.57454 13.7912ZM1.7161 15.1435C1.60508 15.6841 1.69617 16.2467 1.97214 16.7247L2.54371 16.3946C2.34852 16.0566 2.28408 15.6587 2.36261 15.2763L1.7161 15.1435ZM2.42291 16.8454L3.85195 16.0204L3.52197 15.4489L2.09293 16.2739L2.42291 16.8454ZM3.95816 15.6411L4.80117 15.0107L4.4059 14.4822L3.56289 15.1126L3.95816 15.6411ZM4.86781 14.5488L3.87973 13.2276L3.35119 13.6228L4.33926 14.9441L4.86781 14.5488ZM3.41789 13.1609L2.57461 13.7912L2.96974 14.3198L3.81302 13.6895L3.41789 13.1609ZM2.57455 10.2085L3.41784 10.8391L3.81308 10.3105L2.96979 9.67996L2.57455 10.2085ZM3.87974 10.7724L4.86782 9.45106L4.33925 9.05582L3.35118 10.3772L3.87974 10.7724ZM4.80118 8.98917L3.95803 8.3586L3.56274 8.88714L4.40589 9.51771L4.80118 8.98917ZM1.97214 7.27509C1.69617 7.75305 1.60508 8.31561 1.7161 8.85624L2.36261 8.72347C2.28408 8.34108 2.34852 7.94317 2.54371 7.6051L1.97214 7.27509ZM1.7161 8.85624C1.82712 9.39686 2.13255 9.878 2.57454 10.2085L2.9698 9.67997C2.65717 9.44618 2.44114 9.10586 2.36261 8.72347L1.7161 8.85624ZM3.95791 8.35851C3.9687 8.36657 3.97615 8.37831 3.97886 8.3915L3.33239 8.52442C3.36221 8.66948 3.44422 8.79857 3.56286 8.88722L3.95791 8.35851ZM3.97886 8.3915C3.98167 8.40515 3.97925 8.41882 3.97276 8.43007L3.40116 8.10012C3.32736 8.22796 3.30246 8.37888 3.33239 8.52442L3.97886 8.3915ZM3.05798 5.39462L1.97214 7.27507L2.5437 7.60511L3.62954 5.72466L3.05798 5.39462ZM3.97276 8.43008L5.05832 6.54963L4.48673 6.21965L3.40116 8.1001L3.97276 8.43008ZM5.89946 4.44964C5.39222 4.23212 4.82283 4.20818 4.29913 4.38234L4.5074 5.00862C4.87783 4.88543 5.28057 4.90237 5.63934 5.05622L5.89946 4.44964ZM4.29913 4.38234C3.77539 4.55652 3.33389 4.91672 3.05797 5.39464L3.62955 5.72464C3.82475 5.38653 4.13702 5.13179 4.5074 5.00862L4.29913 4.38234ZM5.05829 6.54967C5.05156 6.56133 5.04079 6.57011 5.02802 6.57436L4.81976 5.94808C4.67927 5.99479 4.56079 6.0914 4.48675 6.21961L5.05829 6.54967ZM5.02802 6.57436C5.01527 6.5786 5.00152 6.57803 4.98913 6.57272L5.24919 5.96611C5.1131 5.90777 4.96022 5.90137 4.81976 5.94808L5.02802 6.57436ZM5.42246 6.39946L6.07269 4.88297L5.4661 4.62288L4.81587 6.13937L5.42246 6.39946ZM6.9787 4.91246L5.89946 4.44964L5.63933 5.05621L6.71857 5.51904L6.9787 4.91246ZM5.46611 4.62287L4.81573 6.13949L5.42231 6.39961L6.07269 4.88299L5.46611 4.62287ZM4.98901 6.57286L6.06838 7.03555L6.32841 6.42893L5.24904 5.96625L4.98901 6.57286ZM6.50169 6.86229L7.15193 5.3458L6.54534 5.08571L5.8951 6.60219L6.50169 6.86229ZM9.00214 2.65844L8.86299 3.8276L9.51836 3.9056L9.65751 2.73644L9.00214 2.65844ZM11.1568 4.10071L11.296 2.93141L10.6406 2.85342L10.5014 4.02272L11.1568 4.10071ZM9.25069 6.77318C10.1466 6.26816 11.0075 5.35401 11.1568 4.10074L10.5014 4.02268C10.3845 5.00435 9.70212 5.76109 8.92661 6.19823L9.25069 6.77318ZM8.86299 3.82759C8.82644 4.13465 8.58581 4.4962 8.11627 4.76097L8.44045 5.33586C9.03407 5.00113 9.44986 4.48102 9.51836 3.90561L8.86299 3.82759ZM6.06832 7.03552C7.19044 7.51679 8.36905 7.27032 9.25074 6.77315L8.92656 6.19825C8.16815 6.62591 7.20945 6.8068 6.32847 6.42896L6.06832 7.03552ZM8.11634 4.76093C7.67017 5.01237 7.2606 5.03336 6.9787 4.91247L6.71857 5.51904C7.23884 5.74217 7.86768 5.65866 8.44038 5.3359L8.11634 4.76093ZM6.54535 5.08569L5.89497 6.60232L6.50155 6.86244L7.15193 5.34581L6.54535 5.08569ZM6.43161 6.96572L6.43174 6.96559L5.96505 6.4989L5.96492 6.49903L6.43161 6.96572ZM6.19455 11.9999C6.19455 10.9545 5.81964 9.75071 4.80133 8.98905L4.40602 9.51756C5.20875 10.118 5.53455 11.0927 5.53455 11.9999H6.19455ZM4.33939 9.05568L3.35118 10.3772L3.87974 10.7724L4.86795 9.45093L4.33939 9.05568ZM3.41782 10.8391C3.68486 11.0388 3.88455 11.4434 3.88455 11.9997H4.54455C4.54455 11.3012 4.29324 10.6696 3.8131 10.3105L3.41782 10.8391ZM4.21452 12.3297L5.86452 12.3299L5.86458 11.6699L4.21458 11.6697L4.21452 12.3297ZM9.25072 17.2266C8.36891 16.7294 7.19045 16.483 6.06832 16.9642L6.32847 17.5708C7.20945 17.1929 8.16801 17.3738 8.92658 17.8015L9.25072 17.2266ZM6.9787 19.0873C7.26059 18.9664 7.67014 18.9874 8.11628 19.2389L8.44044 18.664C7.86771 18.3411 7.23885 18.2576 6.71857 18.4807L6.9787 19.0873ZM8.56583 19.1135L9.37612 17.6761L8.80118 17.352L7.99089 18.7894L8.56583 19.1135ZM4.8012 15.0107C5.81963 14.2489 6.19455 13.0452 6.19455 11.9999H5.53455C5.53455 12.907 5.20877 13.8816 4.40587 14.4822L4.8012 15.0107ZM5.86455 11.6699H4.21468V12.3299H5.86455V11.6699ZM3.88468 11.9999C3.88468 12.5562 3.68496 12.9611 3.41796 13.1608L3.81324 13.6893C4.29341 13.3302 4.54469 12.6983 4.54469 11.9999H3.88468ZM3.3513 13.6227L4.33924 14.944L4.86783 14.5488L3.87989 13.2275L3.3513 13.6227ZM15.2529 17.1545C14.4311 17.644 13.6634 18.5043 13.5258 19.6603L14.1811 19.7384C14.2879 18.8418 14.89 18.1389 15.5907 17.7215L15.2529 17.1545ZM15.8196 19.9337C15.8497 19.6815 16.042 19.3732 16.4352 19.1388L16.0974 18.5719C15.5793 18.8806 15.2249 19.3473 15.1642 19.8555L15.8196 19.9337ZM18.3571 16.8662C17.2592 16.3954 16.1052 16.6466 15.2528 17.1545L15.5907 17.7215C16.3149 17.29 17.244 17.107 18.097 17.4727L18.3571 16.8662ZM16.4352 19.1388C16.8342 18.9011 17.202 18.8843 17.4467 18.9891L17.7066 18.3825C17.2204 18.1741 16.6284 18.2555 16.0974 18.5718L16.4352 19.1388ZM11.1568 19.8989C11.0077 18.6456 10.1466 17.7316 9.25076 17.2263L8.92654 17.8012C9.70217 18.2387 10.3846 18.9953 10.5014 19.9769L11.1568 19.8989ZM8.80117 17.3517L7.99088 18.7893L8.56584 19.1134L9.37613 17.6758L8.80117 17.3517ZM8.11636 19.2388C8.58588 19.5034 8.82643 19.865 8.86299 20.1721L9.51836 20.0941C9.44987 19.5188 9.03427 18.9985 8.44036 18.6638L8.11636 19.2388ZM9.22972 20.4608L10.8682 20.2656L10.7901 19.6102L9.15163 19.8055L9.22972 20.4608ZM18.1847 11.9999C18.1847 12.9525 18.5422 14.0303 19.4611 14.7174L19.8563 14.1889C19.1467 13.6583 18.8447 12.8042 18.8447 11.9999H18.1847ZM19.923 14.6507L20.9109 13.3294L20.3823 12.9342L19.3944 14.2555L19.923 14.6507ZM20.8442 12.8675C20.6544 12.7256 20.4947 12.428 20.4947 11.9999H19.8347C19.8347 12.5804 20.0525 13.0996 20.449 13.3961L20.8442 12.8675ZM19.4611 9.28229C18.542 9.9694 18.1847 11.0472 18.1847 11.9999H18.8447C18.8447 11.1955 19.1466 10.3415 19.8563 9.8109L19.4611 9.28229ZM20.4947 11.9999C20.4947 11.5718 20.6545 11.2742 20.8444 11.1321L20.4491 10.6036C20.0527 10.9001 19.8347 11.4192 19.8347 11.9999H20.4947ZM20.911 10.6702L19.923 9.34896L19.3944 9.74423L20.3825 11.0655L20.911 10.6702ZM15.2528 6.84537C16.1052 7.35326 17.2592 7.60435 18.3569 7.13372L18.0969 6.52712C17.244 6.89276 16.3149 6.7099 15.5907 6.27839L15.2528 6.84537ZM17.4466 5.01064C17.202 5.11554 16.8343 5.09868 16.4352 4.86089L16.0974 5.42789C16.6283 5.74423 17.2204 5.82581 17.7067 5.61721L17.4466 5.01064ZM13.5258 4.33962C13.6636 5.49559 14.4311 6.35581 15.2529 6.84538L15.5907 6.27837C14.8901 5.861 14.288 5.15812 14.1811 4.26148L13.5258 4.33962ZM16.4352 4.86087C16.0418 4.62658 15.8496 4.31848 15.8196 4.06645L15.1642 4.14443C15.2247 4.65277 15.5794 5.11935 16.0974 5.4279L16.4352 4.86087ZM13.5234 4.30041V4.30055H14.1834V4.30041H13.5234Z" fill="#1D2D47" mask="url(#path-2-outside-1_144_879)"/>
</svg>
