<svg width="49" height="42" viewBox="0 0 49 42" fill="none" xmlns="http://www.w3.org/2000/svg">
<path d="M25 0C38.2188 0 49 8.8125 49 19.5C49 30.2812 38.2188 39 25 39C21.3438 39 17.9688 38.3438 14.875 37.2188C12.625 39.0938 7.9375 42 1.75 42C1.375 42 1.1875 41.9062 1 41.625C0.90625 41.3438 1 40.9688 1.1875 40.7812C1.1875 40.6875 5.125 36.5625 6.34375 31.7812C2.96875 28.4062 1 24.1875 1 19.5C1 8.8125 11.6875 0 25 0ZM13 25.5C15.1562 25.5 16.9375 23.9062 16.9375 21.9375C16.9375 20.9062 16.4688 19.9688 15.7188 19.3125L13.6562 17.5312C13.5625 17.4375 13.4688 17.25 13.4688 17.1562C13.4688 16.875 13.8438 16.5938 14.4062 16.5938H15.625C16 16.5938 16.375 16.2188 16.375 15.8438V14.3438C16.375 13.875 16 13.5938 15.625 13.5938H14.4062C12.25 13.5938 10.4688 15.1875 10.4688 17.1562C10.4688 18.1875 10.9375 19.125 11.6875 19.7812L13.75 21.5625C13.8438 21.6562 13.9375 21.8438 13.9375 21.9375C13.9375 22.2188 13.5625 22.5 13 22.5H11.875C11.4062 22.5 11.125 22.875 11.125 23.25V24.75C11.125 25.2188 11.4062 25.5 11.875 25.5H13ZM31 24.75V15C31 14.25 30.25 13.5 29.5 13.5H28C27.4375 13.5 26.875 13.875 26.5938 14.3438L25 17.7188L23.3125 14.3438C23.0312 13.875 22.5625 13.5 22 13.5H20.5C19.6562 13.5 19 14.25 19 15V24.75C19 25.2188 19.2812 25.5 19.75 25.5H21.25C21.625 25.5 22 25.2188 22 24.75V18.375L24.25 23.625C24.5312 24.1875 25.375 24.1875 25.6562 23.625L28 18.375V24.75C28 25.2188 28.2812 25.5 28.75 25.5H30.25C30.625 25.5 31 25.2188 31 24.75ZM35.5 25.5C37.6562 25.5 39.4375 23.9062 39.4375 21.9375C39.4375 20.9062 38.9688 19.9688 38.2188 19.3125L36.1562 17.5312C36.0625 17.4375 35.9688 17.25 35.9688 17.1562C35.9688 16.875 36.3438 16.5938 36.9062 16.5938H38.125C38.5 16.5938 38.875 16.2188 38.875 15.8438V14.3438C38.875 13.875 38.5 13.5938 38.125 13.5938H36.9062C34.75 13.5938 32.9688 15.1875 32.9688 17.1562C32.9688 18.1875 33.4375 19.125 34.1875 19.7812L36.25 21.5625C36.3438 21.6562 36.4375 21.8438 36.4375 21.9375C36.4375 22.2188 36.0625 22.5 35.5 22.5H34.375C33.9062 22.5 33.625 22.875 33.625 23.25V24.75C33.625 25.2188 33.9062 25.5 34.375 25.5H35.5Z" fill="#2B3990"/>
</svg>
