<svg width="28" height="27" viewBox="0 0 28 27" fill="none" xmlns="http://www.w3.org/2000/svg">
<path d="M14.1249 0.87207C15.2368 0.87207 19.0155 1.18422 20.7948 5.16958C21.3878 6.51434 21.247 8.79049 21.1288 10.6229V10.6887C21.1153 10.8912 21.1027 11.0801 21.0934 11.264C21.1769 11.3121 21.322 11.3653 21.5456 11.3653C21.8797 11.3476 22.2838 11.2295 22.7056 11.027C22.8904 10.9257 23.092 10.908 23.2287 10.908C23.4311 10.908 23.6328 10.9435 23.7998 11.0093C24.3051 11.1763 24.6257 11.55 24.6257 11.9541C24.6434 12.4595 24.1862 12.899 23.259 13.2677C23.162 13.2981 23.0262 13.3512 22.8726 13.3993C22.3673 13.5528 21.5937 13.8034 21.3743 14.313C21.2731 14.5635 21.3085 14.9018 21.5102 15.2882L21.5279 15.3059C21.5937 15.4595 23.2413 19.212 26.9145 19.8186C27.2047 19.8717 27.4064 20.1214 27.3895 20.3939C27.3889 20.4802 27.3709 20.5654 27.3364 20.6445C27.0681 21.2857 25.9039 21.7564 23.799 22.077C23.7332 22.1782 23.6631 22.4988 23.6142 22.7182C23.5768 22.9274 23.527 23.1341 23.4649 23.3374C23.3771 23.6403 23.157 23.7946 22.8364 23.7946H22.806C22.6525 23.7946 22.4542 23.7592 22.1994 23.7111C21.7287 23.6096 21.2485 23.5581 20.7669 23.5576C20.4286 23.5576 20.0945 23.5753 19.7385 23.6411C19.0661 23.7601 18.4773 24.1642 17.8007 24.6383C16.8431 25.3107 15.7489 26.0843 14.0962 26.0843C14.0304 26.0843 13.9646 26.0666 13.8938 26.0666H13.7267C12.0749 26.0666 10.9984 25.3107 10.0358 24.6206C9.36342 24.1456 8.79228 23.7415 8.11568 23.6234C7.7709 23.5724 7.42311 23.5445 7.07462 23.5399C6.46804 23.5399 5.99814 23.6411 5.64212 23.7111C5.443 23.7579 5.23991 23.7859 5.03554 23.7946C4.61372 23.7946 4.44668 23.5399 4.38088 23.3197C4.31085 23.1046 4.27964 22.8801 4.22733 22.6827C4.17418 22.4803 4.10838 22.1251 4.04258 22.0416C1.88539 21.791 0.725379 21.3211 0.452883 20.6622C0.415776 20.5822 0.394847 20.4956 0.391297 20.4074C0.385915 20.2704 0.431467 20.1362 0.519172 20.0307C0.606877 19.9252 0.730522 19.856 0.866267 19.8363C4.53526 19.2297 6.18711 15.473 6.25292 15.3152L6.27063 15.2848C6.47311 14.8934 6.52541 14.5601 6.40646 14.3054C6.18711 13.8177 5.41349 13.5672 4.90815 13.3959C4.77435 13.3626 4.64344 13.3186 4.5167 13.2643C3.27318 12.7725 3.10192 12.2182 3.17194 11.8318C3.27318 11.291 3.92784 10.9401 4.48549 10.9401C4.64831 10.9401 4.78835 10.9705 4.91574 11.0236C5.38565 11.2387 5.80326 11.3577 6.15927 11.3577C6.41827 11.3577 6.58953 11.2919 6.68233 11.2438L6.62918 10.6026C6.51951 8.77446 6.3744 6.4941 6.9717 5.16283C8.70285 1.19518 12.4689 0.891474 13.5799 0.891474L14.0498 0.873758L14.1249 0.87207Z" fill="white"/>
</svg>
