<svg width="70" height="71" viewBox="0 0 70 71" fill="none" xmlns="http://www.w3.org/2000/svg">
<circle opacity="0.1" cx="35" cy="35.5" r="35" fill="black"/>
<path d="M46 36.5C47.625 36.5 49 37.875 49 39.5V49.5C49 51.1875 47.625 52.5 46 52.5H24C22.3125 52.5 21 51.1875 21 49.5V39.5C21 37.875 22.3125 36.5 24 36.5H25.5V30.125C25.5 24.875 29.6875 20.5625 34.9375 20.5C40.1875 20.5 44.5 24.75 44.5 30V31C44.5 31.875 43.8125 32.5 43 32.5H41C40.125 32.5 39.5 31.875 39.5 31V30C39.5 27.5625 37.4375 25.5 34.9375 25.5C32.4375 25.5625 30.5 27.625 30.5 30.0625V36.5H46Z" fill="#16ACDA"/>
</svg>
