<svg width="70" height="71" viewBox="0 0 70 71" fill="none" xmlns="http://www.w3.org/2000/svg">
<circle cx="35" cy="35.5" r="35" fill="white"/>
<path d="M46.125 35.5C47.75 35.5 49.125 36.875 49.125 38.5V48.5C49.125 50.1875 47.75 51.5 46.125 51.5H24.125C22.4375 51.5 21.125 50.1875 21.125 48.5V38.5C21.125 36.875 22.4375 35.5 24.125 35.5H25.625V29.125C25.625 23.875 29.8125 19.5625 35.0625 19.5C40.3125 19.5 44.625 23.75 44.625 29V30C44.625 30.875 43.9375 31.5 43.125 31.5H41.125C40.25 31.5 39.625 30.875 39.625 30V29C39.625 26.5625 37.5625 24.5 35.0625 24.5C32.5625 24.5625 30.625 26.625 30.625 29.0625V35.5H46.125Z" fill="#16ACDA"/>
</svg>
