<svg width="29" height="24" viewBox="0 0 29 24" fill="none" xmlns="http://www.w3.org/2000/svg">
<path d="M28.663 3.47651C27.6273 3.93544 26.5148 4.24553 25.3451 4.38569C26.552 3.66355 27.4549 2.52698 27.8853 1.18807C26.7515 1.86156 25.5105 2.33563 24.2164 2.58966C23.3461 1.66047 22.1934 1.04459 20.9373 0.837635C19.6812 0.630679 18.3918 0.84423 17.2695 1.44513C16.1471 2.04603 15.2546 3.00067 14.7304 4.16082C14.2062 5.32097 14.0797 6.62173 14.3705 7.86115C12.073 7.7458 9.82537 7.14863 7.77358 6.10842C5.72178 5.06821 3.91164 3.60819 2.46063 1.82313C1.96449 2.67897 1.67921 3.67125 1.67921 4.72803C1.67865 5.67937 1.91293 6.61614 2.36125 7.45523C2.80957 8.29431 3.45807 9.00977 4.24921 9.53811C3.3317 9.50891 2.43442 9.26099 1.63207 8.81498V8.88941C1.63198 10.2237 2.09353 11.5169 2.93839 12.5497C3.78326 13.5824 4.9594 14.291 6.26727 14.5553C5.41612 14.7857 4.52375 14.8196 3.65757 14.6546C4.02657 15.8026 4.74535 16.8066 5.71328 17.5259C6.68122 18.2452 7.84985 18.6437 9.05557 18.6659C7.00879 20.2726 4.48102 21.1442 1.8789 21.1404C1.41797 21.1405 0.957418 21.1136 0.499634 21.0597C3.14093 22.758 6.21559 23.6593 9.35574 23.6558C19.9855 23.6558 25.7966 14.8518 25.7966 7.21617C25.7966 6.9681 25.7904 6.71755 25.7792 6.46948C26.9095 5.65206 27.8852 4.63983 28.6606 3.48023L28.663 3.47651Z" fill="white"/>
</svg>
