<svg width="31" height="31" viewBox="0 0 31 31" fill="none" xmlns="http://www.w3.org/2000/svg">
<circle cx="15.5" cy="15.5" r="15.5" fill="#AC1A95"/>
<path d="M17.875 7.375C17.875 8.42969 17.0156 9.25 16 9.25C14.9453 9.25 14.125 8.42969 14.125 7.375C14.125 6.35938 14.9453 5.5 16 5.5C17.0156 5.5 17.875 6.35938 17.875 7.375ZM17.875 23.625C17.875 24.6797 17.0156 25.5 16 25.5C14.9453 25.5 14.125 24.6797 14.125 23.625C14.125 22.6094 14.9453 21.75 16 21.75C17.0156 21.75 17.875 22.6094 17.875 23.625ZM7.875 17.375C6.82031 17.375 6 16.5547 6 15.5C6 14.4844 6.82031 13.625 7.875 13.625C8.89062 13.625 9.75 14.4844 9.75 15.5C9.75 16.5547 8.89062 17.375 7.875 17.375ZM26 15.5C26 16.5547 25.1406 17.375 24.125 17.375C23.0703 17.375 22.25 16.5547 22.25 15.5C22.25 14.4844 23.0703 13.625 24.125 13.625C25.1406 13.625 26 14.4844 26 15.5ZM11.5469 22.5703C10.8438 23.3125 9.63281 23.3125 8.92969 22.5703C8.1875 21.8672 8.1875 20.6562 8.92969 19.9531C9.63281 19.2109 10.8438 19.2109 11.5469 19.9531C12.2891 20.6562 12.2891 21.8672 11.5469 22.5703ZM11.5469 11.0859C10.8438 11.8281 9.63281 11.8281 8.92969 11.0859C8.1875 10.3828 8.1875 9.17188 8.92969 8.42969C9.63281 7.72656 10.8438 7.72656 11.5469 8.42969C12.2891 9.17188 12.2891 10.3828 11.5469 11.0859ZM20.4141 22.5703C19.6719 21.8672 19.6719 20.6562 20.4141 19.9531C21.1172 19.2109 22.3281 19.2109 23.0703 19.9531C23.7734 20.6562 23.7734 21.8672 23.0703 22.5703C22.3281 23.3125 21.1172 23.3125 20.4141 22.5703Z" fill="white"/>
</svg>
