<svg width="70" height="71" viewBox="0 0 70 71" fill="none" xmlns="http://www.w3.org/2000/svg">
<circle cx="35" cy="35.5" r="35" fill="white"/>
<path d="M47.8125 27.5C49.5625 27.5 51 28.875 51 30.5V46.5C51 48.1875 49.5625 49.5 47.8125 49.5H23C20.75 49.5 19 47.75 19 45.5V25.5C19 23.3125 20.75 21.5 23 21.5H46C47.625 21.5 49 22.875 49 24.5C49 25.0625 48.5 25.5 48 25.5H24C23.4375 25.5 23 26 23 26.5C23 27.0625 23.4375 27.5 24 27.5H47.8125ZM45 40.5C46.0625 40.5 47 39.625 47 38.5C47 37.4375 46.0625 36.5 45 36.5C43.875 36.5 43 37.4375 43 38.5C43 39.625 43.875 40.5 45 40.5Z" fill="#16ACDA"/>
</svg>
