<svg width="35" height="28" viewBox="0 0 35 28" fill="none" xmlns="http://www.w3.org/2000/svg">
<path d="M34.125 22.75C34.3802 22.75 34.5807 22.8411 34.7266 23.0234C34.9089 23.1693 35 23.3698 35 23.625V24.5C35 25.4479 34.6536 26.2682 33.9609 26.9609C33.2682 27.6536 32.4479 28 31.5 28H3.5C2.55208 28 1.73177 27.6536 1.03906 26.9609C0.346354 26.2682 0 25.4479 0 24.5V23.625C0 23.3698 0.0729167 23.1693 0.21875 23.0234C0.401042 22.8411 0.619792 22.75 0.875 22.75H13.9453C13.9453 23.151 14.1276 23.5521 14.4922 23.9531C14.8568 24.3177 15.276 24.5 15.75 24.5H19.0859C19.5964 24.5 20.0156 24.3542 20.3438 24.0625C20.6719 23.7344 20.8542 23.2969 20.8906 22.75H34.125ZM31.5 2.625V21H3.5V2.625C3.5 1.89583 3.75521 1.27604 4.26562 0.765625C4.77604 0.255208 5.39583 0 6.125 0H28.875C29.6042 0 30.224 0.255208 30.7344 0.765625C31.2448 1.27604 31.5 1.89583 31.5 2.625ZM28 17.5V3.5H7V17.5H28Z" fill="#16ACDA"/>
</svg>
